<svg xmlns="http://www.w3.org/2000/svg" viewBox="0 0 342.07 303.57" xmlns:v="https://vecta.io/nano"><defs><linearGradient id="A" x1="168.57" y1="77.07" x2="260.86" y2="77.07" gradientUnits="userSpaceOnUse"><stop offset="0" stop-color="#ff7bac"/><stop offset=".22" stop-color="#ff7bac" stop-opacity=".76"/><stop offset=".6" stop-color="#ff7bac" stop-opacity=".36"/><stop offset=".87" stop-color="#ff7bac" stop-opacity=".1"/><stop offset="1" stop-color="#ff7bac" stop-opacity="0"/></linearGradient><radialGradient id="B" cx="149.67" cy="196.76" r="76.7" gradientUnits="userSpaceOnUse"><stop offset="0" stop-color="#fff"/><stop offset=".09" stop-color="#ffedd8"/><stop offset=".21" stop-color="#ffd5a7"/><stop offset=".33" stop-color="#ffc17d"/><stop offset=".46" stop-color="#ffb05b"/><stop offset=".59" stop-color="#ffa340"/><stop offset=".72" stop-color="#ff9a2d"/><stop offset=".86" stop-color="#ff9522"/><stop offset="1" stop-color="#ff931e"/></radialGradient></defs><path d="M51.86 275.57c-21.94-7.82-31.54-32.14-33.6-37.32-14.65-37.1 4.8-77.28 11.2-90.52 16.7-34.58 37.7-46.46 32.66-66.72-3.7-14.8-16.84-16.1-17.27-26.6C44 33.08 97.18 8.05 145.64 2.15c21.23-2.58 95.84-11.64 150.24 43.4 46.28 46.82 45.45 107.15 45.26 120.85-.3 20.53-1.18 84.86-39.2 105.9-47.1 26.1-94.87-45.5-169.87-22.4-34.8 10.76-53.45 35.24-80.2 25.66z" fill="#00a99d" opacity=".2"/><path d="M168.57 82.38V60.7A14.42 14.42 0 0 1 183 46.27h63.47c7.96.006 14.4 6.46 14.4 14.42v21.7c0 7.958-6.452 14.4-14.4 14.4-48.34-9.3-64.46-4-69.8 3.24-1.13 1.54-5.75 8.54-7.44 7.77-1.07-.48-.34-3.77 0-8.42a66.78 66.78 0 0 0-.65-15.22z" transform="translate(-1.93 -19.85)" opacity=".6" fill="url(#A)"/><ellipse cx="188.57" cy="273.71" rx="153.5" ry="29.86" fill="#534741"/><path d="M211.9 157.98l-.47-.5v-.4h-.4L147.8 89.45l-63.25 67.62h-.95l.94 98.9 126.9 8.4v-106.4h.47z" fill="#fff"/><path d="M149.72 115.16l59.64 63.75V280l-118.94-7.92-.88-92.6 60.18-64.32m0-5.86l-63.25 67.62h-1l.93 98.9 126.9 8.4v-106.4h.47l-.47-.5v-.4h-.3l-63.28-67.62z" transform="translate(-1.93 -19.85)" fill="url(#B)"/><path d="M147.8 89.45l137.83 15.36 45.72 53.2-119.9-.93-63.64-67.62z" fill="#ed6b43"/><path d="M211.43 264.38v-107.3l119.9.93-1.4 87.25-118.5 19.13z" fill="#e89746"/><g opacity=".76"><path d="M61.07 175.77c-3-1-6.7-6.13-11.93-8.9-18.28-9.7-50.68 11.52-49.07 16.72 1.06 3.47 16-4 37.86 2.55a83.5 83.5 0 0 1 21.3 10.2c-4.75.3-10.73 2.5-22.48 2.84-6.5.2-10.18-.32-11.9 2.18-2 2.93 0 8 1.75 10.64 10 15.18 48 4.5 49.1 9.48.62 2.8-10.8 8.85-21.22 11.92s-15.74 2-16.64 4.73c-1.4 4.26 9.47 12.62 20.15 16.54 3.7 1.36 18.83 6.92 30.16.58z" fill="#006837" opacity=".9"/><path d="M60.5 175.96c1.73-2.57 1.56-8.94 4-14.34 8.53-18.86 47.16-21.82 49.08-16.73 1.28 3.4-15.16 6.6-28.42 25.14a82.92 82.92 0 0 0-10.63 21.12c3.93-2.67 10-4.57 19.52-11.47 5.28-3.83 7.87-6.48 10.76-5.54 3.36 1.1 4.88 6.35 5.1 9.5 1.33 18.15-35.28 32.9-33.1 37.5 1.22 2.6 14 .4 24.08-3.53s13.67-8 16.07-6.42c3.7 2.52.2 15.78-5.85 25.4-2.1 3.33-10.7 17-23.53 18.88z" opacity=".9" fill="#39b54a"/></g><path d="M175.5 258.78l.47-71.85c-5.24-14.95-20.26-23.45-34.06-20.53-11.1 2.34-20 11.77-22.4 23.8l.47 64.86z" fill="#333"/><path d="M140.58 80.95a2.29 2.29 0 1 0 1.49-2.86 2.3 2.3 0 0 0-1.49 2.86zm.2-7.24a6.82 6.82 0 0 0-4.41 4.12l1.42.55a5.34 5.34 0 0 1 8.07-2.46l.88-1.25a6.82 6.82 0 0 0-5.96-.96zm-2.7-8.77a16 16 0 0 0-10.31 9.61l1.46.56a14.44 14.44 0 0 1 21.85-6.64l1-1.32a16 16 0 0 0-14-2.21zm1.36 4.38a11.41 11.41 0 0 0-7.37 6.83l1.43.55a9.89 9.89 0 0 1 15-4.56l.88-1.25a11.43 11.43 0 0 0-9.94-1.57zm57.48-41.48l-1.62-1a1 1 0 0 1 1-1.62l1.62 1a1 1 0 0 1-1 1.62zm19.4 12.3l-1.62-1a1 1 0 0 1-.29-1.33 1 1 0 0 1 1.32-.29l1.62 1a.94.94 0 0 1 .29 1.32 1 1 0 0 1-1.32.3z" fill="#2e3192"/><path d="M212.43 32.03l-8.1-5.15a1 1 0 0 0-1.27.27l-3.1 4.85a1 1 0 0 0 .3 1.32l8.08 5.14a.94.94 0 0 0 1.32-.29l3.1-4.85a1 1 0 0 0-.29-1.32zm-3.9 4.33l-6.46-4.1 2.06-3.24 6.46 4.14z" fill="#fff"/><path d="M209.07 60.54a1 1 0 0 1-1.32.3h0l-27.48-17.5a1 1 0 0 1-.3-1.32l11.32-17.78a1 1 0 0 1 1.32-.3l27.46 17.5a1 1 0 0 1 .29 1.33l-11.3 17.78z" fill="#29abe2"/><path d="M199.7 46.65a1.92 1.92 0 0 1-3.409-.073 1.92 1.92 0 0 1 .179-1.987l4.1-6.44a1.92 1.92 0 0 1 3.479-.048 1.92 1.92 0 0 1-.239 2.048z" fill="#da4453"/><path d="M205 45.48a1.91 1.91 0 0 1-2.64.58l-6.47-4.1a1.92 1.92 0 0 1 .124-3.345 1.92 1.92 0 0 1 1.936.105l6.46 4.12a1.91 1.91 0 0 1 .59 2.65z" fill="#c1272d"/><g fill="#fcee21"><path d="M242.73 69.77c-4.67 2-12.7-1.1-15.6-8s.44-15.07 5.1-17 10.8 2.06 13.7 9 1.47 14.05-3.2 16z"/><ellipse cx="241.1" cy="76.39" rx="7.02" ry="13.27" transform="matrix(.922201 -.386711 .386711 .922201 -12.71 79.31)" stroke="#fff"/></g><g stroke-miterlimit="10" fill="none" stroke-width=".5"><path d="M240.12 45.4l-1.46 21.8" stroke="#fff"/><path d="M231.47 50l16.25 12.7" stroke="#fff"/><path d="M244.07 68.22l-9.6-24.43" stroke="#fff"/></g><path d="M57 268.58h81.18v3.27H57zm131.8 14h81.18v3.27H188.8z" fill="#fff"/></svg>