<svg id="Layer_1" data-name="Layer 1" xmlns="http://www.w3.org/2000/svg" viewBox="0 0 298.47 305.39">
  <defs>
    <style>
      .cls-1, .cls-10 {
        fill: #0071bc;
      }

      .cls-1 {
        opacity: 0.1;
      }

      .cls-2 {
        fill: #e6e6e6;
      }

      .cls-3, .cls-8, .cls-9 {
        fill: #fff;
      }

      .cls-4 {
        fill: #f7931e;
        opacity: 0.55;
      }

      .cls-11, .cls-5 {
        fill: #f15a24;
      }

      .cls-19, .cls-6 {
        fill: #4a75d2;
      }

      .cls-6 {
        opacity: 0.47;
      }

      .cls-7 {
        fill: #333;
        opacity: 0.53;
      }

      .cls-8 {
        opacity: 0.78;
      }

      .cls-9 {
        stroke: #000;
        stroke-miterlimit: 10;
        stroke-width: 0.25px;
      }

      .cls-11 {
        font-size: 13.65px;
        font-family: MyriadPro-Regular, Myriad Pro;
      }

      .cls-12 {
        letter-spacing: 0em;
      }

      .cls-13 {
        letter-spacing: 0em;
      }

      .cls-14 {
        letter-spacing: 0em;
      }

      .cls-15 {
        fill: #ffb332;
      }

      .cls-16 {
        fill: #6a420d;
      }

      .cls-17 {
        fill: #c7f451;
      }

      .cls-18 {
        fill: #4d611b;
      }

      .cls-20 {
        fill: #21386b;
      }

      .cls-21 {
        fill: #204f63;
      }

      .cls-22, .cls-23 {
        fill: #fbb03b;
      }

      .cls-23 {
        opacity: 0.89;
      }
    </style>
  </defs>
  <title>onboard3</title>
  <path class="cls-1" d="M51.27,326.18a206.58,206.58,0,0,1-10.15-24c-12-34.22-10.68-63.61-9.06-101,1.52-34.8,5.44-34.14,5.44-65.2,0-10.07-.41-16.62,2.71-25.36C47.55,90.15,38.43,69.8,76,74.42c8.83,1.09,43.48-24.05,79.69-13.13,11.33,3.42,22,9.63,28.53,4.53,5.27-4.14,2.39-11.53,5-19,7.06-20.45,52.64-35.42,86.94-19,22.89,10.95,43.27,37.08,38,55.7-3.87,13.8-19.33,14.59-22.64,29.88-2.55,11.8,5.21,18,14.49,38,11.66,25.23,14.15,47.39,16.76,70.64,1.92,17.15,3.5,31.18.9,49.35a148,148,0,0,1-19.56,54.79Z" transform="translate(-31.03 -20.79)"/>
  <rect class="cls-2" x="26.01" y="53.91" width="65.52" height="27.81"/>
  <rect class="cls-2" x="26.01" y="90.87" width="65.52" height="27.81"/>
  <rect class="cls-2" x="120.73" y="92.13" width="65.52" height="29.91" transform="translate(229.55 -67.2) rotate(90)"/>
  <circle class="cls-2" cx="116.08" cy="232.06" r="31.15" transform="translate(-169.58 261.19) rotate(-74.52)"/>
  <rect class="cls-2" x="26.01" y="211.27" width="230.07" height="4.84"/>
  <rect class="cls-2" x="26.01" y="126.35" width="223.84" height="4.84"/>
  <rect class="cls-2" x="35.1" y="232.06" width="165.43" height="4.84" transform="translate(321.26 95.87) rotate(90)"/>
  <rect class="cls-2" x="201.28" y="150.93" width="165.43" height="6.24" transform="translate(407.01 -150.74) rotate(90)"/>
  <rect class="cls-2" x="57.26" y="193.53" width="242.49" height="4.84" transform="translate(343.42 -3.35) rotate(90)"/>
  <circle class="cls-3" cx="116.07" cy="232.06" r="20.98" transform="translate(-173.19 236.5) rotate(-69.01)"/>
  <rect class="cls-2" x="95.54" y="137.11" width="23.93" height="37.16"/>
  <rect class="cls-2" x="26.01" y="165.07" width="23.32" height="26.7"/>
  <rect class="cls-2" x="26.01" y="137.11" width="46.94" height="23.32"/>
  <rect class="cls-2" x="123.51" y="137.11" width="16.74" height="23.1"/>
  <rect class="cls-2" x="123.51" y="165.07" width="16.74" height="38.6"/>
  <rect class="cls-2" x="123.51" y="220.68" width="16.74" height="22.85"/>
  <rect class="cls-2" x="199.56" y="137.11" width="17.41" height="66.57"/>
  <rect class="cls-2" x="222.62" y="137.11" width="21.58" height="66.57"/>
  <rect class="cls-2" x="211.75" y="53.01" width="30.71" height="66.57"/>
  <rect class="cls-2" x="196.25" y="223.12" width="59.83" height="73.28"/>
  <rect class="cls-2" x="94.06" y="268.68" width="46.19" height="27.71"/>
  <rect class="cls-2" x="94.06" y="248.77" width="46.19" height="14.69"/>
  <rect class="cls-2" x="26.01" y="248.77" width="41.49" height="47.63"/>
  <rect class="cls-2" x="26.01" y="218.69" width="17.47" height="25.67"/>
  <rect class="cls-2" x="170.36" y="175.11" width="65.52" height="29.91" transform="translate(362.15 -33.85) rotate(90)"/>
  <rect class="cls-2" x="169.34" y="269.06" width="65.52" height="29.91" transform="translate(455.08 61.13) rotate(90)"/>
  <rect class="cls-4" x="171.38" y="90.85" width="65.52" height="29.91" transform="translate(278.91 -119.12) rotate(90)"/>
  <text x="-31.03" y="-20.79"/>  <g>
    <path class="cls-5" d="M211.77,90c-.17-.53-2.23-6.67-7.44-6.9h-.7c-5.21.23-7.27,6.37-7.44,6.9a10.68,10.68,0,0,0,.36,7.26c.06.14,1.16,1.69,3.36,4.78,2,2.83,2,2.75,2.13,3,1,1.66,1.28,2.58,1.76,2.79v0l.18,0h0l.17,0v0c.48-.21.77-1.13,1.76-2.79.16-.26.12-.18,2.13-3,2.2-3.09,3.3-4.64,3.36-4.78A10.68,10.68,0,0,0,211.77,90Z" transform="translate(-31.03 -20.79)"/>
    <circle class="cls-3" cx="172.95" cy="72.04" r="4.69"/>
  </g>
  <g>
    <path class="cls-5" d="M118.79,124c-.11-.36-1.5-4.51-5-4.66h-.47c-3.51.15-4.9,4.3-5,4.66a7.11,7.11,0,0,0,.24,4.89c0,.09.78,1.14,2.26,3.23,1.36,1.9,1.33,1.85,1.44,2,.67,1.11.86,1.73,1.19,1.88v0h.24v0c.32-.15.52-.77,1.19-1.88.11-.18.08-.13,1.43-2,1.49-2.09,2.23-3.14,2.27-3.23A7.17,7.17,0,0,0,118.79,124Z" transform="translate(-31.03 -20.79)"/>
    <circle class="cls-3" cx="82.51" cy="105.1" r="3.16"/>
  </g>
  <circle class="cls-6" cx="201.45" cy="208.33" r="97.02"/>
  <g>
    <rect class="cls-7" x="10.05" y="125.77" width="110.71" height="176.52" rx="8.12"/>
    <rect class="cls-8" x="20.75" y="139.82" width="89.18" height="142.19"/>
  </g>
  <g>
    <rect class="cls-9" x="116.22" y="33.24" width="94.75" height="4.05"/>
    <rect class="cls-10" x="73.03" y="33.24" width="43.19" height="4.05"/>
    <path class="cls-10" d="M143,49.38a4.41,4.41,0,1,1,4.41,4.41A4.42,4.42,0,0,1,143,49.38Z" transform="translate(-31.03 -20.79)"/>
  </g>
  <text x="-31.03" y="-20.79"/>  <text class="cls-11" transform="translate(31.59 159.06)"><tspan class="cls-12">Q</tspan><tspan x="9.44" y="0">ua</tspan><tspan class="cls-13" x="23.54" y="0">r</tspan><tspan x="27.93" y="0">a</tspan><tspan class="cls-14" x="34.51" y="0">n</tspan><tspan x="42.03" y="0">tined</tspan></text>
  <circle class="cls-3" cx="64.49" cy="292.61" r="6.58"/>
  <g>
    <circle class="cls-15" cx="75.2" cy="214.12" r="11.41" transform="translate(-179.22 233.26) rotate(-80.78)"/>
    <path class="cls-16" d="M75.2,225.53a11.33,11.33,0,0,0,8-3.24,6.47,6.47,0,0,0-.82-2.69c-.39-.51-2.07-1-3.2-1.4a10,10,0,0,0-1.76-.92l0,.05h0v0a1.69,1.69,0,0,1-.05-.33v-.57a5.21,5.21,0,0,0,.4-.6c2.06-.9,1.46-3.72,1.46-3.72.26.27.84.19.84.19-.18,0-.28-.24-.37-.54a3.53,3.53,0,0,0,1.51.21,3.47,3.47,0,0,1-1.56-2.09,12.1,12.1,0,0,0-.93-2.5A3.73,3.73,0,0,0,74,205.86,2.06,2.06,0,0,0,72.91,207a1.41,1.41,0,0,0-1.16.49,2.86,2.86,0,0,0-.61,1.14,9,9,0,0,0-.28,3.32,6,6,0,0,0,.84,3,3.14,3.14,0,0,0,1.18,1l.21.33v.72h0a1.23,1.23,0,0,1,0,.35h0a10,10,0,0,0-1.76.92c-1.13.35-2.81.89-3.2,1.4a6.61,6.61,0,0,0-.83,2.69A11.36,11.36,0,0,0,75.2,225.53Z" transform="translate(-31.03 -20.79)"/>
  </g>
  <g>
    <circle class="cls-17" cx="113.19" cy="229.29" r="17.61" transform="translate(-167 265.98) rotate(-76.72)"/>
    <path class="cls-18" d="M126.58,237.16c-1.11-1.5-8.11-3.71-8.41-4a16.7,16.7,0,0,1-1.29-1.57h-.07v-1.45a7.91,7.91,0,0,0,1-1.5,7,7,0,0,0,.37-1.69c1.15-.53,1.29-2.37,1.34-3.4,0-.51-.22-.55-.49-.46l0-.06a4.33,4.33,0,0,0,.56-1.33,4.71,4.71,0,0,0-1.1-5.1,2,2,0,0,0-.35-.31,1.43,1.43,0,0,0-.31-.42,3.34,3.34,0,0,0-2.16-.63,2.84,2.84,0,0,1-2.11-.74l.35.55a4,4,0,0,1-2.52-2.11l-.06.64a1.56,1.56,0,0,1-.54-1,5.6,5.6,0,0,0-2.59,4.67A4.69,4.69,0,0,0,107,219a1.46,1.46,0,0,0-.16.46,3.8,3.8,0,0,0-.18,1.06,4.47,4.47,0,0,0,.65,2.49,1,1,0,0,0,0,.14c-.25-.08-.46,0-.43.47,0,1,.18,2.87,1.34,3.4a6.67,6.67,0,0,0,.36,1.69,8.16,8.16,0,0,0,.92,1.46v1.49h-.06a16.7,16.7,0,0,1-1.29,1.57c-.31.25-7.3,2.46-8.41,4a7.71,7.71,0,0,0-1,2.21,17.59,17.59,0,0,0,28.86,0A7.45,7.45,0,0,0,126.58,237.16Z" transform="translate(-31.03 -20.79)"/>
  </g>
  <g>
    <circle class="cls-19" cx="76.05" cy="275.27" r="18.41" transform="translate(-231.68 325.18) rotate(-88.89)"/>
    <path class="cls-20" d="M76.05,293.68a18.33,18.33,0,0,0,12.87-5.25,10,10,0,0,0-1.27-4c-.64-.84-3.37-1.71-5.2-2.28a12.24,12.24,0,0,0-1.45-.85,5.28,5.28,0,0,0,3.6-1.13,2.07,2.07,0,0,1-1.31-.29l.47-.13a3.37,3.37,0,0,1-2.41-2.06,8.41,8.41,0,0,1,1.26-1.34v.21a7.72,7.72,0,0,0,1.31-2,4,4,0,0,0-.31-3.43l.31.11a7.5,7.5,0,0,1-1.83-4,7.28,7.28,0,0,0-.48-2.47,2.6,2.6,0,0,0-2.48-1.35,2.73,2.73,0,0,1,.25-.23,2.5,2.5,0,0,0-.84.31,1.81,1.81,0,0,1,.29-.48,2.27,2.27,0,0,0-.55.43,4.62,4.62,0,0,1,.47-1,3.45,3.45,0,0,0-.91,1,4.92,4.92,0,0,0-7.72.77l.52-.1a9.33,9.33,0,0,0-2.33,6.33l.34-.44a6.52,6.52,0,0,1-.71,5.15l.84-.07a5,5,0,0,0,1,2.49l0-.79a7.8,7.8,0,0,0,1.11,2.07,3.31,3.31,0,0,1-1.69.94l.47.13a2.14,2.14,0,0,1-1.31.28,5.29,5.29,0,0,0,2.74,1.1,11.48,11.48,0,0,0-1.48.87c-1.84.57-4.56,1.44-5.2,2.28a10,10,0,0,0-1.28,4A18.36,18.36,0,0,0,76.05,293.68Zm4.08-12.82v0l0,0Z" transform="translate(-31.03 -20.79)"/>
  </g>
  <polygon class="cls-21" points="224.71 230.73 221.51 229.98 216.1 232.45 220.74 234.91 224.71 230.73"/>
  <g>
    <path class="cls-22" d="M214.16,235.87c4.71,16.3-2.15,21.07-5.32,21.07-2.5,0-6.39-10.38-7.93-14.76a9.14,9.14,0,0,1-.45-4c.55-4.76,2.38-16.25,7.56-19.76a28.4,28.4,0,0,1,8-3.61l3.92,15.48Z" transform="translate(-31.03 -20.79)"/>
    <g>
      <path class="cls-3" d="M277.59,201.43a1.4,1.4,0,0,0-2.14.26c-6.95,10.32-32.58,19.77-40.92,13.46-6.56-5-4.19-11.87-3.23-13.85a.84.84,0,0,0-.24-1c-1.14-.91-3.85-2.42-8-.27-5.2,2.73-10.9,11.74-5.34,28.38a3.28,3.28,0,0,1-.59,3.1l-3.64,4.42L202.78,249l-16.22,19.71a65.81,65.81,0,0,0,26.59,23.78h2.33l8.74-12.31L252,246.64c10.66-.82,15.44-7,16.73-9.29a3.2,3.2,0,0,1,1.41-1.34c4.07-1.93,4.68-5,4.61-6.92a3.22,3.22,0,0,1,1.29-2.73c4.56-3.45,3.64-8.18,2.85-10.41a3.3,3.3,0,0,1,.15-2.54C282.08,207.2,279.46,203.25,277.59,201.43Z" transform="translate(-31.03 -20.79)"/>
      <path class="cls-23" d="M258.89,164.78h-1.82L231.69,201.2c-9.3,10.72,4.59,16.07,4.59,16.07,26.49,3.87,38.28-14.8,38.28-14.8l12.79-15.93A65.77,65.77,0,0,0,258.89,164.78Z" transform="translate(-31.03 -20.79)"/>
      <path class="cls-22" d="M213.32,235.2c4.72,16.3-1.82,22.25-5,22.25-2.5,0-6.4-10.38-7.93-14.76a9.14,9.14,0,0,1-.45-4c.55-4.75,2.38-16.25,7.56-19.76a26.49,26.49,0,0,1,7.67-3.52" transform="translate(-31.03 -20.79)"/>
      <path class="cls-22" d="M236.06,276.35s1.48,4.72-4.59,5.78-12.11-5.62-12.07-9.08,2.85-3.71,4.47-3.57" transform="translate(-31.03 -20.79)"/>
      <path class="cls-22" d="M244.51,268.14s2.12,7.82-5.54,8.35-17.83-6.61-17.25-12.69c.42-4.54,6-4.53,6-4.5" transform="translate(-31.03 -20.79)"/>
      <path class="cls-22" d="M252.89,259.57s3,7-5.94,8.37-18.82-5-19.88-10.49a5.69,5.69,0,0,1,7.58-6.61" transform="translate(-31.03 -20.79)"/>
      <path class="cls-22" d="M258.3,245.5s5.78,5.43-.65,11.95-23.22-3.1-23.71-8.5c-.53-5.86,4.06-6.39,7.32-6.22S251.57,246,254,248.29" transform="translate(-31.03 -20.79)"/>
    </g>
  </g>
</svg>
