<svg xmlns="http://www.w3.org/2000/svg" viewBox="0 0 345.46 313.35" xmlns:v="https://vecta.io/nano"><style><![CDATA[.k{stroke-miterlimit:10}.l{stroke:#fff}.m{opacity:.9}.n{fill:none}.o{stroke-width:.5}.p{stroke:#000}.q{fill:#fff}.r{stroke-linecap:round}.s{opacity:.76}.t{fill:#006837}.u{fill:#f7931e}.v{stroke-width:.75}]]></style><g opacity=".33"><path d="M164.04 74.14h80.37V307.9h-80.37z" fill="#93278f" opacity=".8"/><path d="M243.26 172.42h62.46v135.3h-62.46z" opacity=".8" fill="#9e005d"/><path d="M58.4 155.88h50.75v152.3H58.4z" opacity=".8" fill="gray"/></g><path d="M42.53 308.85h271.33" stroke="#999" stroke-width="9" class="k n r"/><path d="M171.6 93.43h58.32v3.2H171.6zm0 14.23h58.32v3.2H171.6zm0 17h58.32v3.2H171.6z" opacity=".52" class="k l n"/><path d="M170.92 173.8h58.32v3.2h-58.32zm0 14.23h58.32v3.2h-58.32zm0 17h58.32v3.2h-58.32z" opacity=".52" class="k l n"/><path d="M305.75 309.73a209.78 209.78 0 0 0 10.29-24.34c12.14-34.7 10.84-64.5 9.2-102.4-1.54-35.3-5.5-34.62-5.5-66.13 0-10.2.42-16.85-2.76-25.72-7.44-20.8-26.63-31.4-36.28-36.74-7.9-4.36-44.1-24.4-80.82-13.3-11.5 3.46-22.35 9.77-28.94 4.6-5.34-4.2-2.42-11.7-5.05-19.3C158.7 5.64 112.46-9.54 77.7 7.1c-23.24 11.1-43.88 37.6-38.58 56.5 3.94 14 19.6 14.8 23 30.3 2.58 12-5.28 18.2-14.7 38.58-11.82 25.58-14.35 48.06-17 71.64-1.96 17.4-3.57 31.62-.96 50.05a150 150 0 0 0 19.84 55.57z" fill="#ed1c24" opacity=".1"/><g fill="#fcee21"><path d="M124.9 158.33c1.9 1.8 6.38 1.78 9.05-1.05s2.53-7.4.62-9.2-5.62-1-8.3 1.87-3.3 6.6-1.38 8.4z"/><ellipse cx="131.58" cy="169.68" rx="6.89" ry="3.64" transform="matrix(.685945 -.727653 .727653 .685945 -84.68 131.91)" class="l"/></g><g class="k n o l"><path d="M130.62 146.95l-3.27 10.86"/><path d="M133.98 150.77L123.76 154"/><path d="M124.53 157.33l9.12-10.13"/></g><g class="t"><path d="M117.38 149.02c-.65.46-3-1.48-4.4-3.5s-2.44-4.76-1.8-5.22 2.92 1.4 4.33 3.36 2.5 4.9 1.85 5.36zm1.22-.86c.76.23 2.35-2.34 3.06-4.7s.8-5.3 0-5.52-2.33 2.26-3 4.56-.82 5.44-.06 5.67z"/><path d="M118.98 149.36c1.13-.28 1.23-4.68.37-8.17s-2.9-7.23-4-7-1.26 4.55-.46 8c.8 3.6 2.97 7.45 4.1 7.17z"/></g><path d="M124.27 173.3c-1.68.5-4.33-4.16-6.63-8.2a30.16 30.16 0 0 1-4-12.27 5.83 5.83 0 0 1 .87-4 5.65 5.65 0 0 1 3.2-1.85 5.32 5.32 0 0 1 2.4-.1c2.08.47 3.3 2.56 3.9 3.65 1 1.83 2.12 4.8 1.7 14.22-.23 5.48-.34 8.22-1.42 8.54z" class="u"/><path d="M115 155.66l4.63-1.03-2.55 1.2 6.68-1.7-8 2.77-.02-.74 1.24-.77-1.98.27zm10.15 1.64l-3.57.9 2.18-.05-5.22 1.13 6.5-.86-.25-.5-1.12-.1 1.47-.5zm-3.47-9.35l-3.57.9 2.2-.04-5.23 1.13 6.5-.86-.24-.52-1.12-.1 1.46-.5z" fill="#4d4d4d"/><g fill="#fcee21"><path d="M149.8 159.22c-2.9 2.73-9.66 2.7-13.7-1.6s-3.84-11.22-.94-13.94 8.5-1.46 12.55 2.83 4.98 9.97 2.1 12.7z"/><ellipse cx="146.06" cy="167.6" rx="5.52" ry="10.43" transform="matrix(.727653 -.685945 .685945 .727653 -77.72 128.69)" class="l"/></g><g class="k n o l"><path d="M141.14 142l4.95 16.43"/><path d="M136.05 147.78l15.47 4.87"/><path d="M150.35 157.7l-13.8-15.34"/></g><path d="M114.16 155.1c1.92 2 4.84 4.45 7.9 3.95 2.16-.34 5.88-3 5.88-5.75 0-3.9 11.5 5.38 14.74 4.55 4.45-1.13 4.13-1 7.88-8.35a.58.58 0 0 1 1.07.07l12.52 37.18a45.18 45.18 0 0 1-15.83 10.44c-3.5 1.34-20.62 8.27-34.17-1.44-2.9-2.07-5.26-3.8-6.46-5.5z" fill="#d1c6ba"/><g class="u"><circle cx="137.38" cy="162.79" r=".78"/><circle cx="151.74" cy="159.16" r=".78"/></g><path d="M137.32 162.8a20.73 20.73 0 0 0 4 4.63 12.71 12.71 0 0 0 4.14 2.56c1.42.5 3.66 1.3 5.3.23 1.25-.82 1.54-2.32 1.8-3.65a12.58 12.58 0 0 0-.9-7.37" class="k n p r"/><path d="M114.16 153.2l-6.48 36.75a28.21 28.21 0 0 0 7.91 6.74c1.1.63 8.64 4.92 12.24 3.38 7.46-3.2 3-34.84.6-47.6-1 2.64-3.8 6-6.35 6.34-3.33.44-6.74-1.86-7.9-5.62z" fill="#c69c6d"/><g class="s"><path d="M296.27 240.87c-1.33-2.16-1-7.36-2.8-11.86-6.32-15.7-37.8-19.44-39.53-15.35-1.17 2.73 12.16 5.9 22.36 21.52a68 68 0 0 1 8 17.6c-3.12-2.32-8-4.1-15.57-10.05-4.18-3.3-6.2-5.57-8.6-4.9-2.78.78-4.2 5-4.5 7.6-1.7 14.78 27.7 28.1 25.77 31.78-1.08 2.08-11.42-.14-19.56-3.7s-10.9-7.05-12.92-5.8c-3.1 1.93-.7 12.9 3.92 21 1.6 2.8 8.15 14.25 18.58 16.24z" class="m t"/><path d="M295.8 240.73c2.45-.7 5.7-4.78 10.06-6.87 15.27-7.32 41 11.15 39.54 15.35-1 2.8-13-3.84-31 .8a68.15 68.15 0 0 0-17.76 7.6c3.88.4 8.7 2.4 18.27 3.1 5.32.37 8.34.08 9.65 2.2 1.53 2.45-.28 6.54-1.8 8.63-8.72 12.06-39.4 2-40.47 6.07-.6 2.26 8.52 7.6 16.94 10.46s12.8 2.15 13.44 4.44c1 3.53-8.18 10-17 12.83-3.06 1-15.63 5-24.67-.56z" fill="#39b54a" class="m"/><path d="M217.58 216.1c-3.22-1.07-7.33-6.7-13.06-9.75-20-10.64-55.45 12.62-53.7 18.3 1.16 3.8 17.55-4.4 41.43 2.8a90.84 90.84 0 0 1 23.31 11.16c-5.2.32-11.74 2.73-24.6 3.1-7.13.2-11.15-.36-13 2.4-2.18 3.2 0 8.76 1.92 11.64 11 16.6 52.55 4.92 53.75 10.37.67 3.07-11.82 9.7-23.23 13s-17.23 2.17-18.2 5.2c-1.52 4.65 10.36 13.8 22 18.1 4 1.5 20.6 7.57 33 .63z" class="m t"/><path d="M216.95 216.3c1.9-2.82 1.7-9.8 4.4-15.7 9.33-20.64 51.6-23.88 53.7-18.3 1.4 3.7-16.6 7.22-31.1 27.5a90.75 90.75 0 0 0-11.64 23.06c4.3-2.92 11-5 21.37-12.56 5.77-4.2 8.6-7.1 11.77-6.06 3.67 1.2 5.34 6.95 5.6 10.4 1.46 19.86-38.6 36-36.23 41 1.34 2.84 15.28.45 26.36-3.86s15-8.8 17.6-7c4 2.76.22 17.27-6.4 27.8-2.3 3.64-11.7 18.58-25.75 20.66z" fill="#39b54a" class="m"/></g><path d="M49.2 240.3c1.33-2.16 1-7.36 2.8-11.86 6.32-15.7 37.8-19.44 39.53-15.35 1.17 2.73-12.16 5.92-22.36 21.52a68 68 0 0 0-8 17.6c3.12-2.32 8-4.1 15.57-10.05 4.18-3.3 6.2-5.57 8.6-4.9 2.78.8 4.2 5 4.5 7.6 1.7 14.78-27.7 28.1-25.77 31.78 1.08 2.08 11.42-.14 19.56-3.7s10.9-7.05 12.9-5.8c3.1 1.94.7 12.9-3.9 21-1.57 2.75-8.15 14.2-18.55 16.2z" fill="#8cc63f" class="m"/><path d="M49.66 240.1c-2.45-.7-5.7-4.77-10.06-6.87-15.27-7.32-41 11.16-39.54 15.35 1 2.8 13-3.84 31 .8a68.15 68.15 0 0 1 17.76 7.61c-3.88.4-8.7 2.4-18.27 3.1-5.32.38-8.34.08-9.65 2.2-1.53 2.45.28 6.54 1.8 8.63 8.72 12.07 39.4 2 40.47 6.07.6 2.27-8.52 7.6-16.94 10.46s-12.76 2.16-13.4 4.44c-1 3.52 8.18 10 17 12.82 3.06 1 15.63 5 24.67-.56z" fill="#80cea9" class="s"/><g class="s"><path d="M129.84 218.34c3.37-.43 8.47-5.18 14.68-7.08 21.65-6.64 52 22.93 49.24 28.2-1.86 3.5-16.38-7.67-41.2-5.15a91 91 0 0 0-25 6.53c5 1.3 11 4.9 23.55 7.73 7 1.56 11 1.77 12.33 4.82 1.53 3.55-1.68 8.6-4.1 11.07-13.93 14.22-52.53-5.17-54.74-.05-1.25 2.88 9.76 11.76 20.32 17.22s16.5 5.4 16.9 8.56c.6 4.86-12.8 11.58-25.1 13.58-4.25.68-21.67 3.5-32.53-5.66z" fill="#8cc63f" class="m"/><path d="M130.46 218.67c-1.33-3.12.18-9.93-1.32-16.24-5.24-22-46.13-33.26-49.25-28.2-2.08 3.37 14.9 10.24 25.3 32.92a91.1 91.1 0 0 1 7 24.87c-3.68-3.7-9.82-7-18.6-16.4-4.86-5.2-7.1-8.6-10.4-8.2-3.83.48-6.56 5.8-7.46 9.13-5.2 19.22 31.05 42.7 27.73 47.2-1.85 2.53-15.08-2.47-25.14-8.8s-13-11.5-15.93-10.24c-4.5 1.94-3.5 16.9 1 28.5 1.56 4 8 20.47 21.35 25.2z" fill="#80cea9" class="m"/></g><g class="q"><path d="M258.95 137.36l-4.44 18.07 10.7 8.1 10.72-16.23-17-9.95z"/><g class="k p"><path d="M232.9 215.3l-1.56-2.18-.7-1a.92.92 0 0 0-.9-.5c-.5 0-1 .07-1.48.13a19.54 19.54 0 0 0-3 .73 23.66 23.66 0 0 1-3.22.69c-.35.05-1 .2-1 .66a1 1 0 0 0 .85.9 5.78 5.78 0 0 0 1.38.15 4 4 0 0 0 1.23-.3l-3 2.4-1.5 1.2a14.91 14.91 0 0 0-1.44 1.19c-.28.28-.58.72-.3 1.1s.8.32 1.22.1c1.07-.6 2-1.44 3.06-2.13l1.4-.93c.47-.3.4-.13.07.13l-1.22.95a3.89 3.89 0 0 0-1 1 .65.65 0 0 0 .12.88 1 1 0 0 0 1 0 8.25 8.25 0 0 0 1.22-.71 5.46 5.46 0 0 1 1.26-.82c-.38.7-3 1.84-2.1 2.84.4.43 1 .05 1.42-.2a8 8 0 0 1 1.75-1.2c-.4.55-1.92 1.2-1.65 2.06.37 1.15 2.2-.44 2.63-.76a23.69 23.69 0 0 0 3.33-2.66 11 11 0 0 0 1.3-1.73l.5-.94c.16-.32.52-.84.37-1.05" class="o"/><path d="M304.46 291.28l2 1.75a3.12 3.12 0 0 1 .35 4.25l-7.94 9.8a2.55 2.55 0 0 1-2 1h-6.55a2.65 2.65 0 0 1-2.37-1.62h0a3.07 3.07 0 0 1 1.1-3.87l3.25-2a3 3 0 0 0 1.38-2.57v-.65a3 3 0 0 1 1.4-2.58l6.46-3.8a2.46 2.46 0 0 1 2.92.29zm-64.34 6.7h0a2.76 2.76 0 0 1-2.09 2.67l-6 1.5a2.78 2.78 0 0 0-1 .47l-1.34 1a2.75 2.75 0 0 0-.29 4.14l.2.2a2.72 2.72 0 0 0 1.94.81h15.7a2.76 2.76 0 0 0 2.31-1.26l1.8-2.8a2.75 2.75 0 0 0 .36-2.11l-1.7-7.36a2.76 2.76 0 0 0-2.89-2.12l-2.7.2a4.68 4.68 0 0 0-4.3 4.66z"/></g></g><path d="M248.2 227.13l-10.38 57.74a9.57 9.57 0 0 0 9.42 11.27h5.55a4 4 0 0 0 3.9-3.27l6.28-35.32a4 4 0 0 1 7.85.33h0a4 4 0 0 0 .49 1.59l18.5 32.77a4 4 0 0 0 4.18 1.94l2.2-.4a10.54 10.54 0 0 0 7.25-15.46L289.8 253.8a4 4 0 0 1-.49-1.71l-1.57-28a4 4 0 0 0-4.39-3.72l-31.67 3.5a4 4 0 0 0-3.46 3.26z" fill="#c18536"/><g class="k p q"><path d="M117.6 185l6.66 5.44a1.57 1.57 0 0 0 .87.36l18.1 1.7a1.65 1.65 0 0 0 .88-.16l1.88-.94a1.59 1.59 0 0 1 1.21-.1l2.06.63a1 1 0 0 1 .23 1.72h0a1 1 0 0 0-.11 1.53l.48.4a1.62 1.62 0 0 0 1.51.31l3.36-1a1.63 1.63 0 0 1 2 2.08h0a1.72 1.72 0 0 1-.26.48l-1.95 2.5a1.72 1.72 0 0 1-1 .61l-6 .9a1.63 1.63 0 0 1-1-.15l-5-2.5a1.47 1.47 0 0 0-.62-.17l-21.64-1.37a1.63 1.63 0 0 1-1.14-.58l-6.22-7.35a1.62 1.62 0 0 1 .42-2.45l3.47-2a1.61 1.61 0 0 1 1.8.09z" class="v"/><path d="M88.8 155.75l-1.44 9.47 8.27 2.04 1.44-10.43-8.27-1.08z"/></g><path d="M72.12 227.98l-3.14 15.08a6.67 6.67 0 0 0 .2 3.46l1.94 5.82a5.91 5.91 0 0 1 .27 1.16l1.43 10a6.61 6.61 0 0 1-.6 3.84l-10.7 22.1a6.64 6.64 0 0 0 2.85 8.76l1.6.86a6.66 6.66 0 0 0 9.18-3.11l13.52-23.88c.25-.57 2.78-3.35 2.88-4l.72-14.95a6.65 6.65 0 0 1 10.19-4.58l11.8 7.57a6.61 6.61 0 0 1 2.76 3.6l11.4 36.35a6.65 6.65 0 0 0 9.13 4.05h0a6.64 6.64 0 0 0 3.71-7.43l-9.3-43.5a6.69 6.69 0 0 0-1.49-3l-20.9-24a6.63 6.63 0 0 0-5.7-2.24l-25.92 2.73a6.64 6.64 0 0 0-5.84 5.3z" fill="#0071bc"/><g class="k p"><path d="M93.07 152.63c-6.58.123-12.014-5.1-12.14-11.7 0-6.45 6.5-11.7 13.2-11.7" class="q"/><path d="M59.34 293.27l-2 1.74a3.13 3.13 0 0 0-.34 4.26l7.94 9.8a2.52 2.52 0 0 0 2 1h6.52a2.64 2.64 0 0 0 2.37-1.61h0a3.1 3.1 0 0 0-1.1-3.88l-3.27-1.98a3 3 0 0 1-1.38-2.57v-.65a3 3 0 0 0-1.4-2.58l-6.46-3.8a2.45 2.45 0 0 0-2.88.27z" fill="#1a1a1a"/><path d="M132.92 301.75l.5 2c.58 2.3 2.75 3.52 4.65 2.58l10.7-5.26c2.1-1 2.8-4.1 1.4-6.22h0c-.76-1.15-3.8-1.4-5-1.22l-5.18.8a3 3 0 0 0-.9.29l-4.24 2.15a4.29 4.29 0 0 0-1.94 4.88z"/><g class="q"><path d="M93.58 129.25c4.8-.12 6.4 3 8 5.07a7 7 0 0 1 1.37 4.06 18.69 18.69 0 0 1-.7 3.65c-.64 2.7-.85 3-.7 3.65.33 1.5 1.6 1.7 1.6 2.83a3.22 3.22 0 0 1-1.51 2.24l-1.36 2.33h-9.1l-7.5-5.5z"/><g class="r"><path d="M93.97 151.28a5.81 5.81 0 0 0 3.6 1.8c1.34.1 2.4-.44 2.7 0s-.73 1.12-.9 2.7c-.1 1 .26 1.38 0 1.8s-.82.9-4.5 0c-3.94-1-6.12-1.5-8.1-3.6a11.05 11.05 0 0 1-2.7-5.39" class="v"/><path d="M96.82 137.1a4.47 4.47 0 0 1 2-.29 4.64 4.64 0 0 1 1.88.57" class="o"/></g></g></g><ellipse cx="99.1" cy="141.78" rx="1.2" ry="2.1"/><path d="M99.82 132.87c-1.88.3-3.84.6-5.4 2.16a8 8 0 0 0-2 4.07 8.45 8.45 0 0 0-.12 1.68 2.2 2.2 0 0 0-1.91-1.32c-1.17.14-1.86 2.08-1.44 3.12h0a4.7 4.7 0 0 0 .72 1.2c.46.43 1.16 0 1.32.24.34.5-2.5 3-4.68 4.92-2.55 2.2-2.54 2.53-3.12 2.63-2.83.54-7-3.68-7.67-8.27-.56-3.58 1.1-6.44 2.16-8.27a16.53 16.53 0 0 1 9.59-7.92c5.88-1.7 10.65.7 12.83 1.8s4.47 2.77 4.2 3.48c-.25.48-1.75.03-4.48.48z"/><path d="M71.4 224.38l3.96 2.54 31.65-.22 5.4-2.2-41-.12z" fill="#333"/><path d="M113.13 196.16l.45 23.58a6 6 0 0 1-6 6.19H75.23a6 6 0 0 1-6-6.43L75 183.93c.1-1.45 2.2-10.12 3.24-11.15l2.5-5.76c4.13-4.12 7.7-5 13.36-3.65l11.27 2.7a6.06 6.06 0 0 1 3.38 2.21l10.23 13.42a6 6 0 0 1-.12 7.43l-7.23 8.9a2.12 2.12 0 0 1-3.14.16l-11.84-11.86a6 6 0 0 1-1.34-2l-4.93-12.36" fill="#29abe2"/><path d="M80.7 273.62l3.3-7.3 1.75-11.4-5.04 18.7zm42.5-31.05l5.04 4.67 1.44 9.36-6.48-14.03zm-32.82-70.6l4.5 12.6 18 12.6-2.6 1.53L93 186.47 90.4 172z" fill="#333"/><g class="k p q"><path d="M269.98 157.13l-1.42 13.3-8.27 2.04-1.44-10.43 11.13-4.9zm-8.2-22.67c6.7 0 13.2 5.23 13.2 11.7a11.92 11.92 0 0 1-12.14 11.72"/><path d="M262.33 134.46c-4.8-.12-6.4 3-8 5.07a7 7 0 0 0-1.37 4.05 19.58 19.58 0 0 0 .7 3.66c.65 2.7.85 3 .7 3.65-.32 1.5-1.6 1.7-1.6 2.83a3.21 3.21 0 0 0 1.5 2.24"/><g class="r"><path d="M261.94 156.5a5.86 5.86 0 0 1-3.6 1.8c-1.33.1-2.4-.44-2.7 0s.74 1.1.9 2.7c.1 1-.25 1.38 0 1.8s.82.9 4.5 0c3.94-1 6.13-1.5 8.1-3.6a11 11 0 0 0 2.7-5.4" class="v"/><path d="M259.1 142.3a4.6 4.6 0 0 0-2-.28 4.75 4.75 0 0 0-1.88.57" class="o"/></g></g><ellipse cx="256.81" cy="146.99" rx="1.2" ry="2.1"/><path d="M256.1 138.05c1.9.3 3.85.6 5.4 2.16a7.9 7.9 0 0 1 2 4.08 8.41 8.41 0 0 1 .12 1.68 2.22 2.22 0 0 1 1.92-1.32c1.16.13 1.85 2.07 1.44 3.12h0a5.64 5.64 0 0 1-.72 1.2c-.47.43-1.16 0-1.32.24-.34.5 5.18 12.6 2.3 19.6-1.28 3.12 12.37 2.05 12.95 2.16 2.83.53-.5-17.9.2-22.5.56-3.58-1.1-6.44-2.16-8.28a16.6 16.6 0 0 0-9.59-7.91c-5.88-1.72-10.65.7-12.84 1.8s-3.6 7.4-3.32 8.1c.24.54.87-4.58 3.6-4.15z" fill="#1a1a1a"/><path d="M289.56 223.1l-3.7 2.9-31.55 2.6-5.57-1.7 40.83-3.78z" fill="#333"/><path d="M230.93 203.57l-2.68 8.05 4.7 4.7 9.38-4.03 8.05-16.75-4.22 30.58 45.77-1.76-5.36-48.26-12.74-8.7-17.42 4.02-4.7 6.03" class="u"/><path d="M265.46 203.18l9 2.16 12.1-29.26-9.3 30.15c-.34 1.07-3 1.52-4 1z"/><g class="k p q"><path d="M259.9 153.7l4.5-9.7m-2.7 14.57h6.84"/><path d="M252.7 154.43c2.38.28 4.28.76 5.43-1 .7-1.1.4-2.22.94-2.4 1.15-.4 5.38 3.8 4.36 8a6.22 6.22 0 0 1-7.31 4.42z"/><path d="M251.16 195.87c.23-.47.78-.45 1.23-.4l1.75.23-2.84-.82c-.6-.17-1.94-.48-1.33-1.4.4-.6 1.3-.15 1.82 0l2.85.78-3.72-1.84-.5-.26c-.54-.26-.18-1.16.27-1.3a1.31 1.31 0 0 1 .86.21l1.12.58 2.5 1.25-2.56-2c-.5-.36-1.3-1.06-.47-1.6.35-.24.78 0 1.1.18l1.42 1 3 2-1-1.23c-.34-.42-.6-.65-.53-1.06a.81.81 0 0 1 .87-.64c.42.1.8.65 1.07 1 1.27 1.37 3.3 3 2.74 5.1a3.37 3.37 0 0 1-4.7 2.28 5 5 0 0 0-1.26-.59c-.56-.12-1.15-.13-1.7-.22s-2.48-.17-2-1.24" class="o"/></g><path d="M273.82 167.38l-4.92 25.9-8.64-1.44-2.88 9.36 18 4.3 11.2-29.42-12.74-8.7z" fill="#c18536"/></svg>