<svg id="Layer_1" data-name="Layer 1" xmlns="http://www.w3.org/2000/svg" xmlns:xlink="http://www.w3.org/1999/xlink" viewBox="0 0 342.07 303.57">
  <defs>
    <style>
      .cls-1 {
        fill: #00a99d;
        opacity: 0.21;
      }

      .cls-2 {
        opacity: 0.61;
        fill: url(#Orchid);
      }

      .cls-3 {
        fill: #534741;
      }

      .cls-4 {
        fill: #fff;
      }

      .cls-5 {
        fill: url(#Summer);
      }

      .cls-6 {
        fill: #ed6b43;
      }

      .cls-7 {
        fill: #e89746;
      }

      .cls-8 {
        opacity: 0.76;
      }

      .cls-9 {
        fill: #006837;
      }

      .cls-10, .cls-9 {
        opacity: 0.91;
      }

      .cls-10 {
        fill: #39b54a;
      }

      .cls-11 {
        fill: #333;
      }

      .cls-12 {
        fill: #2e3192;
      }

      .cls-13 {
        fill: #29abe2;
      }

      .cls-14 {
        fill: #da4453;
      }

      .cls-15 {
        fill: #c1272d;
      }

      .cls-16, .cls-17 {
        fill: #fcee21;
      }

      .cls-17, .cls-18 {
        stroke: #fff;
        stroke-miterlimit: 10;
      }

      .cls-18 {
        fill: none;
        stroke-width: 0.5px;
      }
    </style>
    <linearGradient id="Orchid" x1="168.57" y1="77.07" x2="260.86" y2="77.07" gradientUnits="userSpaceOnUse">
      <stop offset="0" stop-color="#ff7bac"/>
      <stop offset="0.22" stop-color="#ff7bac" stop-opacity="0.76"/>
      <stop offset="0.6" stop-color="#ff7bac" stop-opacity="0.36"/>
      <stop offset="0.87" stop-color="#ff7bac" stop-opacity="0.1"/>
      <stop offset="1" stop-color="#ff7bac" stop-opacity="0"/>
    </linearGradient>
    <radialGradient id="Summer" cx="149.67" cy="196.76" r="76.7" gradientUnits="userSpaceOnUse">
      <stop offset="0" stop-color="#fff"/>
      <stop offset="0.09" stop-color="#ffedd8"/>
      <stop offset="0.21" stop-color="#ffd5a7"/>
      <stop offset="0.33" stop-color="#ffc17d"/>
      <stop offset="0.46" stop-color="#ffb05b"/>
      <stop offset="0.59" stop-color="#ffa340"/>
      <stop offset="0.72" stop-color="#ff9a2d"/>
      <stop offset="0.86" stop-color="#ff9522"/>
      <stop offset="1" stop-color="#ff931e"/>
    </radialGradient>
  </defs>
  <title>onboard2</title>
  <g>
    <path class="cls-1" d="M53.79,295.42C31.85,287.6,22.25,263.28,20.2,258.1,5.55,221,25,180.82,31.4,167.58,48.11,133,69.11,121.12,64.06,100.86c-3.7-14.81-16.84-16.1-17.27-26.59C45.93,52.93,99.11,27.9,147.57,22c21.23-2.58,95.84-11.64,150.24,43.39,46.28,46.82,45.45,107.15,45.26,120.85-.29,20.53-1.18,84.86-39.2,105.91C256.76,318.24,209,246.64,134,269.76,99.19,280.52,80.55,305,53.79,295.42Z" transform="translate(-1.93 -19.85)"/>
    <g>
      <path class="cls-2" d="M168.57,82.38V60.69A14.42,14.42,0,0,1,183,46.27h63.47a14.42,14.42,0,0,1,14.41,14.42V82.38a14.41,14.41,0,0,1-14.41,14.41c-48.34-9.3-64.46-4-69.79,3.24-1.13,1.54-5.75,8.54-7.44,7.77-1.07-.48-.34-3.77,0-8.42a66.78,66.78,0,0,0-.65-15.22Z" transform="translate(-1.93 -19.85)"/>
      <ellipse class="cls-3" cx="188.57" cy="273.71" rx="153.5" ry="29.86"/>
      <g>
        <polygon class="cls-4" points="211.9 157.98 211.43 157.48 211.43 157.07 211.04 157.07 147.79 89.45 84.54 157.07 83.59 157.07 84.53 255.98 211.43 264.38 211.43 157.98 211.9 157.98"/>
        <path class="cls-5" d="M149.72,115.16l59.64,63.75V280L90.42,272.08l-.88-92.6,60.18-64.32m0-5.86L86.47,176.92h-1l.93,98.91,126.91,8.4V177.83h.47l-.47-.5v-.41H213L149.72,109.3Z" transform="translate(-1.93 -19.85)"/>
      </g>
      <polygon class="cls-6" points="147.79 89.45 285.62 104.81 331.34 158 211.43 157.07 147.79 89.45"/>
      <polygon class="cls-7" points="211.43 264.38 211.43 157.07 331.34 158 329.94 245.25 211.43 264.38"/>
      <g class="cls-8">
        <path class="cls-9" d="M63,195.62c-3-1-6.7-6.13-11.93-8.91C32.79,177,.39,198.23,2,203.43c1.06,3.47,16-4,37.86,2.55a83.5,83.5,0,0,1,21.3,10.2c-4.75.29-10.73,2.5-22.48,2.84-6.51.19-10.18-.32-11.89,2.18-2,2.93,0,8,1.75,10.64,10,15.18,48,4.5,49.11,9.48.62,2.8-10.79,8.85-21.22,11.92s-15.74,2-16.64,4.73c-1.39,4.26,9.47,12.62,20.15,16.54,3.69,1.36,18.83,6.92,30.16.58Z" transform="translate(-1.93 -19.85)"/>
        <path class="cls-10" d="M62.42,195.81c1.73-2.57,1.56-8.94,4-14.34,8.53-18.86,47.16-21.82,49.08-16.73,1.28,3.39-15.16,6.6-28.42,25.14A82.92,82.92,0,0,0,76.45,211c3.93-2.67,10-4.57,19.52-11.47,5.28-3.83,7.87-6.48,10.76-5.54,3.36,1.1,4.88,6.35,5.11,9.49,1.33,18.15-35.28,32.89-33.1,37.51,1.22,2.59,14,.41,24.08-3.53s13.67-8,16.07-6.42c3.7,2.52.2,15.78-5.85,25.41-2.1,3.33-10.69,17-23.53,18.88Z" transform="translate(-1.93 -19.85)"/>
      </g>
      <path class="cls-11" d="M177.43,278.63l.47-71.85c-5.24-14.95-20.26-23.45-34.06-20.53-11.09,2.34-20,11.77-22.4,23.79l.47,64.86Z" transform="translate(-1.93 -19.85)"/>
      <g>
        <path class="cls-12" d="M142.51,100.8A2.29,2.29,0,1,0,144,97.94,2.3,2.3,0,0,0,142.51,100.8Zm.19-7.24a6.82,6.82,0,0,0-4.41,4.12l1.42.55a5.34,5.34,0,0,1,8.07-2.46l.88-1.25A6.82,6.82,0,0,0,142.7,93.56ZM140,84.79a16,16,0,0,0-10.31,9.61l1.46.56A14.44,14.44,0,0,1,153,88.32L154,87A16,16,0,0,0,140,84.79Z" transform="translate(-1.93 -19.85)"/>
        <path class="cls-12" d="M141.37,89.17A11.41,11.41,0,0,0,134,96l1.43.55a9.89,9.89,0,0,1,15-4.56l.88-1.25A11.43,11.43,0,0,0,141.37,89.17Z" transform="translate(-1.93 -19.85)"/>
      </g>
      <g>
        <path class="cls-12" d="M198.85,47.69l-1.62-1a1,1,0,0,1,1-1.62l1.62,1a1,1,0,0,1-1,1.62ZM218.25,60l-1.62-1a1,1,0,0,1-.29-1.33,1,1,0,0,1,1.32-.29l1.62,1a.94.94,0,0,1,.29,1.32A1,1,0,0,1,218.25,60Z" transform="translate(-1.93 -19.85)"/>
        <path class="cls-4" d="M214.36,51.88l-8.09-5.15A1,1,0,0,0,205,47l-3.09,4.85a1,1,0,0,0,.3,1.32l8.08,5.14a.94.94,0,0,0,1.32-.29l3.09-4.85a1,1,0,0,0-.29-1.32Zm-3.9,4.33L204,52.1l2.06-3.24L212.52,53Z" transform="translate(-1.93 -19.85)"/>
        <path class="cls-13" d="M211,80.39a1,1,0,0,1-1.32.3h0l-27.48-17.5a1,1,0,0,1-.3-1.32l11.32-17.78a1,1,0,0,1,1.32-.3L222,61.28a1,1,0,0,1,.29,1.33L211,80.39Z" transform="translate(-1.93 -19.85)"/>
        <path class="cls-14" d="M201.64,66.5a1.92,1.92,0,1,1-3.23-2.06L202.52,58A1.92,1.92,0,1,1,205.76,60Z" transform="translate(-1.93 -19.85)"/>
        <path class="cls-15" d="M206.93,65.33a1.91,1.91,0,0,1-2.64.58l-6.47-4.11a1.92,1.92,0,1,1,2.06-3.24l6.46,4.12A1.91,1.91,0,0,1,206.93,65.33Z" transform="translate(-1.93 -19.85)"/>
      </g>
      <g>
        <path class="cls-16" d="M244.66,89.62c-4.67,2-12.71-1.1-15.61-8s.44-15.07,5.11-17,10.79,2.06,13.69,9S249.32,87.67,244.66,89.62Z" transform="translate(-1.93 -19.85)"/>
        <g>
          <ellipse class="cls-17" cx="241.1" cy="76.39" rx="7.02" ry="13.27" transform="translate(-12.71 79.31) rotate(-22.75)"/>
          <line class="cls-18" x1="240.12" y1="45.39" x2="238.66" y2="67.18"/>
          <line class="cls-18" x1="231.47" y1="50.01" x2="247.72" y2="62.72"/>
          <line class="cls-18" x1="244.07" y1="68.22" x2="234.48" y2="43.79"/>
        </g>
      </g>
    </g>
    <rect class="cls-4" x="57" y="268.58" width="81.18" height="3.27"/>
    <rect class="cls-4" x="188.8" y="282.58" width="81.18" height="3.27"/>
  </g>
</svg>
