<svg xmlns="http://www.w3.org/2000/svg" viewBox="0 0 345.46 313.35">
  <defs>
    <style>
      .cls-1 {
        fill: #333;
      }

      .cls-2 {
        opacity: 0.33;
      }

      .cls-3 {
        fill: #93278f;
      }

      .cls-3, .cls-4, .cls-5 {
        opacity: 0.79;
      }

      .cls-4 {
        fill: #9e005d;
      }

      .cls-5 {
        fill: gray;
      }

      .cls-12, .cls-17, .cls-6, .cls-8 {
        fill: none;
      }

      .cls-6 {
        stroke: #999;
        stroke-width: 9px;
      }

      .cls-17, .cls-33, .cls-34, .cls-6, .cls-8 {
        stroke-linecap: round;
      }

      .cls-11, .cls-12, .cls-17, .cls-26, .cls-27, .cls-29, .cls-31, .cls-32, .cls-33, .cls-34, .cls-6, .cls-8 {
        stroke-miterlimit: 10;
      }

      .cls-7 {
        opacity: 0.52;
      }

      .cls-11, .cls-12, .cls-8 {
        stroke: #fff;
      }

      .cls-9 {
        fill: #ed1c24;
        opacity: 0.1;
      }

      .cls-10, .cls-11 {
        fill: #fcee21;
      }

      .cls-12, .cls-26, .cls-34 {
        stroke-width: 0.5px;
      }

      .cls-13, .cls-20 {
        fill: #006837;
      }

      .cls-14 {
        fill: #f7931e;
      }

      .cls-15 {
        fill: #4d4d4d;
      }

      .cls-16 {
        fill: #d1c6ba;
      }

      .cls-17, .cls-26, .cls-27, .cls-29, .cls-31, .cls-32, .cls-33, .cls-34 {
        stroke: #000;
      }

      .cls-18 {
        fill: #c69c6d;
      }

      .cls-19, .cls-23 {
        opacity: 0.76;
      }

      .cls-20, .cls-21, .cls-22, .cls-24 {
        opacity: 0.91;
      }

      .cls-21 {
        fill: #39b54a;
      }

      .cls-22 {
        fill: #8cc63f;
      }

      .cls-23, .cls-24 {
        fill: #80cea9;
      }

      .cls-25, .cls-26, .cls-27, .cls-29, .cls-33, .cls-34 {
        fill: #fff;
      }

      .cls-28 {
        fill: #c18536;
      }

      .cls-29, .cls-33 {
        stroke-width: 0.75px;
      }

      .cls-30 {
        fill: #0071bc;
      }

      .cls-31, .cls-36 {
        fill: #1a1a1a;
      }

      .cls-35 {
        fill: #29abe2;
      }
    </style>
  </defs>
  <title>onboard1</title>
  <g id="Layer_1" data-name="Layer 1">
    <g>
      <path class="cls-1" d="M-137.23,95.66" transform="translate(-2.54 -17.13)"/>
      <g class="cls-2">
        <rect class="cls-3" x="164.04" y="74.14" width="80.37" height="233.75"/>
        <rect class="cls-4" x="243.26" y="172.42" width="62.46" height="135.31"/>
        <rect class="cls-5" x="58.41" y="155.88" width="50.75" height="152.3"/>
      </g>
      <line class="cls-6" x1="42.53" y1="308.85" x2="313.86" y2="308.85"/>
      <g class="cls-7">
        <rect class="cls-8" x="171.61" y="93.43" width="58.32" height="3.21"/>
        <rect class="cls-8" x="171.61" y="107.66" width="58.32" height="3.21"/>
        <rect class="cls-8" x="171.61" y="124.66" width="58.32" height="3.21"/>
      </g>
      <g class="cls-7">
        <rect class="cls-8" x="170.92" y="173.8" width="58.32" height="3.21"/>
        <rect class="cls-8" x="170.92" y="188.03" width="58.32" height="3.21"/>
        <rect class="cls-8" x="170.92" y="205.02" width="58.32" height="3.21"/>
      </g>
      <path class="cls-9" d="M308.29,326.86a209.78,209.78,0,0,0,10.29-24.34c12.14-34.7,10.84-64.51,9.19-102.41-1.54-35.29-5.51-34.62-5.51-66.13,0-10.2.42-16.85-2.76-25.72-7.44-20.79-26.63-31.4-36.28-36.74-7.9-4.36-44.1-24.39-80.82-13.31-11.49,3.46-22.35,9.77-28.94,4.59-5.34-4.2-2.42-11.69-5.05-19.29C161.25,22.77,115,7.59,80.24,24.22,57,35.33,36.36,61.83,41.66,80.71c3.94,14,19.61,14.79,23,30.31,2.58,12-5.28,18.2-14.7,38.58-11.82,25.58-14.35,48.06-17,71.64C31,238.63,29.39,252.86,32,271.29a150,150,0,0,0,19.84,55.57Z" transform="translate(-2.54 -17.13)"/>
      <g>
        <path class="cls-10" d="M127.44,175.46c1.91,1.8,6.38,1.78,9.05-1.05s2.53-7.41.62-9.21-5.62-1-8.29,1.87S125.53,173.66,127.44,175.46Z" transform="translate(-2.54 -17.13)"/>
        <g>
          <ellipse class="cls-11" cx="131.58" cy="169.68" rx="6.89" ry="3.64" transform="translate(-84.68 131.91) rotate(-46.69)"/>
          <line class="cls-12" x1="130.62" y1="146.95" x2="127.35" y2="157.81"/>
          <line class="cls-12" x1="133.98" y1="150.77" x2="123.76" y2="153.99"/>
          <line class="cls-12" x1="124.53" y1="157.33" x2="133.65" y2="147.2"/>
        </g>
      </g>
      <g>
        <g>
          <path class="cls-13" d="M119.92,166.15c-.65.46-3-1.48-4.39-3.5s-2.44-4.76-1.79-5.22,2.92,1.4,4.33,3.36S120.57,165.7,119.92,166.15Z" transform="translate(-2.54 -17.13)"/>
          <path class="cls-13" d="M121.15,165.29c.76.23,2.35-2.34,3.06-4.71s.8-5.29,0-5.52-2.33,2.26-3,4.56S120.39,165.06,121.15,165.29Z" transform="translate(-2.54 -17.13)"/>
          <path class="cls-13" d="M121.52,166.49c1.13-.28,1.23-4.68.37-8.17s-2.9-7.23-4-7-1.26,4.55-.46,8C118.24,162.91,120.4,166.77,121.52,166.49Z" transform="translate(-2.54 -17.13)"/>
        </g>
        <path class="cls-14" d="M126.81,190.42c-1.68.5-4.33-4.16-6.63-8.19a30.16,30.16,0,0,1-4-12.27,5.83,5.83,0,0,1,.87-4,5.65,5.65,0,0,1,3.2-1.85,5.32,5.32,0,0,1,2.4-.1c2.08.47,3.29,2.56,3.89,3.65,1,1.83,2.12,4.79,1.69,14.22C128,187.36,127.89,190.1,126.81,190.42Z" transform="translate(-2.54 -17.13)"/>
        <polygon class="cls-15" points="115 155.66 119.63 154.63 117.08 155.84 123.76 154.13 115.76 156.9 115.74 156.16 116.98 155.39 115 155.66"/>
        <polygon class="cls-15" points="125.15 157.3 121.58 158.2 123.76 158.15 118.54 159.28 125.05 158.42 124.8 157.91 123.68 157.81 125.15 157.3"/>
        <polygon class="cls-15" points="121.68 147.95 118.11 148.84 120.3 148.8 115.07 149.93 121.58 149.07 121.34 148.55 120.22 148.45 121.68 147.95"/>
      </g>
      <g>
        <path class="cls-10" d="M152.34,176.35c-2.9,2.73-9.66,2.7-13.7-1.59s-3.84-11.22-.94-13.94,8.51-1.46,12.55,2.83S155.23,173.62,152.34,176.35Z" transform="translate(-2.54 -17.13)"/>
        <g>
          <ellipse class="cls-11" cx="146.06" cy="167.6" rx="5.52" ry="10.43" transform="translate(-77.72 128.69) rotate(-43.31)"/>
          <line class="cls-12" x1="141.14" y1="142" x2="146.09" y2="158.43"/>
          <line class="cls-12" x1="136.05" y1="147.78" x2="151.52" y2="152.65"/>
          <line class="cls-12" x1="150.35" y1="157.71" x2="136.55" y2="142.37"/>
        </g>
      </g>
      <g>
        <path class="cls-16" d="M116.7,172.24c1.92,2,4.84,4.45,7.91,3.95,2.16-.34,5.88-3,5.88-5.75,0-3.9,11.51,5.38,14.74,4.55,4.45-1.13,4.13-1,7.88-8.35a.58.58,0,0,1,1.07.07c3.7,11.26,8.94,26.22,12.52,37.18a45.18,45.18,0,0,1-15.83,10.44c-3.51,1.34-20.62,8.27-34.17-1.44-2.89-2.07-5.26-3.81-6.46-5.51Z" transform="translate(-2.54 -17.13)"/>
        <g>
          <circle class="cls-14" cx="137.38" cy="162.79" r="0.78"/>
          <circle class="cls-14" cx="151.74" cy="159.16" r="0.78"/>
          <path class="cls-17" d="M139.86,179.94a20.73,20.73,0,0,0,4,4.63,12.71,12.71,0,0,0,4.14,2.56c1.42.51,3.66,1.31,5.3.23,1.25-.82,1.54-2.32,1.8-3.65a12.58,12.58,0,0,0-.9-7.37" transform="translate(-2.54 -17.13)"/>
        </g>
        <path class="cls-18" d="M116.7,170.32l-6.48,36.75a28.21,28.21,0,0,0,7.91,6.74c1.1.63,8.64,4.92,12.24,3.38,7.46-3.19,3-34.84.59-47.59-1,2.64-3.81,6-6.35,6.34C121.28,176.38,117.87,174.08,116.7,170.32Z" transform="translate(-2.54 -17.13)"/>
      </g>
      <g class="cls-19">
        <path class="cls-20" d="M298.81,258c-1.33-2.16-1-7.36-2.79-11.86-6.32-15.7-37.79-19.44-39.53-15.35-1.17,2.73,12.16,5.91,22.36,21.52a68,68,0,0,1,8,17.6c-3.12-2.32-8-4.09-15.57-10.05-4.18-3.31-6.21-5.57-8.6-4.9-2.78.78-4.2,5-4.5,7.59-1.71,14.78,27.71,28.09,25.77,31.78-1.08,2.08-11.42-.14-19.56-3.71s-10.9-7.05-12.92-5.79c-3.1,1.93-.7,12.89,3.92,21,1.6,2.8,8.15,14.25,18.58,16.24Z" transform="translate(-2.54 -17.13)"/>
        <path class="cls-21" d="M298.34,257.86c2.45-.7,5.69-4.78,10.06-6.87,15.27-7.32,41,11.15,39.54,15.35-1,2.8-13-3.84-31,.79a68.15,68.15,0,0,0-17.76,7.6c3.88.4,8.69,2.41,18.27,3.1,5.32.37,8.34.08,9.65,2.19,1.53,2.45-.28,6.54-1.79,8.63-8.72,12.06-39.4,2-40.47,6.07-.6,2.26,8.52,7.6,16.94,10.46s12.8,2.15,13.44,4.44c1,3.53-8.18,10-17,12.83-3.06,1-15.63,5-24.67-.56Z" transform="translate(-2.54 -17.13)"/>
      </g>
      <g class="cls-19">
        <path class="cls-20" d="M220.12,233.22c-3.22-1.07-7.33-6.7-13.06-9.75-20-10.64-55.45,12.62-53.71,18.31,1.16,3.79,17.55-4.41,41.43,2.79a90.84,90.84,0,0,1,23.31,11.16c-5.19.32-11.74,2.73-24.59,3.11-7.13.21-11.15-.36-13,2.39-2.18,3.19,0,8.76,1.92,11.64,11,16.61,52.55,4.92,53.75,10.37.67,3.07-11.82,9.69-23.23,13s-17.23,2.17-18.21,5.19c-1.52,4.65,10.36,13.81,22,18.1,4,1.49,20.61,7.57,33,.63Z" transform="translate(-2.54 -17.13)"/>
        <path class="cls-21" d="M219.49,233.44c1.9-2.82,1.71-9.79,4.39-15.7,9.33-20.64,51.61-23.88,53.71-18.31,1.4,3.71-16.59,7.22-31.1,27.51A90.75,90.75,0,0,0,234.85,250c4.31-2.92,11-5,21.37-12.56,5.77-4.19,8.61-7.09,11.77-6.06,3.67,1.2,5.34,6.95,5.59,10.39,1.46,19.86-38.6,36-36.23,41,1.34,2.84,15.28.45,26.36-3.86s15-8.81,17.59-7c4,2.76.22,17.27-6.41,27.81-2.29,3.64-11.69,18.58-25.75,20.66Z" transform="translate(-2.54 -17.13)"/>
      </g>
      <path class="cls-22" d="M51.73,257.42c1.33-2.16,1-7.36,2.79-11.86,6.32-15.7,37.79-19.44,39.53-15.35,1.17,2.73-12.16,5.92-22.36,21.52a68,68,0,0,0-8,17.6c3.12-2.32,8-4.09,15.57-10.05,4.18-3.31,6.21-5.57,8.6-4.9,2.78.79,4.2,5,4.5,7.59,1.71,14.78-27.71,28.09-25.77,31.78,1.08,2.08,11.42-.14,19.56-3.7s10.9-7.05,12.91-5.8c3.11,1.94.71,12.89-3.91,21C93.58,308,87,319.46,76.6,321.45Z" transform="translate(-2.54 -17.13)"/>
      <path class="cls-23" d="M52.2,257.24c-2.45-.7-5.69-4.77-10.06-6.87-15.27-7.32-41,11.16-39.54,15.35,1,2.8,13-3.84,31,.79a68.15,68.15,0,0,1,17.76,7.61c-3.88.4-8.69,2.4-18.27,3.09-5.32.38-8.34.08-9.65,2.19-1.53,2.45.28,6.54,1.79,8.63,8.72,12.07,39.4,2,40.47,6.07.6,2.27-8.52,7.6-16.94,10.46S36,306.72,35.35,309c-1,3.52,8.18,10,17,12.82,3.06,1,15.63,5,24.67-.56Z" transform="translate(-2.54 -17.13)"/>
      <g class="cls-19">
        <path class="cls-22" d="M132.38,235.47c3.37-.43,8.47-5.18,14.68-7.08,21.65-6.64,52,22.93,49.24,28.19-1.86,3.5-16.38-7.67-41.2-5.15a91,91,0,0,0-25,6.53c5,1.3,11,4.91,23.55,7.73,7,1.56,11,1.77,12.33,4.82,1.53,3.55-1.68,8.6-4.1,11.07-13.93,14.22-52.53-5.17-54.74-.05-1.25,2.88,9.76,11.76,20.32,17.22s16.5,5.41,16.9,8.56c.6,4.86-12.81,11.58-25.1,13.58-4.25.68-21.67,3.5-32.53-5.66Z" transform="translate(-2.54 -17.13)"/>
        <path class="cls-24" d="M133,235.8c-1.33-3.12.18-9.93-1.32-16.24-5.24-22-46.13-33.26-49.25-28.19-2.08,3.37,14.91,10.24,25.3,32.92a91.1,91.1,0,0,1,7,24.87c-3.68-3.69-9.82-7-18.6-16.39-4.86-5.21-7.1-8.61-10.4-8.19-3.83.48-6.56,5.8-7.46,9.13C73.06,252.93,109.32,276.4,106,280.9c-1.85,2.53-15.08-2.47-25.14-8.8s-13-11.5-15.93-10.24c-4.5,1.94-3.51,16.9,1,28.51,1.56,4,8,20.47,21.35,25.19Z" transform="translate(-2.54 -17.13)"/>
      </g>
      <polygon class="cls-25" points="258.95 137.36 254.51 155.43 265.22 163.54 275.94 147.31 258.95 137.36"/>
      <path class="cls-26" d="M235.45,232.42l-1.56-2.18c-.24-.34-.47-.68-.7-1a.92.92,0,0,0-.9-.5c-.49,0-1,.07-1.48.13a19.54,19.54,0,0,0-3,.73,23.66,23.66,0,0,1-3.22.69c-.35.05-1,.2-1,.66a1,1,0,0,0,.85.9,5.78,5.78,0,0,0,1.38.15,4,4,0,0,0,1.23-.3c-1,.81-2,1.6-3,2.39l-1.5,1.2a14.91,14.91,0,0,0-1.44,1.19c-.28.28-.58.72-.3,1.1s.81.32,1.22.1c1.07-.6,2-1.44,3.06-2.13.46-.32.93-.63,1.4-.93s.4-.13.07.13l-1.22.95a3.89,3.89,0,0,0-1,1,.65.65,0,0,0,.12.88,1,1,0,0,0,1,0,8.25,8.25,0,0,0,1.22-.71,5.46,5.46,0,0,1,1.26-.82c-.38.69-3,1.84-2.11,2.84.41.43,1,.05,1.42-.19A8,8,0,0,1,229,237.5c-.39.55-1.92,1.21-1.65,2.06.37,1.15,2.2-.44,2.63-.76a23.69,23.69,0,0,0,3.33-2.66,11,11,0,0,0,1.3-1.73c.18-.31.35-.62.51-.94s.52-.84.37-1.05" transform="translate(-2.54 -17.13)"/>
      <path class="cls-27" d="M307,308.41l2,1.75a3.12,3.12,0,0,1,.35,4.25l-7.94,9.8a2.55,2.55,0,0,1-2,1h-6.55a2.65,2.65,0,0,1-2.37-1.62h0a3.07,3.07,0,0,1,1.1-3.87l3.25-2a3,3,0,0,0,1.38-2.57v-.65a3,3,0,0,1,1.4-2.58l6.46-3.8A2.46,2.46,0,0,1,307,308.41Z" transform="translate(-2.54 -17.13)"/>
      <path class="cls-27" d="M242.66,315.11h0a2.76,2.76,0,0,1-2.09,2.67l-6,1.5a2.78,2.78,0,0,0-1,.47l-1.34,1a2.75,2.75,0,0,0-.29,4.14l.19.19a2.72,2.72,0,0,0,1.94.81h15.71a2.76,2.76,0,0,0,2.31-1.26l1.8-2.8a2.75,2.75,0,0,0,.36-2.11l-1.71-7.36a2.76,2.76,0,0,0-2.89-2.12l-2.69.21A4.68,4.68,0,0,0,242.66,315.11Z" transform="translate(-2.54 -17.13)"/>
      <path class="cls-28" d="M250.75,244.26,240.37,302a9.57,9.57,0,0,0,9.42,11.27h5.55a4,4,0,0,0,3.9-3.27l6.28-35.32a4,4,0,0,1,7.85.33h0a4,4,0,0,0,.49,1.59l18.51,32.77a4,4,0,0,0,4.18,1.94l2.2-.4A10.54,10.54,0,0,0,306,295.45l-13.67-24.52a4,4,0,0,1-.49-1.71l-1.57-28a4,4,0,0,0-4.39-3.72L254.21,241A4,4,0,0,0,250.75,244.26Z" transform="translate(-2.54 -17.13)"/>
      <g>
        <path class="cls-29" d="M120.14,202.14l6.66,5.44a1.57,1.57,0,0,0,.87.36l18.11,1.71a1.65,1.65,0,0,0,.88-.16l1.88-.94a1.59,1.59,0,0,1,1.21-.1l2.06.63a1,1,0,0,1,.23,1.72h0a1,1,0,0,0-.11,1.53l.48.4a1.62,1.62,0,0,0,1.51.31l3.36-1a1.63,1.63,0,0,1,2,2.08h0a1.72,1.72,0,0,1-.26.48l-1.95,2.51a1.72,1.72,0,0,1-1,.61l-6,.9a1.63,1.63,0,0,1-1-.15l-5-2.5a1.47,1.47,0,0,0-.62-.17l-21.64-1.37a1.63,1.63,0,0,1-1.14-.58l-6.22-7.35a1.62,1.62,0,0,1,.42-2.45l3.47-2A1.61,1.61,0,0,1,120.14,202.14Z" transform="translate(-2.54 -17.13)"/>
        <polygon class="cls-27" points="88.79 155.75 87.35 165.22 95.62 167.26 97.06 156.83 88.79 155.75"/>
        <path class="cls-30" d="M74.66,245.11l-3.14,15.08a6.67,6.67,0,0,0,.2,3.46l1.94,5.82a5.91,5.91,0,0,1,.27,1.16l1.43,10a6.61,6.61,0,0,1-.6,3.84l-10.71,22.1a6.64,6.64,0,0,0,2.85,8.76l1.61.86a6.66,6.66,0,0,0,9.18-3.11L91.21,289.2c.25-.57,2.78-3.35,2.88-4l.72-14.95A6.65,6.65,0,0,1,105,265.67l11.81,7.57a6.61,6.61,0,0,1,2.76,3.6l11.4,36.35a6.65,6.65,0,0,0,9.13,4.05h0a6.64,6.64,0,0,0,3.71-7.43l-9.31-43.49a6.69,6.69,0,0,0-1.49-3l-20.89-24a6.63,6.63,0,0,0-5.7-2.24l-25.92,2.73A6.64,6.64,0,0,0,74.66,245.11Z" transform="translate(-2.54 -17.13)"/>
        <path class="cls-27" d="M95.61,169.76a11.92,11.92,0,0,1-12.14-11.69c0-6.45,6.49-11.69,13.2-11.69" transform="translate(-2.54 -17.13)"/>
        <path class="cls-31" d="M61.88,310.4l-2,1.74a3.13,3.13,0,0,0-.34,4.26l7.94,9.8a2.52,2.52,0,0,0,2,1H76a2.64,2.64,0,0,0,2.37-1.61h0a3.1,3.1,0,0,0-1.1-3.88L74,319.73a3,3,0,0,1-1.38-2.57v-.65a3,3,0,0,0-1.4-2.58l-6.46-3.8A2.45,2.45,0,0,0,61.88,310.4Z" transform="translate(-2.54 -17.13)"/>
        <path class="cls-32" d="M135.46,318.88l.51,2c.58,2.31,2.75,3.52,4.65,2.58l10.7-5.26c2.1-1,2.79-4.11,1.4-6.22h0c-.76-1.15-3.81-1.41-5-1.22l-5.18.8a3,3,0,0,0-.9.29L137.4,314A4.29,4.29,0,0,0,135.46,318.88Z" transform="translate(-2.54 -17.13)"/>
        <path class="cls-27" d="M104.61,149.53" transform="translate(-2.54 -17.13)"/>
        <path class="cls-27" d="M96.12,146.38c4.8-.12,6.4,3,8,5.07a7,7,0,0,1,1.37,4.06,18.69,18.69,0,0,1-.7,3.65c-.64,2.71-.85,3-.7,3.65.33,1.51,1.61,1.69,1.61,2.83a3.22,3.22,0,0,1-1.51,2.24l-1.36,2.33-9.1,0-7.5-5.51Z" transform="translate(-2.54 -17.13)"/>
        <path class="cls-33" d="M96.51,168.41a5.81,5.81,0,0,0,3.6,1.8c1.34.09,2.41-.44,2.7,0s-.73,1.12-.9,2.7c-.11,1,.26,1.38,0,1.8s-.82.9-4.5,0c-3.94-1-6.12-1.49-8.09-3.6a11.05,11.05,0,0,1-2.7-5.39" transform="translate(-2.54 -17.13)"/>
        <path class="cls-34" d="M110,148.63" transform="translate(-2.54 -17.13)"/>
        <path class="cls-34" d="M99.36,154.22a4.47,4.47,0,0,1,2-.29,4.64,4.64,0,0,1,1.88.57" transform="translate(-2.54 -17.13)"/>
        <ellipse cx="99.1" cy="141.78" rx="1.2" ry="2.1"/>
        <path d="M102.36,150c-1.88.3-3.84.61-5.4,2.16a8,8,0,0,0-2,4.07,8.45,8.45,0,0,0-.12,1.68,2.2,2.2,0,0,0-1.91-1.32c-1.17.14-1.86,2.08-1.44,3.12h0a4.7,4.7,0,0,0,.72,1.2c.46.43,1.16,0,1.32.24.34.51-2.5,3-4.68,4.92-2.55,2.2-2.54,2.53-3.12,2.63-2.83.54-7-3.68-7.67-8.27-.56-3.58,1.09-6.44,2.16-8.27a16.53,16.53,0,0,1,9.59-7.92c5.88-1.71,10.65.7,12.83,1.8s4.47,2.77,4.2,3.48C106.59,150,105.09,149.55,102.36,150Z" transform="translate(-2.54 -17.13)"/>
        <polygon class="cls-1" points="71.4 224.38 75.36 226.92 107.01 226.7 112.41 224.5 71.4 224.38"/>
        <path class="cls-35" d="M115.67,213.29l.45,23.58a6,6,0,0,1-6,6.19H77.77a6,6,0,0,1-6-6.43l5.76-35.57c.1-1.45,2.21-10.12,3.24-11.15l2.51-5.76c4.13-4.12,7.69-5,13.36-3.65l11.27,2.7a6.06,6.06,0,0,1,3.38,2.21l10.23,13.42a6,6,0,0,1-.12,7.43l-7.23,8.9a2.12,2.12,0,0,1-3.14.16L99.19,203.46a6,6,0,0,1-1.34-2L92.92,189.1" transform="translate(-2.54 -17.13)"/>
        <polygon class="cls-1" points="80.7 273.62 83.99 266.31 85.74 254.91 80.7 273.62"/>
        <polygon class="cls-1" points="123.2 242.57 128.24 247.24 129.68 256.6 123.2 242.57"/>
        <polygon class="cls-1" points="90.38 171.97 94.87 184.56 112.86 197.15 110.25 198.68 92.98 186.45 90.38 171.97"/>
      </g>
      <polygon class="cls-27" points="269.98 157.13 268.56 170.43 260.29 172.47 258.85 162.04 269.98 157.13"/>
      <path class="cls-27" d="M264.32,151.59c6.71,0,13.2,5.23,13.2,11.69A11.92,11.92,0,0,1,265.38,175" transform="translate(-2.54 -17.13)"/>
      <path class="cls-27" d="M256.39,154.74" transform="translate(-2.54 -17.13)"/>
      <path class="cls-27" d="M264.87,151.59c-4.8-.12-6.4,3-8,5.07a7,7,0,0,0-1.37,4.05,19.58,19.58,0,0,0,.7,3.66c.65,2.71.85,3,.7,3.65-.32,1.51-1.61,1.69-1.6,2.83a3.21,3.21,0,0,0,1.5,2.24" transform="translate(-2.54 -17.13)"/>
      <path class="cls-33" d="M264.48,173.62a5.86,5.86,0,0,1-3.6,1.8c-1.33.09-2.41-.44-2.7,0s.74,1.11.9,2.7c.11,1-.25,1.38,0,1.8s.82.89,4.5,0c3.94-1,6.13-1.49,8.09-3.6a11,11,0,0,0,2.7-5.4" transform="translate(-2.54 -17.13)"/>
      <path class="cls-34" d="M253.15,145.2" transform="translate(-2.54 -17.13)"/>
      <path class="cls-34" d="M261.63,159.42a4.6,4.6,0,0,0-2-.28,4.75,4.75,0,0,0-1.88.57" transform="translate(-2.54 -17.13)"/>
      <ellipse cx="256.81" cy="146.99" rx="1.2" ry="2.1"/>
      <path class="cls-36" d="M258.63,155.18c1.89.3,3.85.61,5.4,2.16a7.9,7.9,0,0,1,2,4.08,8.41,8.41,0,0,1,.12,1.68,2.22,2.22,0,0,1,1.92-1.32c1.16.13,1.85,2.07,1.44,3.12h0a5.64,5.64,0,0,1-.72,1.2c-.47.43-1.16,0-1.32.24-.34.5,5.18,12.6,2.31,19.61-1.28,3.12,12.37,2.05,12.95,2.16,2.83.53-.51-17.9.21-22.49.56-3.58-1.1-6.44-2.16-8.28a16.6,16.6,0,0,0-9.59-7.91c-5.88-1.72-10.65.7-12.84,1.8s-3.59,7.39-3.32,8.1C255.27,159.87,255.9,154.75,258.63,155.18Z" transform="translate(-2.54 -17.13)"/>
      <polygon class="cls-1" points="289.56 223.09 285.85 225.98 254.3 228.58 248.73 226.87 289.56 223.09"/>
      <polyline class="cls-14" points="230.93 203.57 228.25 211.62 232.94 216.31 242.32 212.28 250.37 195.53 246.15 226.11 291.92 224.35 286.56 176.09 273.82 167.38 256.4 171.4 251.71 177.43"/>
      <path d="M268,220.31l9,2.16,12.11-29.26-9.29,30.15c-.34,1.07-3,1.52-4,1Z" transform="translate(-2.54 -17.13)"/>
      <line class="cls-27" x1="259.9" y1="153.71" x2="264.4" y2="144"/>
      <line class="cls-27" x1="261.7" y1="158.57" x2="268.54" y2="158.57"/>
      <path class="cls-27" d="M255.25,171.56c2.38.28,4.28.76,5.43-1,.7-1.09.4-2.22.94-2.4,1.15-.41,5.38,3.8,4.36,8a6.22,6.22,0,0,1-7.31,4.42Z" transform="translate(-2.54 -17.13)"/>
      <path class="cls-26" d="M253.7,213c.23-.47.78-.45,1.23-.4l1.75.23c-.94-.3-1.89-.55-2.84-.82-.61-.17-1.94-.48-1.33-1.4.4-.61,1.29-.15,1.82,0,.95.26,1.9.5,2.85.78-1.26-.55-2.48-1.23-3.72-1.84l-.51-.26c-.54-.26-.18-1.16.27-1.3a1.31,1.31,0,0,1,.86.21l1.12.58c.83.42,1.66.85,2.51,1.25-.86-.65-1.69-1.34-2.56-2-.49-.36-1.29-1.06-.47-1.61.35-.24.78,0,1.09.18.48.32.94.69,1.42,1l3,2c-.31-.42-.66-.81-1-1.23s-.61-.65-.53-1.06a.81.81,0,0,1,.87-.64c.42.1.79.65,1.07,1,1.27,1.37,3.31,3,2.74,5.1a3.37,3.37,0,0,1-4.7,2.28,5,5,0,0,0-1.26-.59c-.56-.12-1.15-.13-1.71-.22s-2.48-.17-2-1.24" transform="translate(-2.54 -17.13)"/>
      <polygon class="cls-28" points="273.82 167.38 268.9 193.28 260.26 191.84 257.38 201.2 275.37 205.51 286.56 176.09 273.82 167.38"/>
    </g>
  </g>
</svg>
