<svg xmlns="http://www.w3.org/2000/svg" viewBox="0 0 298.47 305.39" xmlns:v="https://vecta.io/nano"><style><![CDATA[.L{letter-spacing:0em}.M{letter-spacing:0em}.N{letter-spacing:0em}]]></style><path d="M20.24 305.4a206.58 206.58 0 0 1-10.15-24c-12-34.22-10.68-63.6-9.06-101 1.52-34.8 5.44-34.14 5.44-65.2 0-10.07-.4-16.62 2.7-25.36C16.52 69.36 7.4 49 44.97 53.63c8.83 1.1 43.48-24.05 79.7-13.13 11.33 3.42 22 9.63 28.53 4.53 5.27-4.14 2.4-11.53 5-19 7.06-20.45 52.64-35.42 86.94-19 22.9 10.95 43.27 37.08 38 55.7-3.87 13.8-19.33 14.6-22.64 29.88-2.55 11.8 5.2 18 14.5 38 11.66 25.23 14.15 47.4 16.76 70.64 1.92 17.15 3.5 31.18.9 49.35a148 148 0 0 1-19.56 54.79z" fill="#0071bc" opacity=".1"/><g fill="#e6e6e6"><path d="M26 53.9h65.52v27.8H26zm0 36.97h65.52v27.8H26zm111.42-37.34v65.52h-29.9V53.53z"/><circle cx="116.08" cy="232.06" r="31.15" transform="matrix(.266902 -.963724 .963724 .266902 -169.58 261.19)"/><path d="M26 211.27h230.07v4.84H26zm0-84.92h223.84v4.84H26z"/><path d="M89.2 130.97V296.4h-4.84V130.97zm166.88-80.43v165.43h-6.24V50.54zM149.9 53.9v242.5h-4.84V53.9z"/></g><circle cx="116.07" cy="232.06" r="20.98" transform="matrix(.358205 -.933643 .933643 .358205 -173.19 236.5)" fill="#fff"/><path d="M95.54 137.1h23.93v37.16H95.54zM26 165.07h23.32v26.7H26zm0-27.97h46.94v23.32H26zm97.5 0h16.74v23.1H123.5zm0 27.97h16.74v38.6H123.5zm0 55.6h16.74v22.85H123.5zm76.06-83.58h17.4v66.57h-17.4zm23.06 0h21.58v66.57h-21.58zM211.75 53h30.7v66.57h-30.7zm-15.5 170.12h59.83v73.28h-59.83zm-102.2 45.56h46.2v27.7h-46.2zm0-19.9h46.2v14.7h-46.2zm-68.06 0h41.5v47.63H26zm0-30.07h17.47v25.67H26zm161.04-82.2v65.52h-29.9V136.5zm-1.02 93.97V296h-29.9v-65.52z" fill="#e6e6e6"/><path d="M188.06 52.26v65.52h-29.9V52.26z" fill="#f7931e" opacity=".55"/><path d="M180.74 69.2c-.17-.53-2.23-6.67-7.44-6.9h-.7c-5.2.23-7.27 6.37-7.44 6.9a10.68 10.68 0 0 0 .36 7.26c.06.14 1.16 1.7 3.36 4.78l2.13 3c1 1.66 1.28 2.58 1.76 2.8h.35c.48-.2.77-1.13 1.76-2.8.16-.26.12-.18 2.13-3l3.36-4.78a10.68 10.68 0 0 0 .37-7.26z" fill="#f15a24"/><circle cx="172.95" cy="72.04" r="4.69" fill="#fff"/><path d="M87.76 103.2c-.1-.36-1.5-4.5-5-4.66h-.47c-3.5.15-4.9 4.3-5 4.66a7.11 7.11 0 0 0 .24 4.89c0 .1.78 1.14 2.26 3.23l1.44 2c.67 1.1.86 1.73 1.2 1.88h.24c.32-.15.52-.77 1.2-1.88.1-.18.08-.13 1.43-2l2.27-3.23a7.17 7.17 0 0 0 .21-4.89z" fill="#f15a24"/><circle cx="82.51" cy="105.1" r="3.16" fill="#fff"/><circle cx="201.45" cy="208.33" r="97.02" fill="#4a75d2" opacity=".47"/><rect x="10.05" y="125.77" width="110.71" height="176.52" rx="8.12" fill="#333" opacity=".53"/><g fill="#fff"><path d="M20.75 139.82h89.18V282H20.75z" opacity=".78"/><path d="M116.22 33.24h94.75v4.05h-94.75z" stroke="#000" stroke-miterlimit="10" stroke-width=".25"/></g><g fill="#0071bc"><path d="M73.03 33.24h43.2v4.05h-43.2z"/><path d="M111.97 28.6a4.41 4.41 0 0 1 8.82 0 4.41 4.41 0 0 1-4.41 4.41 4.42 4.42 0 0 1-4.41-4.41z"/></g><text transform="translate(31.59 159.06)" fill="#f15a24" font-size="13.65" font-family="MyriadPro-Regular,Myriad Pro"><tspan class="L">Q</tspan><tspan x="9.44" y="0">ua</tspan><tspan class="M" x="23.54" y="0">r</tspan><tspan x="27.93" y="0">a</tspan><tspan class="N" x="34.51" y="0">n</tspan><tspan x="42.03" y="0">tined</tspan></text><circle cx="64.49" cy="292.61" r="6.58" fill="#fff"/><circle cx="75.2" cy="214.12" r="11.41" transform="matrix(.160226 -.98708 .98708 .160226 -179.22 233.26)" fill="#ffb332"/><path d="M44.17 204.74a11.33 11.33 0 0 0 8-3.24 6.47 6.47 0 0 0-.82-2.69c-.4-.5-2.07-1-3.2-1.4a10 10 0 0 0-1.76-.92v.05a1.69 1.69 0 0 1-.05-.33v-.57a5.21 5.21 0 0 0 .4-.6c2.06-.9 1.46-3.72 1.46-3.72.26.27.84.2.84.2-.18 0-.28-.24-.37-.54a3.53 3.53 0 0 0 1.51.21 3.47 3.47 0 0 1-1.56-2.09 12.1 12.1 0 0 0-.93-2.5 3.73 3.73 0 0 0-4.72-1.52 2.06 2.06 0 0 0-1.09 1.14 1.41 1.41 0 0 0-1.16.49 2.86 2.86 0 0 0-.61 1.14 9 9 0 0 0-.28 3.32 6 6 0 0 0 .84 3 3.14 3.14 0 0 0 1.18 1l.2.33v.72a1.23 1.23 0 0 1 0 .35h0a10 10 0 0 0-1.76.92c-1.13.35-2.8.9-3.2 1.4a6.61 6.61 0 0 0-.83 2.69 11.36 11.36 0 0 0 7.9 3.17z" fill="#6a420d"/><circle cx="113.19" cy="229.29" r="17.61" transform="matrix(.22971 -.973259 .973259 .22971 -167 265.98)" fill="#c7f451"/><path d="M95.55 216.37c-1.1-1.5-8.1-3.7-8.4-4a16.7 16.7 0 0 1-1.29-1.57h-.07v-1.45a7.91 7.91 0 0 0 1-1.5 7 7 0 0 0 .37-1.69c1.15-.53 1.3-2.37 1.34-3.4 0-.5-.22-.55-.5-.46v-.06a4.33 4.33 0 0 0 .56-1.33 4.71 4.71 0 0 0-1.1-5.1 2 2 0 0 0-.35-.31 1.43 1.43 0 0 0-.31-.42 3.34 3.34 0 0 0-2.16-.63 2.84 2.84 0 0 1-2.11-.74l.35.55a4 4 0 0 1-2.52-2.11l-.06.64a1.56 1.56 0 0 1-.54-1 5.6 5.6 0 0 0-2.59 4.67 4.69 4.69 0 0 0-1.2 1.75 1.46 1.46 0 0 0-.16.46 3.8 3.8 0 0 0-.18 1.06 4.47 4.47 0 0 0 .65 2.49 1 1 0 0 0 0 .14c-.25-.08-.46 0-.43.47 0 1 .18 2.87 1.34 3.4a6.67 6.67 0 0 0 .36 1.69 8.16 8.16 0 0 0 .92 1.46v1.5h-.06a16.7 16.7 0 0 1-1.29 1.57c-.3.25-7.3 2.46-8.4 4a7.71 7.71 0 0 0-1 2.21 17.59 17.59 0 0 0 28.86 0 7.45 7.45 0 0 0-1.02-2.28z" fill="#4d611b"/><circle cx="76.05" cy="275.27" r="18.41" transform="matrix(.019372 -.999812 .999812 .019372 -231.68 325.18)" fill="#4a75d2"/><path d="M45.02 272.9a18.33 18.33 0 0 0 12.87-5.25 10 10 0 0 0-1.27-4c-.64-.84-3.37-1.7-5.2-2.28a12.24 12.24 0 0 0-1.45-.85 5.28 5.28 0 0 0 3.6-1.13 2.07 2.07 0 0 1-1.31-.29l.47-.13a3.37 3.37 0 0 1-2.41-2.06 8.41 8.41 0 0 1 1.26-1.34v.2a7.72 7.72 0 0 0 1.31-2 4 4 0 0 0-.31-3.43l.3.1a7.5 7.5 0 0 1-1.83-4 7.28 7.28 0 0 0-.48-2.47 2.6 2.6 0 0 0-2.48-1.35 2.73 2.73 0 0 1 .25-.23 2.5 2.5 0 0 0-.84.31 1.81 1.81 0 0 1 .29-.48 2.27 2.27 0 0 0-.55.43 4.62 4.62 0 0 1 .47-1 3.45 3.45 0 0 0-.91 1 4.92 4.92 0 0 0-7.72.77l.52-.1a9.33 9.33 0 0 0-2.33 6.33l.34-.44a6.52 6.52 0 0 1-.71 5.15l.84-.07a5 5 0 0 0 1 2.49v-.8a7.8 7.8 0 0 0 1.11 2.07 3.31 3.31 0 0 1-1.69.94l.47.13a2.14 2.14 0 0 1-1.31.28 5.29 5.29 0 0 0 2.74 1.1 11.48 11.48 0 0 0-1.48.87c-1.84.57-4.56 1.44-5.2 2.28a10 10 0 0 0-1.28 4 18.36 18.36 0 0 0 12.91 5.22zm4.08-12.82h0z" fill="#21386b"/><path d="M224.7 230.73l-3.2-.75-5.4 2.47 4.64 2.46 3.97-4.18z" fill="#204f63"/><path d="M183.13 215.08c4.7 16.3-2.15 21.07-5.32 21.07-2.5 0-6.4-10.38-7.93-14.76a9.14 9.14 0 0 1-.45-4c.55-4.76 2.38-16.25 7.56-19.76a28.4 28.4 0 0 1 8-3.61l3.92 15.48z" fill="#fbb03b"/><path d="M246.56 180.64a1.4 1.4 0 0 0-2.14.26c-6.95 10.32-32.58 19.77-40.92 13.46-6.56-5-4.2-11.87-3.23-13.85a.84.84 0 0 0-.24-1c-1.14-.9-3.85-2.42-8-.27-5.2 2.73-10.9 11.74-5.34 28.38a3.28 3.28 0 0 1-.59 3.1l-3.64 4.42-10.7 13.07-16.22 19.7a65.81 65.81 0 0 0 26.59 23.78h2.33l8.74-12.3 27.78-33.54c10.66-.82 15.44-7 16.73-9.3a3.2 3.2 0 0 1 1.41-1.34c4.07-1.93 4.68-5 4.6-6.92a3.22 3.22 0 0 1 1.29-2.73c4.56-3.45 3.64-8.18 2.85-10.4a3.3 3.3 0 0 1 .15-2.54c3.04-6.2.42-10.16-1.45-11.98z" fill="#fff"/><g fill="#fbb03b"><path d="M227.86 144h-1.82l-25.38 36.42c-9.3 10.72 4.6 16.07 4.6 16.07 26.5 3.87 38.28-14.8 38.28-14.8l12.8-15.93a65.77 65.77 0 0 0-28.46-21.76z" opacity=".9"/><path d="M182.3 214.4c4.72 16.3-1.82 22.25-5 22.25-2.5 0-6.4-10.38-7.93-14.76a9.14 9.14 0 0 1-.45-4c.55-4.75 2.38-16.25 7.56-19.76a26.49 26.49 0 0 1 7.67-3.52m20.88 60.95s1.48 4.72-4.6 5.78-12.1-5.62-12.07-9.08 2.85-3.7 4.47-3.57"/><path d="M213.48 247.35s2.12 7.82-5.54 8.35-17.83-6.6-17.25-12.7c.42-4.54 6-4.53 6-4.5"/><path d="M221.86 238.78s3 7-5.94 8.37-18.82-5-19.88-10.5a5.69 5.69 0 0 1 7.58-6.61"/><path d="M227.27 224.7s5.78 5.43-.65 11.95-23.22-3.1-23.7-8.5c-.53-5.86 4.06-6.4 7.32-6.22s10.3 3.27 12.74 5.56"/></g></svg>