<?xml version="1.0" encoding="UTF-8" standalone="no"?>
<svg
   xmlns:dc="http://purl.org/dc/elements/1.1/"
   xmlns:cc="http://creativecommons.org/ns#"
   xmlns:rdf="http://www.w3.org/1999/02/22-rdf-syntax-ns#"
   xmlns:svg="http://www.w3.org/2000/svg"
   xmlns="http://www.w3.org/2000/svg"
   xmlns:sodipodi="http://sodipodi.sourceforge.net/DTD/sodipodi-0.dtd"
   xmlns:inkscape="http://www.inkscape.org/namespaces/inkscape"
   id="a3a13504-18ee-4099-a22c-5e563c906cad"
   data-name="Layer 1"
   width="1024"
   height="500"
   viewBox="0 0 1024 500.00002"
   version="1.1"
   sodipodi:docname="feature.svg"
   inkscape:version="0.92.5 (2060ec1f9f, 2020-04-08)">
  <metadata
     id="metadata165">
    <rdf:RDF>
      <cc:Work
         rdf:about="">
        <dc:format>image/svg+xml</dc:format>
        <dc:type
           rdf:resource="http://purl.org/dc/dcmitype/StillImage" />
        <dc:title>collab</dc:title>
      </cc:Work>
    </rdf:RDF>
  </metadata>
  <defs
     id="defs163" />
  <sodipodi:namedview
     pagecolor="#ffffff"
     bordercolor="#666666"
     borderopacity="1"
     objecttolerance="10"
     gridtolerance="10"
     guidetolerance="10"
     inkscape:pageopacity="0"
     inkscape:pageshadow="2"
     inkscape:window-width="1920"
     inkscape:window-height="960"
     id="namedview161"
     showgrid="false"
     fit-margin-top="0"
     fit-margin-left="0"
     fit-margin-right="0"
     fit-margin-bottom="0"
     inkscape:zoom="0.50836461"
     inkscape:cx="1180.0437"
     inkscape:cy="32.338078"
     inkscape:window-x="0"
     inkscape:window-y="27"
     inkscape:window-maximized="1"
     inkscape:current-layer="a3a13504-18ee-4099-a22c-5e563c906cad" />
  <title
     id="title2">collab</title>
  <path
     style="fill:#f2f2f2;stroke-width:0.27387115"
     d="m 184.86521,180.64013 c -15.4442,16.01989 -28.04207,35.23766 -33.59414,56.98271 -1.31742,7.67228 -7.36951,14.31742 -15.59709,13.68422 -19.55226,1.40762 -36.438283,-13.06061 -44.707235,-29.72253 -13.856888,-27.48044 -12.818036,-62.46871 3.893877,-88.50129 9.006178,-14.18849 25.234768,-24.96783 42.556888,-23.03162 18.36239,1.60888 37.24513,6.68008 51.87276,18.33611 8.96154,6.91652 13.83557,19.23365 9.83482,30.15621 -2.71833,8.45883 -8.26554,15.6822 -14.25988,22.09619 z"
     id="path4"
     inkscape:connector-curvature="0" />
  <path
     style="fill:#cecbd8;fill-opacity:1;stroke-width:0.27387115"
     d="m 195.8341,253.66166 c -1.53726,7.98012 -9.23625,12.8817 -15.59576,17.06477 -21.34494,13.04519 -49.18866,12.6439 -71.05531,1.04144 -7.39722,-4.20382 -16.036392,-8.89776 -19.131324,-17.30586 3.332949,-2.77606 12.013324,-4.78401 17.943014,-4.80307 17.75505,0.43086 35.52129,1.98503 53.2862,0.62939 10.48059,-0.18652 21.16195,-2.45018 31.53177,-0.2708 1.59312,0.497 3.13628,1.8135 3.02141,3.64413 z"
     id="path6"
     inkscape:connector-curvature="0" />
  <path
     style="fill:#d5e5ff;stroke-width:0.27387115"
     d="m 195.71701,253.50787 c -1.63711,7.12087 -10.36157,8.75086 -16.39256,10.77499 -22.22825,5.34522 -45.6879,5.36041 -68.10956,1.15331 -7.2675,-1.86586 -15.861439,-3.307 -20.627511,-9.6617 -2.345984,-7.71179 8.124543,-10.45246 13.593391,-12.41822 21.81118,-5.84367 44.9576,-5.93448 67.16302,-2.38889 8.12503,1.78815 17.34451,3.21029 23.29911,9.541 0.63338,0.86799 1.08067,1.89908 1.07411,2.99951 z"
     id="path10"
     inkscape:connector-curvature="0" />
  <path
     style="opacity:0.1;stroke-width:0.27387115"
     d="m 141.51973,238.93885 c -5.75883,19.20725 -33.49745,25.64624 -44.328319,7.23169 13.734309,-6.3163 29.442179,-6.77738 44.328319,-7.23169 z"
     id="path12"
     inkscape:connector-curvature="0" />
  <path
     style="fill:#d5e5ff;stroke-width:0.27387115"
     d="m 144.07714,212.66713 c 1.38882,17.92923 -12.75147,45.05324 -33.98121,36.71585 -19.809813,-11.05397 -22.448596,-39.29261 -13.89694,-58.4164 5.40164,-18.0741 31.49078,-22.98507 40.46446,-5.07554 5.16437,7.88086 7.38574,17.43112 7.41369,26.77609 z"
     id="ellipse14"
     inkscape:connector-curvature="0" />
  <path
     style="fill:#ffb9b9;stroke-width:0.27387115"
     d="m 146.38351,153.11946 c -0.28386,3.19848 0.57646,6.728 -0.44447,9.71321 -1.48049,2.97742 -4.20027,7.12548 -4.30181,0.69155 -0.0983,-2.90575 -0.40038,-5.79998 -0.59538,-8.70027 1.78055,-0.56816 3.56111,-1.13633 5.34166,-1.70449 z"
     id="path16"
     inkscape:connector-curvature="0" />
  <path
     style="fill:#ffb9b9;stroke-width:0.27387115"
     d="m 143.00046,162.12887 c 5.19173,-3.15365 6.37771,-11.8774 12.5383,-12.7137 -1.90985,6.44544 -7.26254,10.78292 -8.91876,17.67877 -3.06503,4.83621 -5.63968,-2.50339 -3.61954,-4.96507 z"
     id="path18"
     inkscape:connector-curvature="0" />
  <path
     style="fill:#ffb9b9;stroke-width:0.27387112"
     d="m 142.11026,220.32463 c 1.42969,-3.52905 -2.62406,-5.2017 -2.54882,-1.48858 -1.03126,4.22495 0.67226,1.65719 2.54882,1.48858 z"
     id="polygon20"
     inkscape:connector-curvature="0" />
  <path
     style="fill:#5c5a7f;fill-opacity:1;stroke-width:0.27387115"
     d="m 140.32963,219.35075 c 4.87245,-5.14102 5.27015,5.93073 6.58979,8.93377 -1.29577,3.26806 -7.72031,-2.02411 -9.22978,-4.41463 -0.0937,-1.88176 1.2856,-3.37119 2.63999,-4.51914 z"
     id="path22"
     inkscape:connector-curvature="0" />
  <path
     style="fill:#565477;fill-opacity:1;stroke-width:0.27387115"
     d="m 138.72713,169.92078 c 6.18773,4.13735 14.46044,10.45532 10.95019,18.89535 -1.73795,9.60179 -3.40603,19.21606 -5.07436,28.83014 -9.38774,4.03885 -3.86262,-8.87572 -4.16457,-13.57734 -0.0841,-6.87583 4.85852,-15.74142 -2.56293,-20.29068 -4.45012,-4.63474 -10.71823,-6.87423 -16.05466,-10.34085 1.19555,-2.34553 3.78197,-4.96284 5.51079,-7.41257 3.79851,1.29865 7.59703,2.5973 11.39554,3.89595 z"
     id="path24"
     inkscape:connector-curvature="0" />
  <path
     style="fill:#ffb9b9;stroke-width:0.27387112"
     d="m 147.27377,225.68179 c -1.46295,-2.72309 -2.40806,-5.28448 0.54549,-6.62841 0.96145,-1.55336 3.2064,5.40112 1.32529,5.50917 -0.62359,0.37308 -1.24718,0.74616 -1.87078,1.11924 z"
     id="polygon26"
     inkscape:connector-curvature="0" />
  <path
     style="fill:#ffb9b9;stroke-width:0.27387115"
     d="m 138.90519,129.98721 c -1.48442,4.45266 1.62955,9.34728 -0.74168,14.0183 0.0902,3.68741 -2.14698,3.37289 -4.88306,2.20047 -3.64859,0.17807 -2.06916,-3.66338 -2.38775,-6.04555 0.28709,-4.00382 -0.85815,-8.65574 2.00312,-11.90813 1.49535,-3.19636 2.48151,-8.20242 4.45869,-1.9616 0.55323,1.21649 1.06468,2.45176 1.55068,3.69651 z"
     id="path28"
     inkscape:connector-curvature="0" />
  <path
     style="opacity:0.1;stroke-width:0.27387115"
     d="m 138.90519,129.98721 c -1.48442,4.45266 1.62955,9.34728 -0.74168,14.0183 0.0902,3.68741 -2.14698,3.37289 -4.88306,2.20047 -3.64859,0.17807 -2.06916,-3.66338 -2.38775,-6.04555 0.28709,-4.00382 -0.85815,-8.65574 2.00312,-11.90813 1.49535,-3.19636 2.48151,-8.20242 4.45869,-1.9616 0.55323,1.21649 1.06468,2.45176 1.55068,3.69651 z"
     id="path30"
     inkscape:connector-curvature="0" />
  <path
     style="fill:#696691;fill-opacity:1;stroke-width:0.27387115"
     d="m 128.22187,167.97281 c 4.38453,6.49793 8.8214,12.98009 11.41154,20.43476 3.96096,9.68436 6.69085,19.84195 10.13315,29.7257 -1.62207,4.73798 -6.10452,8.22041 -7.2168,1.149 -3.91573,-8.98329 -6.75821,-18.41644 -10.6555,-27.38583 -2.91486,-5.48074 -11.94396,-5.19601 -12.23296,-12.66187 -0.8415,-5.41391 3.40415,-10.24416 8.56057,-11.26176 z"
     id="path32"
     inkscape:connector-curvature="0" />
  <path
     style="fill:#ffb9b9;stroke-width:0.27387115"
     d="m 144.60297,123.89978 c 0.54306,4.30716 -4.07446,10.07739 -8.42943,6.83805 -4.74002,-3.64541 -3.85835,-13.80195 2.73166,-14.62997 3.82525,0.10358 5.75394,4.46908 5.69777,7.79192 z"
     id="circle34"
     inkscape:connector-curvature="0" />
  <path
     style="fill:#f2f2f2;stroke-width:0.27387115"
     d="m 138.72713,136.56164 c 0.52903,3.91344 -3.28873,10.88993 -5.42234,3.67529 -1.14562,-5.49487 -2.43365,-5.36491 -4.43661,-0.84706 -1.52081,2.61771 -3.6487,5.06125 -3.03058,8.29258 -0.15487,7.41278 -0.30975,14.82555 -0.46462,22.23833 4.5767,-4.43133 12.13728,4.74347 14.19795,0.71974 -1.45755,-5.56292 0.66079,-11.25515 -0.0713,-16.91364 -0.0894,-5.7293 -0.42673,-11.44694 -0.7725,-17.16524 z"
     id="path36"
     inkscape:connector-curvature="0" />
  <path
     style="fill:#585679;fill-opacity:1;stroke-width:0.27387115"
     d="m 138.09987,132.4631 c 5.58189,3.89947 9.36908,9.30245 4.68011,15.77548 -3.4674,6.44021 -1.41105,13.86119 -2.98452,20.70822 4.50378,3.97076 -1.6231,4.86669 -1.90019,-0.0381 1.4582,-12.15109 -0.51598,-24.26914 0.2046,-36.44564 z"
     id="path38"
     inkscape:connector-curvature="0" />
  <path
     style="fill:#636088;fill-opacity:1;stroke-width:0.27387115"
     d="m 132.58422,128.76572 c -5.81184,1.73818 -13.41071,5.47723 -12.45152,12.72605 0.044,5.19911 0.75841,10.50294 0.39107,15.63779 -1.64076,6.22118 0.60752,12.53245 -2.52059,18.69223 3.70285,1.49784 14.24602,1.72479 14.65618,-2.93338 -5.70252,-1.74473 1.67176,-11.17168 1.02639,-15.96745 1.73144,-6.85648 2.54986,-13.98108 0.23738,-20.80477 -0.47606,-2.4446 -0.92077,-4.89531 -1.33891,-7.35047 z"
     id="path40"
     inkscape:connector-curvature="0" />
  <path
     style="fill:#636088;fill-opacity:1;stroke-width:0.27387115"
     d="m 144.42491,139.48363 c 1.80124,4.23963 4.30964,11.59093 1.36323,15.46208 -10.2809,5.81338 -2.17859,-10.13693 -1.55381,-14.82052 z"
     id="path42"
     inkscape:connector-curvature="0" />
  <path
     style="fill:#ffb9b9;stroke-width:0.27387115"
     d="m 118.07271,148.00603 c -2.17307,7.39528 -3.20381,15.02693 -2.52598,22.72704 0.74175,4.20242 -2.15982,18.83539 5.20203,13.96687 -0.9502,-4.99703 -1.31663,-11.55917 -0.60407,-17.6255 -1.47981,-5.34565 4.94183,-11.54767 1.82241,-15.7628 -1.29813,-1.10187 -2.59626,-2.20374 -3.89439,-3.30561 z"
     id="path44"
     inkscape:connector-curvature="0" />
  <path
     style="fill:#5c5a7f;fill-opacity:1;stroke-width:0.27387115"
     d="m 147.27379,223.7337 c 4.99848,-3.12962 6.78761,8.84265 5.22099,11.90094 -4.34564,5.85391 -6.9133,-3.10772 -6.19998,-7.02108 -0.14515,-1.83863 -0.28008,-3.37378 0.97899,-4.87986 z"
     id="path46"
     inkscape:connector-curvature="0" />
  <path
     style="fill:#2f2e41;stroke-width:0.27387115"
     d="m 140.0209,122.01763 c -1.60747,0.2506 -1.03024,3.73097 -3.07724,2.94244 0.1549,-1.31724 -2.00601,-2.11362 -1.84988,-0.20423 0.16217,4.05485 -5.925,6.52429 -3.51373,0.48843 -0.27438,-4.80278 -0.58067,-12.33099 5.76598,-13.12932 5.23628,0.51966 9.85019,5.49674 10.78177,8.96272 0.10055,1.34041 -0.83209,1.1419 -0.98231,2.3049 0.27112,2.94839 -6.16775,-5.84643 -7.12459,-1.36494 z"
     id="path48"
     inkscape:connector-curvature="0" />
  <path
     style="fill:#585679;fill-opacity:1;stroke-width:0.27387115"
     d="m 122.70216,136.07465 c -3.55105,2.72253 -3.82959,7.33696 -5.31901,11.25136 -3.38568,4.05199 6.88476,11.23531 6.65594,4.01163 0.64319,-4.58591 3.79528,-9.87791 -0.25036,-13.62064 -0.36219,-0.54745 -0.72438,-1.0949 -1.08657,-1.64235 z"
     id="path50"
     inkscape:connector-curvature="0" />
  <path
     style="fill:#2f2e41;stroke-width:0.27387115"
     d="m 162.76041,149.43991 c -3.90787,2.77521 -7.64494,6.04659 -11.64795,8.54757 -1.48741,-2.5017 -2.0584,-5.72917 -3.15996,-8.48462 0.33977,-2.0304 3.24341,-2.43206 4.47999,-3.86523 1.94868,-1.07206 3.66436,-3.11234 5.72038,-3.75875 1.59443,2.24861 3.8921,4.31019 4.98853,6.79755 -0.0197,0.28889 -0.13614,0.5927 -0.38099,0.76348 z"
     id="path52"
     inkscape:connector-curvature="0" />
  <path
     style="fill:#dbe3db;stroke-width:0.27387112"
     d="m 148.67098,149.60234 c 3.01275,-2.2405 6.02551,-4.481 9.03826,-6.7215 0.88771,1.90777 4.68969,4.26201 3.68323,5.87959 -3.3059,2.58402 -6.61181,5.16803 -9.91772,7.75205 -0.93459,-2.30338 -1.86918,-4.60676 -2.80377,-6.91014 z"
     id="polygon54"
     inkscape:connector-curvature="0" />
  <path
     style="fill:#f2f2f2;stroke-width:0.27387115"
     d="m 153.16853,145.61832 c 0.14866,0.84341 -0.64042,-0.0155 0,0 z"
     id="ellipse56"
     inkscape:connector-curvature="0" />
  <path
     style="fill:#f2f2f2;stroke-width:0.27387115"
     d="m 157.0472,152.74242 c 0.0991,0.56228 -0.42694,-0.0103 0,0 z"
     id="ellipse58"
     inkscape:connector-curvature="0" />
  <path
     style="fill:#6c63ff;stroke-width:0.27387115"
     d="m 104.15049,250.72717 c 2.11967,8.82626 -11.889021,10.18703 -10.807389,0.9366 -0.198377,-3.51881 3.140066,-14.30791 6.237829,-12.41375 2.2294,3.44546 4.42547,7.27385 4.56956,11.47715 z"
     id="path60"
     inkscape:connector-curvature="0" />
  <path
     style="fill:#3f3d56;stroke-width:0.27387115"
     d="m 98.537301,257.39933 c 1.506289,-2.91037 2.583009,-4.95787 0.557758,-0.77449 -1.368764,3.95497 -0.832168,-1.86253 -0.78867,-3.39216 0.423898,-1.65291 -2.062135,-4.9905 -1.751832,-5.00956 1.372678,3.05306 2.237,4.53322 1.935899,0.23114 0.373782,-1.36489 -2.768412,-7.17811 -0.952698,-3.7378 1.576084,4.46818 0.901759,-1.45783 1.111534,-3.30036 0.06056,-3.747 0.07754,-3.74698 0.051,-0.003 -0.997294,5.11995 1.518016,1.46254 1.302886,1.57152 -1.416116,1.05314 -1.827319,6.80491 -1.035619,5.59808 1.867559,-4.40636 0.707363,-1.40612 -0.34004,1.31821 -0.486822,4.54886 1.391079,-1.4854 2.219809,-2.82416 -0.993829,2.5613 -2.875308,6.08885 -2.298897,9.40067 -0.0037,0.30737 -0.0074,0.61474 -0.01113,0.92211 z"
     id="path62"
     inkscape:connector-curvature="0" />
  <path
     style="fill:#6c63ff;stroke-width:0.27387115"
     d="m 179.7953,239.19745 c 2.11967,8.82627 -11.88902,10.18703 -10.80739,0.9366 -0.19842,-3.5188 3.14012,-14.30785 6.23773,-12.41375 2.22947,3.44546 4.42536,7.27385 4.56966,11.47715 z"
     id="path64"
     inkscape:connector-curvature="0" />
  <path
     style="fill:#3f3d56;stroke-width:0.27387115"
     d="m 174.1821,245.86961 c 1.5063,-2.91037 2.583,-4.95784 0.55776,-0.77447 -1.36876,3.95496 -0.83215,-1.86255 -0.78865,-3.39217 0.4239,-1.65292 -2.06216,-4.99052 -1.75185,-5.00957 1.37268,3.05305 2.23701,4.53324 1.9359,0.23115 0.37379,-1.36489 -2.7684,-7.17811 -0.9527,-3.7378 1.57608,4.46818 0.90176,-1.45784 1.11154,-3.30036 0.0606,-3.747 0.0775,-3.74698 0.051,-0.003 -0.99729,5.11996 1.51801,1.46253 1.30289,1.57151 -1.41612,1.05314 -1.82733,6.80492 -1.03563,5.59809 1.86754,-4.40637 0.70736,-1.40614 -0.34004,1.3182 -0.48682,4.54886 1.39109,-1.48537 2.21982,-2.82415 -0.99383,2.56128 -2.87532,6.08885 -2.29891,9.40067 -0.004,0.30737 -0.007,0.61473 -0.0111,0.9221 z"
     id="path66"
     inkscape:connector-curvature="0" />
  <g
     id="g1001"
     transform="matrix(0.70235307,0,0,0.70235307,205.08441,167.25738)">
    <path
       style="fill:#f2f2f2;stroke-width:0.51866156"
       d="m 698.62866,146.49284 c 66.46666,0 132.93331,0 199.39997,0 0,36.59726 0,73.19451 0,109.79177 -66.46666,0 -132.93331,0 -199.39997,0 0,-36.59726 0,-73.19451 0,-109.79177 z"
       id="rect68"
       inkscape:connector-curvature="0" />
    <path
       style="opacity:0.3;fill:#6c63ff;stroke-width:0.51866156"
       d="m 748.47868,186.16592 c 0.90877,15.79351 -22.49208,22.67288 -30.26285,8.87937 -9.14792,-12.6027 6.25999,-30.88352 20.22851,-24.01614 5.98945,2.456 10.10424,8.66323 10.03434,15.13677 z"
       id="circle70"
       inkscape:connector-curvature="0" />
    <path
       style="opacity:0.3;fill:#6c63ff;stroke-width:0.51866156"
       d="m 814.76274,186.16592 c 0.90877,15.79351 -22.49208,22.67288 -30.26285,8.87937 -9.14792,-12.6027 6.25999,-30.88352 20.22851,-24.01614 5.98945,2.456 10.10423,8.66323 10.03434,15.13677 z"
       id="circle72"
       inkscape:connector-curvature="0" />
    <path
       style="opacity:0.3;fill:#6c63ff;stroke-width:0.51866156"
       d="m 709.31085,214.92554 c 14.97326,0 29.94652,0 44.91978,0 1.41955,8.37892 -11.17009,2.74866 -16.49571,4.38241 -9.47469,0 -18.94938,0 -28.42407,0 0,-1.4608 0,-2.92161 0,-4.38241 z"
       id="rect76"
       inkscape:connector-curvature="0" />
    <path
       style="opacity:0.3;fill:#6c63ff;stroke-width:0.51866156"
       d="m 776.1427,214.92554 c 14.97326,0 29.94652,0 44.91977,0 1.41956,8.37892 -11.17009,2.74866 -16.4957,4.38241 -9.47469,0 -18.94938,0 -28.42407,0 0,-1.4608 0,-2.92161 0,-4.38241 z"
       id="rect78"
       inkscape:connector-curvature="0" />
  </g>
  <path
     style="fill:#cecbd8;fill-opacity:1;stroke-width:0.36428353"
     d="m 1012.9689,458.12513 c -4.8945,12.82223 -20.03415,17.75012 -31.69149,22.96415 -42.42844,15.65073 -91.93339,11.45994 -131.10792,-11.09275 -7.20783,-3.05614 -17.57685,-15.86785 -2.6433,-13.41041 17.90226,-6.22796 37.37556,-2.04846 55.89774,-2.25789 32.5706,1.63759 65.10625,-1.68693 97.65377,-1.53064 3.9407,0.56467 11.1521,0.14477 11.8912,5.32754 z"
     id="path82"
     inkscape:connector-curvature="0" />
  <path
     style="fill:#d5e5ff;stroke-width:0.36428353"
     d="m 1012.7766,457.94037 c -6.943,12.00406 -24.21941,11.63336 -36.57661,14.5833 -38.88132,4.87243 -78.8702,5.06072 -117.30441,-3.20878 -9.11951,-0.38217 -29.3775,-11.11388 -13.01518,-18.32967 26.02888,-10.1865 54.6747,-10.46192 82.28056,-10.9223 26.1255,0.6862 53.16369,1.26433 77.79004,10.91739 2.8166,1.48763 6.5561,3.35489 6.8256,6.96006 z"
     id="path86"
     inkscape:connector-curvature="0" />
  <path
     style="fill:#36334a;stroke-width:0.36428353"
     d="m 951.21074,418.47943 c 1.07851,14.58166 -14.80157,28.95474 -28.88892,21.7189 -18.67898,-8.5495 -16.05056,-40.87644 4.56285,-44.95611 13.53371,-2.81559 24.78739,10.4322 24.32607,23.23721 z"
     id="ellipse88"
     inkscape:connector-curvature="0" />
  <path
     style="fill:#3f3d56;stroke-width:0.36428353"
     d="m 939.55266,375.8136 c -10.41607,0.32049 -20.83215,0.64099 -31.24822,0.96148 -7.92517,8.66044 -18.99202,18.83385 -16.85025,31.69255 6.57589,11.58327 22.29347,5.39721 33.17737,6.09067 16.14195,2.63524 16.44624,-13.50223 17.58557,-25.05862 -0.0729,-4.29205 1.65811,-10.91881 -2.66447,-13.68608 z m -1.4422,8.89373 c -11.13718,0.72111 -22.27437,1.44222 -33.41155,2.16333 5.40427,-11.71946 22.50523,-9.17211 32.61062,-6.86137 0.83071,0.54685 1.9171,5.70395 0.80093,4.69804 z"
     id="path90"
     inkscape:connector-curvature="0" />
  <path
     style="fill:#36334a;stroke-width:0.36428353"
     d="m 971.52206,394.80291 c -13.70117,-0.48074 -27.40233,-0.96149 -41.1035,-1.44223 3.20497,-13.5409 6.40993,-27.08181 9.6149,-40.62271 11.99372,-0.13773 25.22684,-2.06884 36.16272,3.84171 2.90598,11.51016 -3.4944,26.19135 -4.67412,38.22323 z"
     id="path92"
     inkscape:connector-curvature="0" />
  <path
     style="fill:#36334a;stroke-width:0.36428353"
     d="m 931.84136,414.22156 c -11.48753,1.96704 -34.55663,0.96091 -33.82949,-13.9765 10.44209,-4.48071 23.91585,-2.42761 34.11427,0.0906 1.12783,4.41584 5.51138,9.32462 0.53094,12.81564 l -0.46822,0.6143 z"
     id="path94"
     inkscape:connector-curvature="0" />
  <path
     style="fill:#36334a;stroke-width:0.36428353"
     d="m 935.7068,458.02051 c 0.62473,10.85709 -15.46196,15.58625 -20.80391,6.10403 -6.28865,-8.6636 4.30338,-21.23058 13.9059,-16.50966 4.11739,1.68835 6.94606,5.95545 6.89801,10.40563 z"
     id="circle96"
     inkscape:connector-curvature="0" />
  <path
     style="fill:#3f3d56;stroke-width:0.36428353"
     d="m 932.58197,458.02051 c 0.8342,6.7819 -8.83812,11.45535 -12.64547,5.08018 -4.79572,-5.70423 1.78636,-16.6813 8.95411,-12.25233 2.40217,1.5107 3.70363,4.38625 3.69136,7.17215 z"
     id="ellipse98"
     inkscape:connector-curvature="0" />
  <path
     style="fill:#3f3d56;stroke-width:0.36428353"
     d="m 986.18466,351.53612 c -10.3086,-4.95347 -10.00306,8.96833 -11.00316,15.62952 -2.26141,16.58381 -4.52283,33.16761 -6.78424,49.75141 6.00128,1.47581 3.30255,-7.11796 4.93483,-10.69893 2.52146,-17.18573 5.04291,-34.37145 7.56437,-51.55718 3.49043,0.4059 7.24102,2.3258 5.2882,-3.12482 z"
     id="path100"
     inkscape:connector-curvature="0" />
  <path
     style="fill:#36334a;stroke-width:0.36428353"
     d="m 995.5257,357.95441 c -2.0062,3.98533 -6.63111,-0.78989 -9.44184,-1.26732 -6.64932,0.49619 -3.75411,-9.24517 1.00447,-4.66109 2.27169,1.98754 8.89821,1.91277 8.43737,5.92841 z"
     id="path102"
     inkscape:connector-curvature="0" />
  <path
     style="fill:#3f3d56;stroke-width:0.36428353"
     d="m 929.45706,412.83074 c -17.85742,-2.38563 -24.81401,16.75478 -25.81121,31.17923 2.60003,15.65485 -12.36725,9.23972 -17.23707,9.04976 3.46476,12.52963 24.54795,6.24847 20.14381,-7.87746 2.00591,-10.8981 4.89635,-29.53756 20.07875,-26.40657 6.92999,-1.37743 19.26031,2.466 2.82572,-5.94496 z"
     id="path104"
     inkscape:connector-curvature="0" />
  <path
     style="fill:#3f3d56;stroke-width:0.36428353"
     d="m 896.52626,404.8985 c -15.18704,1.04167 -22.72137,15.64017 -24.69814,29.05486 -4.45221,5.61361 0.92695,15.77303 3.43077,6.87745 1.94366,-11.5027 4.30775,-28.93316 18.0712,-30.8184 1.06539,-1.70464 2.13078,-3.40927 3.19617,-5.11391 z"
     id="path106"
     inkscape:connector-curvature="0" />
  <path
     style="fill:#36334a;stroke-width:0.36428353"
     d="m 887.39216,459.94347 c -7.13101,-4.4068 -14.26203,-8.81361 -21.39304,-13.22041 7.32294,-12.88187 23.72288,-2.6666 33.30293,2.34898 8.68986,4.21719 -8.46596,11.81401 -11.90989,10.87143 z"
     id="path108"
     inkscape:connector-curvature="0" />
  <path
     style="opacity:0.1;stroke-width:0.36428353"
     d="m 932.27226,383.72632 c -6.26296,3.22167 -11.20559,6.72302 -1.9769,11.32747 12.71146,-5.68855 20.58074,-18.51031 25.04697,-31.127 0.50072,-15.46916 -16.01807,-3.96174 -16.39082,5.6423 -2.35643,4.6562 -4.572,9.38334 -6.67925,14.15723 z"
     id="path136"
     inkscape:connector-curvature="0" />
  <path
     style="opacity:0.1;stroke-width:0.36428353"
     d="m 931.18746,382.03619 c -8.08062,2.29399 -10.65027,10.67378 -0.62169,10.58904 11.45757,-5.35806 18.17684,-16.97783 23.00087,-28.1064 -2.49129,-4.29344 -5.19012,-0.6095 -5.29438,-4.36267 -7.96867,4.65634 -11.88916,14.53143 -17.0848,21.88003 z"
     id="path138"
     inkscape:connector-curvature="0" />
  <g
     id="g1080"
     transform="matrix(0.70235307,0,0,0.70235307,239.15722,132.62911)">
    <path
       style="fill:#2f2e41;stroke-width:0.51866156"
       d="m 967.4613,354.18792 c 13.74719,8.6981 26.47753,27.07341 1.28575,29.94739 -11.32669,1.14982 -22.70107,1.80505 -34.04755,2.74967 -1.99362,16.66752 -15.78518,27.81926 -20.21585,42.86114 -26.80338,-0.87665 -2.38625,-25.47554 -1.223,-39.35662 0.60444,-20.40247 18.38273,-24.22587 34.32785,-28.40411"
       id="path110"
       inkscape:connector-curvature="0" />
    <path
       style="fill:#2f2e41;stroke-width:0.51866156"
       d="m 914.0273,424.45593 c 10.42649,23.38779 -23.93072,14.88843 -36.45828,11.15137 3.24325,-6.11563 22.12545,-5.04606 28.21598,-14.52348 3.02457,0.33188 5.72387,1.7772 8.2423,3.37211 z"
       id="path118"
       inkscape:connector-curvature="0" />
    <g
       id="g994">
      <path
         style="opacity:0.1;stroke-width:0.51866156"
         d="m 967.4613,354.18792 c 13.74719,8.6981 26.47753,27.07341 1.28575,29.94739 -11.32669,1.14982 -22.70107,1.80505 -34.04755,2.74967 -1.99362,16.66752 -15.78518,27.81926 -20.21585,42.86114 -26.80338,-0.87665 -2.38625,-25.47554 -1.223,-39.35662 0.60444,-20.40247 18.38273,-24.22587 34.32785,-28.40411"
         id="path112"
         inkscape:connector-curvature="0" />
      <path
         style="fill:#a0616a;stroke-width:0.51866156"
         d="m 937.6066,299.38152 c 0.0238,-12.1242 -18.16422,-17.20842 -9.00617,-2.48064 3.34797,3.7712 4.84216,7.23413 9.00617,2.48064 z"
         id="path114"
         inkscape:connector-curvature="0" />
      <path
         style="fill:#575a89;stroke-width:0.51866156"
         d="m 971.7261,308.56874 c -9.80606,-3.16506 -24.21565,24.18316 -29.914,2.19821 0.61801,-10.0051 -11.96464,-17.7049 -9.10505,-4.57518 1.03293,17.42881 6.80478,37.94292 28.24367,24.70079 13.24383,1.16021 9.15772,-11.79811 10.62839,-20.21129 l 0.0763,-1.09706 z"
         id="path116"
         inkscape:connector-curvature="0" />
      <path
         style="opacity:0.1;stroke-width:0.51866156"
         d="m 914.0273,424.45593 c 10.42649,23.38779 -23.93072,14.88843 -36.45828,11.15137 3.24325,-6.11563 22.12545,-5.04606 28.21598,-14.52348 3.02457,0.33188 5.72387,1.7772 8.2423,3.37211 z"
         id="path120"
         inkscape:connector-curvature="0" />
      <path
         style="fill:#2f2e41;stroke-width:0.51866156"
         d="m 926.5297,444.60567 c 1.56018,25.08971 -24.8691,11.44535 -32.66975,0.55766 7.87882,0.93981 18.51373,-6.77745 24.63508,-5.9891 2.67823,1.81048 5.35645,3.62096 8.03467,5.43144 z"
         id="path122"
         inkscape:connector-curvature="0" />
      <path
         style="fill:#2f2e41;stroke-width:0.51866156"
         d="m 964.31,355.40042 c 7.77781,12.00009 45.058,23.74414 23.25735,37.92121 -13.04125,5.27763 -27.51343,5.32143 -41.24895,8.00344 -0.77678,16.76833 -13.72135,28.89311 -17.04667,44.21731 -26.79614,1.07431 -4.23192,-25.2348 -4.08078,-39.16362 -0.88027,-20.39238 16.573,-25.49803 32.17215,-30.82437"
         id="path124"
         inkscape:connector-curvature="0" />
      <path
         style="fill:#a0616a;stroke-width:0.51866156"
         d="m 1007.146,284.38956 c 0.8054,13.99597 -19.93213,20.09237 -26.81848,7.86876 -8.55468,-11.76729 6.8941,-28.35043 19.23705,-20.64955 4.61223,2.46601 7.62823,7.55111 7.58143,12.78079 z"
         id="circle126"
         inkscape:connector-curvature="0" />
      <path
         style="fill:#a0616a;stroke-width:0.51866156"
         d="m 1000.2161,293.48048 c -1.12067,9.66263 5.3495,20.26684 -10.98339,16.34763 -16.46496,5.16623 -4.63049,-13.53312 -4.21816,-19.40696 5.17207,0.35864 10.19768,1.79232 15.20155,3.05933 z"
         id="path128"
         inkscape:connector-curvature="0" />
      <path
         style="fill:#575a89;stroke-width:0.51866156"
         d="m 967.5227,307.46921 c -4.56398,12.3169 -1.28511,25.78593 -0.063,38.51456 0.64559,9.49262 -16.20914,9.40446 -1.2883,18.53785 10.21287,11.43981 34.6885,32.83963 37.0529,4.17615 2.1804,-18.68885 12.8946,-38.60504 4.1196,-57.17468 -2.7224,-6.97192 -10.11433,-8.44325 -16.5514,-4.95918 -8.47076,2.32373 -14.84679,-5.59698 -23.2698,0.9053 z"
         id="path130"
         inkscape:connector-curvature="0" />
      <path
         style="fill:#a0616a;stroke-width:0.51866156"
         d="m 953.867,366.99986 c -11.47022,-1.57121 -22.90123,18.04167 -5.2628,10.52305 5.85219,-2.83376 10.30477,-4.59256 5.2628,-10.52305 z"
         id="path132"
         inkscape:connector-curvature="0" />
      <path
         style="fill:#2f2e41;stroke-width:0.51866156"
         d="m 1000.6424,289.71771 c 5.0181,-7.3289 -1.66316,-14.40289 -9.3646,-14.06354 -19.21197,-6.65186 13.535,-17.4484 17.7619,-2.67043 8.1455,6.96456 2.6157,23.12847 -7.4662,25.32707 -3.52451,4.31102 -4.11491,-4.95595 -0.2005,-5.46417 2.1761,-1.24174 3.3437,-4.19774 -0.7306,-3.12893 z"
         id="path134"
         inkscape:connector-curvature="0" />
      <path
         style="fill:#575a89;stroke-width:0.51866156"
         d="m 1006.0217,315.1371 c 4.0833,17.11139 -10.80814,32.61362 -21.0657,44.79435 -8.93506,7.26964 -37.44818,24.7948 -31.49241,6.09306 6.93922,-5.33751 16.00793,-8.86716 21.58281,-15.36293 8.50807,-10.50401 11.86512,-45.16253 30.9753,-35.52448 z"
         id="path140"
         inkscape:connector-curvature="0" />
    </g>
  </g>
  <path
     style="fill:#3f3d56;stroke-width:0.36428353"
     d="m 923.68832,445.04048 c 0,-9.53476 0,-19.06951 0,-28.60427 -5.96873,-0.46214 -1.97482,7.62255 -3.12483,11.29433 0,5.76998 0,11.53996 0,17.30994 1.04161,0 2.08322,0 3.12483,0 z"
     id="polygon142"
     inkscape:connector-curvature="0" />
  <path
     style="fill:#36334a;stroke-width:0.36428353"
     d="m 925.13044,434.22376 c 1.62975,6.63856 6.04155,25.92745 1.31451,24.62301 -3.20678,-8.53217 -10.55225,-11.01033 -7.18254,-20.68546 -0.60918,-5.50412 1.72841,-3.68176 5.86803,-3.93755 z"
     id="path144"
     inkscape:connector-curvature="0" />
  <path
     style="fill:#3f3d56;stroke-width:0.36428353"
     d="m 971.76236,383.02473 c -10.41607,0.3205 -20.83213,0.64099 -31.2482,0.96149 -7.70858,8.01205 -20.98481,23.78968 -8.51655,33.35325 11.54281,3.13121 31.85206,8.45463 39.29181,-2.05567 1.05818,-10.00128 7.15309,-23.61422 0.47294,-32.25907 z m -1.4422,8.89373 c -11.13717,0.72112 -22.27433,1.44223 -33.4115,2.16335 5.40425,-11.71948 22.50519,-9.17214 32.61057,-6.86138 0.83071,0.54685 1.9171,5.70397 0.80093,4.69803 z"
     id="path146"
     inkscape:connector-curvature="0" />
  <path
     style="fill:#36334a;stroke-width:0.36428353"
     d="m 996.03987,433.74298 c 1.30676,20.75392 -19.65685,41.85083 -40.63843,33.98602 -28.32245,-9.79582 -29.45183,-55.41399 -2.09658,-67.14323 21.749,-9.97438 43.76954,11.32627 42.73501,33.15721 z"
     id="ellipse148"
     inkscape:connector-curvature="0" />
  <path
     style="fill:#3f3d56;stroke-width:0.36428353"
     d="m 989.79026,433.74298 c 1.16963,16.57263 -17.02556,32.43319 -32.89663,24.3536 -20.32956,-9.14636 -18.69946,-43.35186 2.88663,-49.83086 15.78724,-5.20251 30.67616,10.0412 30.01,25.47726 z"
     id="ellipse150"
     inkscape:connector-curvature="0" />
  <path
     style="fill:#36334a;stroke-width:0.36428353"
     d="m 972.24316,433.38246 c 1.23977,-3.86558 8.10989,-4.62318 11.60721,-7.2458 6.19619,-0.65492 7.18202,-8.07894 0.5718,-3.58435 -4.63434,1.98872 -9.4409,5.13043 -13.97068,6.41914 0.5056,-6.79877 2.78942,-14.35988 3.95251,-21.44195 4.07669,-6.28768 -5.93662,-6.79435 -4.20954,-0.29796 -1.00725,6.82506 -1.50455,15.46705 -2.77421,21.21649 -5.26115,-4.918 -10.38193,-10.58783 -15.58909,-15.79498 -5.05083,4.18784 3.50255,6.95854 5.77436,10.38358 2.23868,3.33092 9.01164,5.28176 7.21274,9.74363 -7.4606,3.04516 -14.9212,6.09032 -22.3818,9.13548 -2.64957,7.33984 5.46149,0.48151 8.77504,-0.0467 4.67159,-1.5833 10.0456,-4.97941 14.28859,-5.45662 1.18065,3.95102 -2.21562,8.63448 -2.78331,12.86894 -0.21777,3.82159 -5.17229,11.18924 -2.14994,12.58519 3.10951,-2.10652 2.63439,-8.83486 4.36617,-12.71774 1.47355,-3.11356 1.05061,-9.10416 3.58365,-10.59825 3.65149,-0.83837 4.86469,5.50776 7.587,7.54895 3.1454,2.57797 5.25964,11.53128 9.65713,6.36803 -0.19856,-3.09107 -5.958,-6.81661 -8.20297,-10.14116 -1.79505,-3.01529 -7.03669,-4.96875 -5.31466,-8.9439 z"
     id="path152"
     inkscape:connector-curvature="0" />
  <g
     id="g1006"
     transform="matrix(0.70235307,0,0,0.70235307,226.63201,109.71646)">
    <path
       style="opacity:0.3;fill:#6c63ff;stroke-width:0.51866156"
       d="m 847.80039,267.9725 c 0.90878,15.79351 -22.49207,22.67288 -30.26284,8.87936 -9.14792,-12.60269 6.25999,-30.88352 20.22851,-24.01613 5.98944,2.45599 10.10423,8.66323 10.03433,15.13677 z"
       id="circle74"
       inkscape:connector-curvature="0" />
    <path
       style="fill:#6c63ff;stroke-width:0.51866156"
       d="m 809.72815,296.73212 c 14.97326,0 29.94651,0 44.91977,0 1.41954,8.37894 -11.17015,2.74864 -16.49578,4.38241 -9.47467,0 -18.94933,0 -28.42399,0 0,-1.4608 0,-2.92161 0,-4.38241 z"
       id="rect80"
       inkscape:connector-curvature="0" />
    <path
       style="fill:#6c63ff;stroke-width:0.51866156"
       d="m 857.5239,267.74118 c 0.90878,15.7935 -22.49207,22.67287 -30.26284,8.87936 -9.14792,-12.60269 6.25999,-30.88352 20.22851,-24.01613 5.98945,2.45599 10.10423,8.66323 10.03433,15.13677 z"
       id="circle154"
       inkscape:connector-curvature="0" />
  </g>
  <path
     style="fill:#6c63ff;stroke-width:0.36428353"
     d="m 1006.5994,453.45686 c -0.2678,16.72087 -26.03084,5.21255 -14.34876,-7.08267 6.15523,-15.34588 11.72406,-1.07177 14.34876,7.08267 z"
     id="path156"
     inkscape:connector-curvature="0" />
  <path
     style="fill:#3f3d56;stroke-width:0.36428353"
     d="m 997.8683,461.04595 c 5.4933,-9.0819 0.0313,2.86084 -0.57763,-0.60532 1.89687,-3.17132 -2.22443,-10.3724 -2.35383,-9.62328 3.32653,7.72606 4.00335,-1.25569 1.09336,-4.36118 -1.69972,-2.94852 3.79242,6.5948 1.97785,-2.06965 0.18478,-8.77209 0.12935,-2.50495 0.0972,2.41279 5.42656,-6.03473 -1.73846,1.1081 -0.0815,5.08571 5.1424,-8.5391 -1.363,1.6104 0.35948,2.36379 4.80242,-7.4631 1.47094,-2.93641 -0.43609,2.26042 -0.0263,1.51224 -0.0525,3.02448 -0.0788,4.53672 z"
     id="path158"
     inkscape:connector-curvature="0" />
  <g
     transform="matrix(1.4770305,0,0,1.6172081,161.87569,261.90449)"
     id="layer1"
     inkscape:label="Layer 1">
    <g
       transform="matrix(4.2837653,0,0,4.2837653,-86.37924,-474.30114)"
       id="g889">
      <path
         sodipodi:nodetypes="ccsscssccssssscscccsccscccccccsccccsascscccccccccccsssccccccsccscccccccccssc"
         inkscape:connector-curvature="0"
         id="path891"
         d="m 69.725673,121.78418 -0.814682,-0.0826 -4.508888,-4.57501 c -7.057027,-7.16052 -7.595748,-7.78833 -8.50728,-9.91427 -0.655228,-1.52817 -0.838302,-2.35675 -0.903753,-4.09033 -0.06497,-1.72078 0.104858,-2.80666 0.640211,-4.093557 1.012234,-2.43324 3.246198,-4.352175 5.980057,-5.136759 0.780636,-0.224033 1.201154,-0.266348 2.579016,-0.259517 1.438062,0.0071 1.778988,0.0484 2.695349,0.326286 1.695341,0.514108 3.067155,1.271933 4.428126,2.446212 0.360735,0.311251 0.747925,0.565908 0.860422,0.565908 0.112498,0 0.518427,-0.27781 0.902066,-0.617359 2.372467,-2.099809 5.745094,-3.135732 8.694129,-2.670453 3.930863,0.620186 6.818601,3.344632 7.59073,7.161489 0.256887,1.26987 0.181558,3.304 -0.171889,4.64158 -0.340462,1.28843 -1.247149,3.12355 -2.096631,4.24354 -0.76809,1.01268 -11.308092,11.82396 -11.650899,11.95078 -0.113636,0.042 -0.780799,0.11556 -1.482584,0.1634 -1.069266,0.0729 -1.260191,0.0607 -1.178552,-0.0752 0.05358,-0.0892 1.934984,-2.33797 4.180893,-4.99731 2.245909,-2.65934 4.302301,-5.11996 4.569759,-5.46806 0.617758,-0.804 1.453127,-2.52399 1.706642,-3.51391 0.29573,-1.15477 0.358781,-3.16622 0.132568,-4.2292 -0.807995,-3.796777 -4.129624,-5.892037 -7.487111,-4.722817 -1.383351,0.48174 -1.495499,0.60039 -1.003953,1.06218 0.417743,0.392437 0.93089,1.621957 0.986803,2.364397 0.06661,0.8845 -0.204242,1.23833 -0.935212,1.22171 -0.539654,-0.0123 -1.642006,-0.50987 -2.267281,-1.02346 l -0.346069,-0.28426 -0.566061,0.40667 c -1.118613,0.80364 -2.343095,1.07432 -2.798745,0.61867 -0.508809,-0.50881 -0.175727,-2.1313 0.650091,-3.16669 l 0.415434,-0.520867 -0.326975,-0.20475 c -1.230895,-0.77077 -3.537495,-0.9932 -4.880722,-0.47064 -1.589703,0.61844 -3.139855,2.189537 -3.508446,3.898487 -0.249572,1.15713 -0.295816,1.79431 -0.28297,2.69872 0.01418,0.99818 0.01861,1.86555 0.396774,2.96845 0.216074,0.63017 0.647646,1.55621 0.95905,2.05787 0.311403,0.50166 2.529995,3.23657 4.930205,6.07758 2.400208,2.84101 4.390937,5.20903 4.423839,5.26227 0.06824,0.11041 -0.807961,0.10201 -2.003461,-0.0192 z m -1.831152,-9.82058 v -2.88102 h 0.293981 0.293982 v 2.52824 2.52824 h 3.762963 3.762962 v -2.52824 c 0,-2.44985 0.0073,-2.52824 0.235186,-2.52824 0.228785,0 0.235185,0.0784 0.235185,2.88102 v 2.88101 h -4.29213 -4.292129 z m 4.362814,-0.65143 c -0.550608,-0.24982 -0.614179,-0.43715 -0.07934,-0.23381 0.174869,0.0665 0.602097,0.12088 0.949394,0.12088 0.347297,0 0.774525,-0.0544 0.949394,-0.12088 0.534841,-0.20334 0.47127,-0.016 -0.07934,0.23381 -0.284504,0.12908 -0.676028,0.23469 -0.870056,0.23469 -0.194028,0 -0.585552,-0.10561 -0.870056,-0.23469 z m -6.004911,-2.50859 c 0.0947,-0.0888 1.47808,-1.22337 3.074168,-2.52132 l 2.901976,-2.3599 3.062791,2.49191 c 2.954289,2.40364 3.048663,2.49319 2.664006,2.52784 -0.362692,0.0327 -0.640023,-0.16066 -3.064252,-2.13601 l -2.665469,-2.17193 -2.649362,2.16541 c -2.345693,1.91721 -2.697886,2.16541 -3.072705,2.16541 -0.364079,0 -0.399238,-0.0226 -0.251153,-0.16141 z"
         style="fill:#6686a8;stroke-width:0.11759259" />
    </g>
  </g>
</svg>
