<?xml version="1.0" encoding="UTF-8" standalone="no"?>
<!-- Created with Inkscape (http://www.inkscape.org/) -->

<svg
   xmlns:dc="http://purl.org/dc/elements/1.1/"
   xmlns:cc="http://creativecommons.org/ns#"
   xmlns:rdf="http://www.w3.org/1999/02/22-rdf-syntax-ns#"
   xmlns:svg="http://www.w3.org/2000/svg"
   xmlns="http://www.w3.org/2000/svg"
   xmlns:sodipodi="http://sodipodi.sourceforge.net/DTD/sodipodi-0.dtd"
   xmlns:inkscape="http://www.inkscape.org/namespaces/inkscape"
   width="1024"
   height="1024"
   viewBox="0 0 270.93334 270.93332"
   version="1.1"
   id="svg8"
   inkscape:version="0.92.5 (2060ec1f9f, 2020-04-08)"
   sodipodi:docname="icon.svg">
  <defs
     id="defs2" />
  <sodipodi:namedview
     id="base"
     pagecolor="#ffffff"
     bordercolor="#666666"
     borderopacity="1.0"
     inkscape:pageopacity="0.0"
     inkscape:pageshadow="2"
     inkscape:zoom="0.35"
     inkscape:cx="578.6452"
     inkscape:cy="510.8037"
     inkscape:document-units="mm"
     inkscape:current-layer="layer1"
     showgrid="false"
     fit-margin-top="0"
     fit-margin-left="0"
     fit-margin-right="0"
     fit-margin-bottom="0"
     inkscape:window-width="1920"
     inkscape:window-height="960"
     inkscape:window-x="1920"
     inkscape:window-y="27"
     inkscape:window-maximized="1"
     units="px" />
  <metadata
     id="metadata5">
    <rdf:RDF>
      <cc:Work
         rdf:about="">
        <dc:format>image/svg+xml</dc:format>
        <dc:type
           rdf:resource="http://purl.org/dc/dcmitype/StillImage" />
        <dc:title></dc:title>
      </cc:Work>
    </rdf:RDF>
  </metadata>
  <g
     inkscape:label="Layer 1"
     inkscape:groupmode="layer"
     id="layer1"
     transform="translate(-87.637617,153.56822)">
    <g
       id="g889"
       transform="matrix(4.2837653,0,0,4.2837653,-86.37924,-474.30114)">
      <path
         style="fill:#6686a8;stroke-width:0.11759259"
         d="m 69.725673,121.78418 -0.814682,-0.0826 -4.508888,-4.57501 c -7.057027,-7.16052 -7.595748,-7.78833 -8.50728,-9.91427 -0.655228,-1.52817 -0.838302,-2.35675 -0.903753,-4.09033 -0.06497,-1.72078 0.104858,-2.80666 0.640211,-4.093557 1.012234,-2.43324 3.246198,-4.352175 5.980057,-5.136759 0.780636,-0.224033 1.201154,-0.266348 2.579016,-0.259517 1.438062,0.0071 1.778988,0.0484 2.695349,0.326286 1.695341,0.514108 3.067155,1.271933 4.428126,2.446212 0.360735,0.311251 0.747925,0.565908 0.860422,0.565908 0.112498,0 0.518427,-0.27781 0.902066,-0.617359 2.372467,-2.099809 5.745094,-3.135732 8.694129,-2.670453 3.930863,0.620186 6.818601,3.344632 7.59073,7.161489 0.256887,1.26987 0.181558,3.304 -0.171889,4.64158 -0.340462,1.28843 -1.247149,3.12355 -2.096631,4.24354 -0.76809,1.01268 -11.308092,11.82396 -11.650899,11.95078 -0.113636,0.042 -0.780799,0.11556 -1.482584,0.1634 -1.069266,0.0729 -1.260191,0.0607 -1.178552,-0.0752 0.05358,-0.0892 1.934984,-2.33797 4.180893,-4.99731 2.245909,-2.65934 4.302301,-5.11996 4.569759,-5.46806 0.617758,-0.804 1.453127,-2.52399 1.706642,-3.51391 0.29573,-1.15477 0.358781,-3.16622 0.132568,-4.2292 -0.807995,-3.796777 -4.129624,-5.892037 -7.487111,-4.722817 -1.383351,0.48174 -1.495499,0.60039 -1.003953,1.06218 0.417743,0.392437 0.93089,1.621957 0.986803,2.364397 0.06661,0.8845 -0.204242,1.23833 -0.935212,1.22171 -0.539654,-0.0123 -1.642006,-0.50987 -2.267281,-1.02346 l -0.346069,-0.28426 -0.566061,0.40667 c -1.118613,0.80364 -2.343095,1.07432 -2.798745,0.61867 -0.508809,-0.50881 -0.175727,-2.1313 0.650091,-3.16669 l 0.415434,-0.520867 -0.326975,-0.20475 c -1.230895,-0.77077 -3.537495,-0.9932 -4.880722,-0.47064 -1.589703,0.61844 -3.139855,2.189537 -3.508446,3.898487 -0.249572,1.15713 -0.295816,1.79431 -0.28297,2.69872 0.01418,0.99818 0.01861,1.86555 0.396774,2.96845 0.216074,0.63017 0.647646,1.55621 0.95905,2.05787 0.311403,0.50166 2.529995,3.23657 4.930205,6.07758 2.400208,2.84101 4.390937,5.20903 4.423839,5.26227 0.06824,0.11041 -0.807961,0.10201 -2.003461,-0.0192 z m -1.831152,-9.82058 v -2.88102 h 0.293981 0.293982 v 2.52824 2.52824 h 3.762963 3.762962 v -2.52824 c 0,-2.44985 0.0073,-2.52824 0.235186,-2.52824 0.228785,0 0.235185,0.0784 0.235185,2.88102 v 2.88101 h -4.29213 -4.292129 z m 4.362814,-0.65143 c -0.550608,-0.24982 -0.614179,-0.43715 -0.07934,-0.23381 0.174869,0.0665 0.602097,0.12088 0.949394,0.12088 0.347297,0 0.774525,-0.0544 0.949394,-0.12088 0.534841,-0.20334 0.47127,-0.016 -0.07934,0.23381 -0.284504,0.12908 -0.676028,0.23469 -0.870056,0.23469 -0.194028,0 -0.585552,-0.10561 -0.870056,-0.23469 z m -6.004911,-2.50859 c 0.0947,-0.0888 1.47808,-1.22337 3.074168,-2.52132 l 2.901976,-2.3599 3.062791,2.49191 c 2.954289,2.40364 3.048663,2.49319 2.664006,2.52784 -0.362692,0.0327 -0.640023,-0.16066 -3.064252,-2.13601 l -2.665469,-2.17193 -2.649362,2.16541 c -2.345693,1.91721 -2.697886,2.16541 -3.072705,2.16541 -0.364079,0 -0.399238,-0.0226 -0.251153,-0.16141 z"
         id="path891"
         inkscape:connector-curvature="0"
         sodipodi:nodetypes="ccsscssccssssscscccsccscccccccsccccsascscccccccccccsssccccccsccscccccccccssc" />
    </g>
  </g>
</svg>
