<?xml version="1.0" encoding="UTF-8" standalone="no"?>
<!-- Created with Inkscape (http://www.inkscape.org/) -->

<svg
   xmlns:dc="http://purl.org/dc/elements/1.1/"
   xmlns:cc="http://creativecommons.org/ns#"
   xmlns:rdf="http://www.w3.org/1999/02/22-rdf-syntax-ns#"
   xmlns:svg="http://www.w3.org/2000/svg"
   xmlns="http://www.w3.org/2000/svg"
   xmlns:sodipodi="http://sodipodi.sourceforge.net/DTD/sodipodi-0.dtd"
   xmlns:inkscape="http://www.inkscape.org/namespaces/inkscape"
   version="1.1"
   id="svg2"
   xml:space="preserve"
   width="300"
   height="300"
   viewBox="0 0 300 300"
   sodipodi:docname="allIcon.svg"
   inkscape:version="0.92.3 (2405546, 2018-03-11)"><metadata
     id="metadata8"><rdf:RDF><cc:Work
         rdf:about=""><dc:format>image/svg+xml</dc:format><dc:type
           rdf:resource="http://purl.org/dc/dcmitype/StillImage" /><dc:title /></cc:Work></rdf:RDF></metadata><defs
     id="defs6" /><sodipodi:namedview
     pagecolor="#ffffff"
     bordercolor="#666666"
     borderopacity="1"
     objecttolerance="10"
     gridtolerance="10"
     guidetolerance="10"
     inkscape:pageopacity="0"
     inkscape:pageshadow="2"
     inkscape:window-width="1920"
     inkscape:window-height="963"
     id="namedview4"
     showgrid="false"
     fit-margin-top="0"
     fit-margin-left="0"
     fit-margin-right="0"
     fit-margin-bottom="0"
     inkscape:zoom="1.0012632"
     inkscape:cx="249.67239"
     inkscape:cy="0.91046033"
     inkscape:window-x="0"
     inkscape:window-y="27"
     inkscape:window-maximized="1"
     inkscape:current-layer="g857" /><g
     id="g10"
     inkscape:groupmode="layer"
     inkscape:label="ink_ext_XXXXXX"
     transform="matrix(1.3333333,0,0,-1.3333333,-205.51334,540.9135)"><g
       id="g12"
       transform="scale(0.1)"><g
         id="g857"
         transform="translate(-2.6667115,-10.587805)"><path
           id="path835-6"
           d="m 2669.5295,1817.4538 a 1125,1125 0 0 1 1125,1125 1125,1125 0 0 1 -1125,1125 1125,1125 0 0 1 -0.513,-0.015 V 1817.4831 a 1125,1125 0 0 1 0.513,-0.029 z"
           style="opacity:0.742;fill:#00804f;fill-opacity:1;stroke-width:7.27397728"
           inkscape:connector-curvature="0" /><path
           inkscape:connector-curvature="0"
           id="path835"
           d="m 2669.0168,4067.4392 a 1125,1125 0 0 1 -1125,-1125.0001 1125,1125 0 0 1 1125,-1125 1125,1125 0 0 1 0.5127,0.015 v 2249.9561 a 1125,1125 0 0 1 -0.5127,0.029 z"
           style="opacity:0.754;fill:#ff0000;fill-opacity:1;stroke-width:7.27397728" /></g><g
         id="g844"
         transform="matrix(0.41974521,0,0,0.44578531,2429.3001,1818.8072)"
         style="fill:#ffffff;fill-opacity:1"><path
           inkscape:connector-curvature="0"
           id="path30"
           style="fill:#ffffff;fill-opacity:1;fill-rule:nonzero;stroke:none"
           d="m 1111.04,2674.65 c 11.01,-35.48 19.7,-66.24 30.49,-96.24 2.6,-7.22 11.4,-15.82 18.62,-17.22 49.23,-9.55 98.79,-17.35 154.62,-26.79 -8.31,48.11 -15.46,89.48 -22.63,131 -60.84,3.11 -117.61,6.01 -181.1,9.25 z m 244.32,-12.14 c 8.34,-47.03 15.73,-88.72 24.07,-135.75 66.42,-10.74 133.58,-21.6 204.12,-33.01 0,53.88 0,103.76 0,157.53 -75.88,3.74 -149.36,7.35 -228.19,11.23 z m -107.73,270.57 c -1.81,8.68 -16.21,20.7 -25.11,20.96 -62.2,1.83 -124.47,0.97 -194.3,0.97 15.22,-51.66 28.8,-99.39 43.88,-146.66 1.6,-5.03 11.73,-10.01 18.18,-10.41 58.1,-3.56 116.25,-6.08 181.48,-9.25 -8.44,52.7 -14.67,98.88 -24.13,144.39 z m 398.81,-285.66 c 0,-50.23 -1.03,-96.42 0.99,-142.48 0.34,-7.77 12.92,-20.03 21.43,-21.58 58.39,-10.72 117.18,-19.14 179.56,-28.87 9.98,61.29 19.29,118.52 29.68,182.24 -78.8,3.64 -152.3,7.03 -231.66,10.69 z m 414.32,-225.91 c 8.16,-0.9 23.44,14.07 26.59,24.39 17.04,55.91 31.3,112.66 48.37,175.99 -64.53,4.21 -127.17,8.3 -195.04,12.73 -10.64,-63.42 -21,-125.21 -31.75,-189.27 52.44,-8.7 101.91,-18.24 151.83,-23.84 z m -476.51,530.6 c -91.89,0 -181.96,0 -277.1,0 8.5,-52.22 16.01,-102.97 25.93,-153.25 1.23,-6.28 14.91,-13.9 23.22,-14.4 74.81,-4.51 149.72,-7.57 227.95,-11.21 0,62.51 0,119.2 0,178.86 z m 572.5,-206.86 c 7.72,-0.24 20.7,7.46 22.85,14.15 20.1,62.89 38.38,126.35 58.24,193.23 -83.5,0 -162.26,0 -244.76,0 -10.87,-64.42 -21.64,-128.24 -33.43,-198.09 69.95,-3.54 133.49,-7.3 197.1,-9.29 z m -507.68,207.54 c 0,-60.04 0,-119.1 0,-182.89 81.94,-4.07 163.25,-8.11 249.01,-12.38 11.15,65.81 21.86,129.05 33.09,195.27 -95.69,0 -187.42,0 -282.1,0 z m -112.7,-924.3 c -130.4,0.01 -260.8,-0.43 -391.2,0.23 -53.11,0.26 -82.72,41.02 -62.93,85.33 13.89,31.13 41.51,35.06 72.05,35.02 305.13,-0.42 610.27,-0.4 915.41,-0.06 21.98,0.03 44.46,1.28 65.83,5.99 29.92,6.58 53.03,23.73 56.07,57.07 3.22,35.37 -18.63,55.28 -48.06,68.14 -11.8,5.15 -24.67,8.75 -37.43,10.7 -226.42,34.59 -452.92,68.78 -679.38,103.14 -105.28,15.98 -210.42,33.06 -315.89,47.79 -45.41,6.34 -73.56,26.3 -82.55,73.57 -7.04,36.98 -18.85,73.11 -29.567,109.32 -35.903,121.14 -72.785,242.01 -108.227,363.29 -15.672,53.65 9.094,85.9 64.992,87.84 11.731,0.41 23.465,0.12 35.203,0.12 412.069,0 824.129,0.67 1236.189,-1.08 39.21,-0.17 55.19,12.34 63.01,48.5 7.96,36.8 20.85,72.58 32.3,108.57 29.45,92.61 91.56,149.03 189.18,155.83 83.04,5.79 166.67,3.78 250.04,4.19 48.37,0.24 75.76,-22.1 76.46,-59.63 0.72,-38.7 -28.4,-62.02 -77.91,-62.12 -66.41,-0.13 -132.89,1.87 -199.2,-0.64 -70.62,-2.68 -110.26,-32.43 -128.61,-93.93 -74.08,-248.37 -147.06,-497.07 -221.47,-745.34 -8.44,-28.2 -2.35,-43.15 22.28,-60.73 77.68,-55.45 102.98,-147.23 64.84,-227.86 -38.47,-81.34 -108.4,-112.64 -194.2,-113.07 -157.78,-0.77 -315.56,-0.21 -473.35,-0.19 -31.29,0.01 -62.59,0.01 -93.88,0.01" /><path
           inkscape:connector-curvature="0"
           id="path32"
           style="fill:#ffffff;fill-opacity:1;fill-rule:nonzero;stroke:none"
           d="m 1399.08,1820.45 c 0.82,30.53 -25.29,57.31 -56.44,57.91 -30.96,0.6 -58.25,-25.29 -58.81,-55.81 -0.57,-30.46 25.9,-57.72 56.61,-58.27 30.74,-0.57 57.81,25.37 58.64,56.17 z m -57.28,180.71 c 97.04,0.17 179.74,-81.84 180.38,-178.85 0.63,-97.28 -85.9,-182.99 -182.71,-180.97 -99.31,2.08 -177.92,82.56 -177.11,181.35 0.8,99.65 79.89,178.31 179.44,178.47" /><path
           inkscape:connector-curvature="0"
           id="path34"
           style="fill:#ffffff;fill-opacity:1;fill-rule:nonzero;stroke:none"
           d="m 1974.54,1764.25 c 31.19,0.48 57.2,26.79 57.08,57.76 -0.12,30.47 -27.22,56.85 -58.18,56.62 -30.2,-0.21 -58.03,-28.14 -57.42,-57.61 0.63,-30.32 28.37,-57.23 58.52,-56.77 z m -1.18,-122.99 c -97.39,0.43 -179.28,82.28 -179.66,179.56 -0.38,98.83 83.4,181.64 182.52,180.42 99.23,-1.23 176.8,-80.95 176.26,-181.12 -0.54,-99.51 -80.44,-179.29 -179.12,-178.86" /></g><path
         d="m 2064.7034,3078.3717 c 1.271,-4.6776 1.271,-9.6311 -0.5108,-14.5778 m 153.0401,-429.4167 c 61.1101,60.2492 138.2624,136.4492 196.0644,210.9933 h -158.8899 v 0 c -7.3825,0 -14.516,4.6775 -17.5686,12.6529 l -18.846,47.8654 -54.2384,-134.2415 c -1.7817,-5.4986 -5.8561,-9.9001 -11.2015,-12.1009 -9.9306,-3.8565 -20.8766,1.6489 -24.4466,12.3769 l -82.4976,242.6253 -28.7765,-75.6479 c -2.5481,-8.2513 -9.6751,-14.0257 -17.8239,-14.0257 h -151.7632 c 51.9459,-93.8062 161.4383,-202.4661 245.724,-285.8203 23.9358,-23.9327 45.8343,-45.6648 64.1692,-64.9198 16.8022,17.6062 37.4299,37.9653 60.0946,60.2423 z m -130.6308,532.8471 c -28.01,27.7824 -65.4399,41.8151 -108.726,41.8151 -44.0523,0 -84.0303,-20.9041 -112.8068,-55.0199 -29.281,-34.6606 -47.3605,-82.5262 -47.3605,-135.8904 0,-16.2333 3.5635,-33.5637 10.4414,-51.9911 h 157.8748 l 42.7751,113.3375 c 4.0744,10.4521 15.0268,15.6746 24.9574,11.273 5.3454,-2.2008 9.1644,-6.8715 10.9461,-12.3768 l 82.7594,-244.2812 53.4722,132.0475 c 4.0744,10.4522 15.2759,15.4056 24.9511,10.7281 4.8409,-2.2008 8.4043,-6.6023 10.186,-11.5559 l 30.8138,-78.6766 h 176.4587 c 32.0845,47.5895 53.223,93.2543 53.223,131.4955 0,53.3642 -18.0796,101.2298 -47.6159,135.8904 -28.7765,34.1158 -68.7545,55.0199 -112.5514,55.0199 -45.8342,0 -83.775,-13.4808 -111.2743,-40.9872 -26.4836,-26.4095 -43.7969,-66.2997 -49.1484,-119.3878 v 0 c -0.7601,-9.0791 -7.3826,-16.7854 -16.2915,-18.1584 -10.4414,-1.3728 -20.1165,6.3264 -21.3939,17.6064 -6.6161,52.819 -25.2065,92.4334 -51.6903,119.1119 z m -108.726,83.0782 c 52.7057,0 99.3063,-17.6064 134.4434,-52.543 17.8241,-17.8825 32.5955,-40.1594 43.797,-66.8448 10.6969,26.9613 25.2128,49.5143 43.2923,67.3967 34.6264,34.6606 81.4823,51.9911 136.9917,51.9911 54.9984,0 104.6579,-26.1337 140.8105,-68.4937 35.3992,-42.091 57.553,-99.8635 57.553,-163.6797 0,-48.9692 -26.2284,-104.81 -65.1909,-161.4788 -1.0154,-2.2007 -2.2927,-4.1254 -4.0745,-5.7745 -61.3655,-88.0317 -152.2675,-177.4362 -222.5481,-247.0337 -29.2875,-28.6103 -54.7494,-53.6401 -72.3181,-72.8953 -7.3824,-8.2512 -19.6057,-8.2512 -26.9882,-0.2759 v 0.2759 c -19.6122,21.18 -46.6006,47.8654 -76.6479,77.5728 -93.7056,93.2542 -217.9693,216.2227 -266.6006,325.1586 -1.2773,1.9248 -2.2928,4.1256 -3.059,6.6023 -11.4571,27.2304 -17.8241,53.364 -17.8241,77.8486 0,63.8162 21.8985,121.5887 57.5466,163.6797 35.9034,42.36 85.8121,68.4937 140.8169,68.4937 v 0"
         style="fill:#ffffff;fill-opacity:1;fill-rule:nonzero;stroke:none;stroke-width:0.66376954"
         id="path26"
         inkscape:connector-curvature="0" /></g></g></svg>