<svg xmlns="http://www.w3.org/2000/svg" width="300" height="300"  xmlns:v="https://vecta.io/nano"><g transform="matrix(.133333 0 0 -.133333 -205.51334 540.9135)"><path d="M2666.863 1806.866c298.369 0 584.517 118.526 795.495 329.505s329.505 497.127 329.505 795.495c0 621.32-503.68 1125-1125 1125l-.513-.015.513-2249.985z" opacity=".742" fill="#00804f"/><path d="M2666.35 4056.851c-298.369 0-584.517-118.526-795.495-329.505s-329.505-497.127-329.505-795.495c0-621.32 503.68-1125 1125-1125l.513.015-.513 2249.985z" opacity=".754" fill="red"/><path d="M3170.911 3037.437c-1.557 5.982-5.625 10.999-11.157 13.758a21.39 21.39 0 0 1-17.702.633c-14.391 0-19.239-14.391-19.239-28.859l28.859-91.195a31.9 31.9 0 0 1 23.992-19.239h4.791c5.982 1.557 10.999 5.625 13.758 11.157a21.39 21.39 0 0 1 .633 17.702zm-67.203-254.442a80.9 80.9 0 0 1-81.595-81.595c-.718-46.157 35.472-84.48 81.595-86.404 44.507 1.315 80.28 37.087 81.595 81.595.718 46.157-35.472 84.48-81.595 86.404zm0-119.996c-9.754.105-18.999 4.367-25.414 11.716a34.23 34.23 0 0 0-8.178 26.763 32.8 32.8 0 0 0 33.592 33.592c19.652-1.846 34.416-18.758 33.592-38.479.208-8.968-3.266-17.629-9.612-23.969a32.8 32.8 0 0 0-23.98-9.585zm287.995 119.996a80.9 80.9 0 0 1-81.595-81.595c-.718-46.157 35.472-84.48 81.595-86.404 44.507 1.315 80.28 37.087 81.595 81.595.718 46.157-35.472 84.48-81.595 86.404zm0-119.996c-9.752.111-18.993 4.375-25.407 11.722s-9.391 17.079-8.185 26.757a32.8 32.8 0 0 0 33.592 33.592c19.721.824 36.633-13.941 38.479-33.592-4.868-24.049-19.278-38.44-38.46-38.44zm153.607 465.633v9.62l-9.62 9.62h-4.791a4.7 4.7 0 0 0-3.417 1.374c-.905.904-1.4 2.138-1.374 3.417H2988.5l-19.239 76.804a31.9 31.9 0 0 1-23.992 19.239h-96.005c-13.256 0-24.001-10.746-24.001-24.001s10.746-24.001 24.001-24.001h76.804l91.195-364.799a31.9 31.9 0 0 1 23.992-19.239h384.058a26.4 26.4 0 0 1 23.992 14.391l96.005 287.995v9.62zm-139.197-264.004h-345.598l-62.394 239.993h489.606l-81.595-239.993zm-33.611 187.201c-11.927 3.709-24.657-2.648-28.859-14.41l-28.859-91.195c-3.709-11.927 2.648-24.657 14.41-28.859h4.791c11.529-.033 21.519 7.979 23.992 19.239l28.859 91.195a16.2 16.2 0 0 1-14.333 24.03zm-1036.215 34.803a21.17 21.17 0 0 1-20.124 14.618h-48.17v74.058c.021 5.63-2.202 11.037-6.179 15.022s-9.378 6.222-15.008 6.213h-254.099c-5.616.004-11.004-2.225-14.975-6.196s-6.2-9.359-6.196-14.975v-74.058h-48.17c-9.17.012-17.301-5.894-20.124-14.618l-48.186-148.229V2688.33c-.004-5.616 2.225-11.004 6.196-14.975s9.359-6.2 14.975-6.196h487.044c5.616-.004 11.004 2.225 14.975 6.196s6.2 9.359 6.196 14.975v250.139zm-317.161 62.273h201.244v-47.639h-201.244zm317.644-434.108h-434.076v216.104l39.911 122.695h354.303l39.911-122.695zm-124.369 177.337h-71.45v71.466c-.009 2.922-2.375 5.288-5.297 5.297h-31.732c-2.922-.009-5.288-2.375-5.297-5.297v-71.466h-71.466c-2.922-.009-5.288-2.375-5.297-5.297v-31.764c.009-2.922 2.375-5.288 5.297-5.297h71.466v-71.466c.009-2.922 2.375-5.288 5.297-5.297h31.764c2.922.009 5.288 2.375 5.297 5.297v71.45h71.466c2.922.009 5.288 2.375 5.297 5.297v31.732a5.31 5.31 0 0 1-5.345 5.345z" fill="#fff"/></g></svg>