<svg xmlns="http://www.w3.org/2000/svg" width="13.669" height="13.669" viewBox="0 0 13.669 13.669"><defs><style>.a{fill:#dfaa16;}</style></defs><path class="a" d="M9.305,21.3A1.538,1.538,0,0,1,10.512,22.5l1.206-.8a3.768,3.768,0,0,0-1.608-1.447v-.965H8.9v.825C7.469,20.267,7.3,21.277,7.3,22.1c0,2.036,3.216,1.977,3.216,2.814s-.484.8-1.206.8-.8-1.206-.8-1.206l-1.206.8A2.97,2.97,0,0,0,8.9,26.872v1.259h1.206V26.853a1.811,1.811,0,0,0,1.608-1.938c0-1.871-3.216-1.648-3.216-2.814C8.5,21.345,8.977,21.3,9.305,21.3Zm0-4.824a6.834,6.834,0,1,0,6.835,6.835A6.834,6.834,0,0,0,9.305,16.472Zm0,12.463a5.628,5.628,0,1,1,5.629-5.628A5.628,5.628,0,0,1,9.305,28.935Z" transform="translate(-2.471 -16.472)"/></svg>