<svg xmlns="http://www.w3.org/2000/svg" width="13.669" height="13.669"  xmlns:v="https://vecta.io/nano"><path d="M6.834 4.828a1.54 1.54 0 0 1 1.207 1.2l1.206-.8a3.77 3.77 0 0 0-1.608-1.447v-.965h-1.21v.825c-1.431.154-1.6 1.164-1.6 1.987 0 2.036 3.216 1.977 3.216 2.814s-.484.8-1.206.8-.8-1.206-.8-1.206l-1.206.8A2.97 2.97 0 0 0 6.429 10.4v1.259h1.206v-1.278a1.81 1.81 0 0 0 1.608-1.938c0-1.871-3.216-1.648-3.216-2.814.002-.756.479-.801.807-.801zm0-4.824C3.06.005.001 3.064.001 6.838s3.06 6.833 6.834 6.834 6.834-3.059 6.834-6.833c.001-1.814-.718-3.553-2-4.836S8.648 0 6.834 0zm0 12.463a5.63 5.63 0 0 1-5.627-5.629 5.63 5.63 0 0 1 5.628-5.627 5.63 5.63 0 0 1 5.628 5.628 5.63 5.63 0 0 1-5.629 5.624z" fill="#dfaa16"/></svg>