<svg xmlns="http://www.w3.org/2000/svg" width="23" height="23" viewBox="0 0 23 23"><defs><style>.a{fill:#1c1c1c;}</style></defs><path class="a" d="M13.971,24.59A2.588,2.588,0,0,1,16,26.619l2.03-1.353a6.34,6.34,0,0,0-2.706-2.435V21.208H13.295V22.6c-2.414.262-2.706,1.961-2.706,3.348,0,3.426,5.411,3.327,5.411,4.735s-.815,1.353-2.03,1.353S12.619,30,12.619,30l-2.03,1.353a5,5,0,0,0,2.706,2.617V36.09h2.029V33.939a3.048,3.048,0,0,0,2.706-3.261c0-3.148-5.411-2.773-5.411-4.735C12.619,24.671,13.419,24.59,13.971,24.59Zm0-8.118a11.5,11.5,0,1,0,11.5,11.5A11.5,11.5,0,0,0,13.971,16.472Zm0,20.971a9.471,9.471,0,1,1,9.472-9.471A9.471,9.471,0,0,1,13.971,37.443Z" transform="translate(-2.471 -16.472)"/></svg>