<?xml version="1.0" encoding="UTF-8" standalone="no"?>
<svg
   xmlns:dc="http://purl.org/dc/elements/1.1/"
   xmlns:cc="http://creativecommons.org/ns#"
   xmlns:rdf="http://www.w3.org/1999/02/22-rdf-syntax-ns#"
   xmlns:svg="http://www.w3.org/2000/svg"
   xmlns="http://www.w3.org/2000/svg"
   xmlns:sodipodi="http://sodipodi.sourceforge.net/DTD/sodipodi-0.dtd"
   xmlns:inkscape="http://www.inkscape.org/namespaces/inkscape"
   width="37.423"
   height="32.931999"
   viewBox="0 0 38 38"
   version="1.1"
   id="svg14"
   sodipodi:docname="grocery.svg"
   inkscape:version="1.0.1 (1.0.1+r74)">
  <metadata
     id="metadata18">
    <rdf:RDF>
      <cc:Work
         rdf:about="">
        <dc:format>image/svg+xml</dc:format>
        <dc:type
           rdf:resource="http://purl.org/dc/dcmitype/StillImage" />
        <dc:title></dc:title>
      </cc:Work>
    </rdf:RDF>
  </metadata>
  <sodipodi:namedview
     pagecolor="#ffffff"
     bordercolor="#666666"
     borderopacity="1"
     objecttolerance="10"
     gridtolerance="10"
     guidetolerance="10"
     inkscape:pageopacity="0"
     inkscape:pageshadow="2"
     inkscape:window-width="1920"
     inkscape:window-height="960"
     id="namedview16"
     showgrid="false"
     inkscape:zoom="8.8248784"
     inkscape:cx="4.673385"
     inkscape:cy="24.468679"
     inkscape:window-x="0"
     inkscape:window-y="27"
     inkscape:window-maximized="1"
     inkscape:current-layer="svg14" />
  <defs
     id="defs4">
    <style
       id="style2">.a{fill:#39b67c;}</style>
  </defs>
  <g
     transform="translate(-85.04425,-139.687)"
     id="g12">
    <path
       class="a"
       d="m 326.312,374.175 a 1.112,1.112 0 0 0 -1.5,-0.748 c -0.748,0 -1,0.748 -1,1.5 l 1.5,4.74 a 1.658,1.658 0 0 0 1.247,1 h 0.249 a 1.112,1.112 0 0 0 0.748,-1.5 z m -3.493,13.225 a 4.205,4.205 0 0 0 -4.241,4.241 4.426,4.426 0 0 0 4.241,4.491 4.372,4.372 0 0 0 4.241,-4.241 4.426,4.426 0 0 0 -4.241,-4.491 z m 0,6.237 a 1.779,1.779 0 0 1 -1.746,-2 1.705,1.705 0 0 1 1.746,-1.746 1.928,1.928 0 0 1 1.746,2 1.705,1.705 0 0 1 -1.746,1.744 z m 14.969,-6.237 a 4.205,4.205 0 0 0 -4.241,4.241 4.426,4.426 0 0 0 4.241,4.491 4.372,4.372 0 0 0 4.241,-4.241 4.426,4.426 0 0 0 -4.241,-4.491 z m 0,6.237 a 1.78,1.78 0 0 1 -1.746,-2 1.705,1.705 0 0 1 1.746,-1.746 1.928,1.928 0 0 1 2,1.746 c -0.253,1.25 -1.002,1.998 -1.999,1.998 z"
       transform="translate(-223.015,-220.976)"
       id="path6" />
    <path
       class="a"
       d="m 122.757,148.459 v -0.5 a 5768.955,5768.955 0 0 0 -0.5,-0.5 h -0.249 a 0.244,0.244 0 0 1 -0.249,-0.249 H 93.816 l -1,-3.992 a 1.658,1.658 0 0 0 -1.247,-1 h -4.99 a 1.2475,1.2475 0 0 0 0,2.495 h 3.992 l 4.74,18.961 a 1.658,1.658 0 0 0 1.247,1 h 19.962 a 1.372,1.372 0 0 0 1.247,-0.748 l 4.99,-14.969 v -0.5 z m -7.235,13.722 H 97.559 l -3.243,-12.474 h 25.448 l -4.241,12.474 z"
       id="path8" />
    <path
       class="a"
       d="m 667.147,374.02 a 1.211,1.211 0 0 0 -1.5,0.749 l -1.5,4.74 a 1.211,1.211 0 0 0 0.749,1.5 h 0.249 a 1.273,1.273 0 0 0 1.247,-1 l 1.5,-4.74 a 0.842,0.842 0 0 0 -0.745,-1.249 z"
       transform="translate(-553.372,-221.569)"
       id="path10" />
  </g>
</svg>
