<svg xmlns="http://www.w3.org/2000/svg" width="37.423" height="32.932" viewBox="0 0 38 38"  fill="#39b67c" xmlns:v="https://vecta.io/nano"><path d="M18.253 13.512a1.11 1.11 0 0 0-1.5-.748c-.748 0-1 .748-1 1.5l1.5 4.74a1.66 1.66 0 0 0 1.247 1h.249a1.11 1.11 0 0 0 .748-1.5zM14.76 26.737c-1.128-.01-2.212.434-3.01 1.231a4.2 4.2 0 0 0-1.231 3.01c-.037 2.399 1.844 4.391 4.241 4.491 2.313-.068 4.173-1.928 4.241-4.241.037-2.399-1.844-4.391-4.241-4.491zm0 6.237a1.78 1.78 0 0 1-1.746-2c-.011-.466.169-.917.499-1.247s.781-.51 1.247-.499a1.93 1.93 0 0 1 1.746 2c.011.466-.17.916-.5 1.246a1.7 1.7 0 0 1-1.246.498zm14.969-6.237c-1.128-.01-2.212.434-3.01 1.231a4.2 4.2 0 0 0-1.231 3.01c-.037 2.399 1.844 4.391 4.241 4.491 2.313-.068 4.173-1.928 4.241-4.241.037-2.399-1.844-4.391-4.241-4.491zm0 6.237a1.78 1.78 0 0 1-1.746-2c-.011-.466.169-.917.499-1.247s.781-.51 1.247-.499a1.93 1.93 0 0 1 2 1.746c-.253 1.25-1.002 1.998-1.999 1.998zm7.984-24.202v-.5l-.5-.5h-.249c-.066.001-.131-.024-.178-.071s-.073-.111-.071-.178H8.772l-1-3.992a1.66 1.66 0 0 0-1.247-1h-4.99A1.25 1.25 0 0 0 .288 3.779a1.25 1.25 0 0 0 1.248 1.248h3.992l4.74 18.961a1.66 1.66 0 0 0 1.247 1h19.962a1.37 1.37 0 0 0 1.247-.748l4.99-14.969v-.5zm-7.235 13.722H12.515L9.272 10.02H34.72l-4.241 12.474zm-1.747-9.73a1.21 1.21 0 0 0-1.5.749l-1.5 4.74a1.21 1.21 0 0 0 .749 1.5h.249c.599.002 1.118-.415 1.247-1l1.5-4.74a.84.84 0 0 0-.745-1.249z"/></svg>