<svg xmlns="http://www.w3.org/2000/svg" width="263.418" height="263.418"  xmlns:v="https://vecta.io/nano"><g transform="matrix(.133333 0 0 -.133333 -225.28759 528.34289)"><circle cx="2677.475" cy="-2974.754" r="987.818" transform="scale(1 -1)" opacity=".762" fill="#00804f"/><path d="M2595.047 3139.47c-2.429 9.333-8.776 17.159-17.406 21.462s-18.7 4.664-27.615.988c-22.45 0-30.014-22.45-30.014-45.021l45.021-142.266c6.511-15.755 20.634-27.081 37.427-30.014h7.473c9.333 2.429 17.159 8.776 21.462 17.406s4.664 18.7.988 27.615zm-104.839-396.935a126.21 126.21 0 0 1-127.289-127.289c-1.12-72.006 55.337-131.791 127.289-134.793 69.433 2.051 125.238 57.857 127.289 127.289 1.12 72.006-55.337 131.791-127.289 134.793zm0-187.197a53.39 53.39 0 0 0-39.647 18.277c-10.007 11.464-14.649 26.652-12.757 41.751-.341 14 5.071 27.528 14.973 37.431a51.17 51.17 0 0 0 37.431 14.973c30.657-2.88 53.689-29.263 52.404-60.028a51.18 51.18 0 0 0-14.995-37.392 51.17 51.17 0 0 0-37.409-14.953zm449.279 187.197a126.21 126.21 0 0 1-127.289-127.289c-1.12-72.006 55.337-131.791 127.289-134.793 69.433 2.051 125.238 57.857 127.289 127.289 1.12 72.006-55.337 131.791-127.289 134.793zm0-187.197c-15.213.174-29.63 6.825-39.636 18.286s-14.65 26.644-12.769 41.741c-.341 14 5.071 27.528 14.973 37.431a51.17 51.17 0 0 0 37.431 14.973c30.765 1.285 57.148-21.748 60.028-52.404-7.594-37.517-30.074-59.968-59.998-59.968zm239.632 726.399v15.007l-15.007 15.007h-7.473a7.33 7.33 0 0 0-5.33 2.143 7.32 7.32 0 0 0-2.143 5.33h-838.68l-30.014 119.816c-6.511 15.755-20.634 27.081-37.427 30.014h-149.77c-20.679 0-37.442-16.764-37.442-37.442s16.764-37.442 37.442-37.442h119.816l142.266-569.095c6.511-15.755 20.634-27.081 37.427-30.014h599.139a41.18 41.18 0 0 1 37.427 22.45l149.77 449.279v15.007zm-217.151-411.852h-539.141l-97.335 374.394h763.796l-127.289-374.394zm-52.435 292.036c-18.607 5.786-38.466-4.131-45.021-22.48l-45.021-142.266c-5.786-18.607 4.131-38.466 22.48-45.021h7.473a38.21 38.21 0 0 1 37.427 30.014l45.021 142.266a25.27 25.27 0 0 1-22.36 37.487z" fill="#fff"/></g></svg>