<?xml version="1.0" encoding="UTF-8" standalone="no"?>
<svg
   xmlns:dc="http://purl.org/dc/elements/1.1/"
   xmlns:cc="http://creativecommons.org/ns#"
   xmlns:rdf="http://www.w3.org/1999/02/22-rdf-syntax-ns#"
   xmlns:svg="http://www.w3.org/2000/svg"
   xmlns="http://www.w3.org/2000/svg"
   xmlns:sodipodi="http://sodipodi.sourceforge.net/DTD/sodipodi-0.dtd"
   xmlns:inkscape="http://www.inkscape.org/namespaces/inkscape"
   version="1.1"
   id="svg2"
   xml:space="preserve"
   width="277.00723"
   height="277.00723"
   viewBox="0 0 277.00722 277.00722"
   sodipodi:docname="medicalIcon.svg"
   inkscape:version="1.0.1 (1.0.1+r74)"><metadata
     id="metadata8"><rdf:RDF><cc:Work
         rdf:about=""><dc:format>image/svg+xml</dc:format><dc:type
           rdf:resource="http://purl.org/dc/dcmitype/StillImage" /><dc:title></dc:title></cc:Work></rdf:RDF></metadata><defs
     id="defs6" /><sodipodi:namedview
     pagecolor="#ffffff"
     bordercolor="#666666"
     borderopacity="1"
     objecttolerance="10"
     gridtolerance="10"
     guidetolerance="10"
     inkscape:pageopacity="0"
     inkscape:pageshadow="2"
     inkscape:window-width="1920"
     inkscape:window-height="960"
     id="namedview4"
     showgrid="false"
     inkscape:zoom="1.7699999"
     inkscape:cx="100.60834"
     inkscape:cy="102.11988"
     inkscape:window-x="0"
     inkscape:window-y="27"
     inkscape:window-maximized="1"
     inkscape:current-layer="g12"
     fit-margin-top="0"
     fit-margin-left="0"
     fit-margin-right="0"
     fit-margin-bottom="0"
     inkscape:document-rotation="0" /><g
     id="g10"
     inkscape:groupmode="layer"
     inkscape:label="ink_ext_XXXXXX"
     transform="matrix(1.3333333,0,0,-1.3333333,-652.41063,752.88784)"><g
       id="g12"
       transform="scale(0.1)"><circle
         style="opacity:0.745;fill:#ff0000;fill-opacity:1;stroke-width:4.67666006"
         id="path819"
         cx="5931.8569"
         cy="-4607.8818"
         r="1038.7771"
         transform="scale(1,-1)" /><g
         id="g1444"
         transform="matrix(4.0162534,0,0,4.0162534,-18672.237,-15024.305)"
         style="fill:#ffffff"><g
           transform="matrix(7.5000002,0,0,-7.5000002,5162.8233,5851.4918)"
           id="g841"
           style="fill:#ffffff"><path
             class="a"
             d="m 141.891,118.827 a 1.315,1.315 0 0 0 -1.25,-0.908 h -2.992 v -4.6 A 1.314,1.314 0 0 0 136.333,112 H 120.55 a 1.314,1.314 0 0 0 -1.315,1.315 v 4.6 h -2.992 a 1.312,1.312 0 0 0 -1.25,0.908 L 112,128.03 v 15.537 a 1.314,1.314 0 0 0 1.315,1.315 h 30.252 a 1.314,1.314 0 0 0 1.315,-1.315 V 128.03 Z m -19.7,-3.868 h 12.5 v 2.959 h -12.5 z m 19.73,26.964 H 114.959 V 128.5 l 2.479,-7.621 h 22.007 l 2.479,7.621 z"
             id="path837"
             style="fill:#ffffff" /><path
             class="a"
             d="M 375.838,460.768 H 371.4 v -4.439 A 0.33,0.33 0 0 0 371.071,456 H 369.1 a 0.33,0.33 0 0 0 -0.329,0.329 v 4.439 h -4.439 a 0.33,0.33 0 0 0 -0.329,0.329 v 1.973 a 0.33,0.33 0 0 0 0.329,0.329 h 4.439 v 4.439 a 0.33,0.33 0 0 0 0.329,0.329 h 1.973 a 0.33,0.33 0 0 0 0.329,-0.329 V 463.4 h 4.439 a 0.33,0.33 0 0 0 0.329,-0.329 V 461.1 a 0.33,0.33 0 0 0 -0.332,-0.332 z"
             transform="translate(-241.642,-329.86)"
             id="path839"
             style="fill:#ffffff" /></g></g></g></g></svg>
