<svg xmlns="http://www.w3.org/2000/svg" width="32.883" height="32.883" viewBox="0 0 32.883 32.883"><defs><style>.a{fill:#d50303;}</style></defs><g transform="translate(-112 -112)"><path class="a" d="M141.891,118.827a1.315,1.315,0,0,0-1.25-.908h-2.992v-4.6A1.314,1.314,0,0,0,136.333,112H120.55a1.314,1.314,0,0,0-1.315,1.315v4.6h-2.992a1.312,1.312,0,0,0-1.25.908L112,128.03v15.537a1.314,1.314,0,0,0,1.315,1.315h30.252a1.314,1.314,0,0,0,1.315-1.315V128.03Zm-19.7-3.868h12.5v2.959h-12.5Zm19.73,26.964H114.959V128.5l2.479-7.621h22.007l2.479,7.621Z"/><path class="a" d="M375.838,460.768H371.4v-4.439a.33.33,0,0,0-.329-.329H369.1a.33.33,0,0,0-.329.329v4.439h-4.439a.33.33,0,0,0-.329.329v1.973a.33.33,0,0,0,.329.329h4.439v4.439a.33.33,0,0,0,.329.329h1.973a.33.33,0,0,0,.329-.329V463.4h4.439a.33.33,0,0,0,.329-.329V461.1A.33.33,0,0,0,375.838,460.768Z" transform="translate(-241.642 -329.86)"/></g></svg>