<svg xmlns="http://www.w3.org/2000/svg" width="277.007" height="277.007"  xmlns:v="https://vecta.io/nano"><g transform="matrix(.133333 0 0 -.133333 -652.41063 752.88784)"><circle cx="5931.857" cy="-4607.882" r="1038.777" transform="scale(1 -1)" opacity=".745" fill="red"/><path d="M6336.996 4897.474c-5.307 16.306-20.504 27.345-37.652 27.351h-90.125v138.561a39.58 39.58 0 0 1-39.64 39.731h-475.414a39.58 39.58 0 0 1-39.61-39.61v-138.561h-90.125a39.52 39.52 0 0 1-37.652-27.351l-90.155-277.332v-468.004a39.58 39.58 0 0 1 39.61-39.61h911.248a39.58 39.58 0 0 1 39.61 39.61v468.004zm-593.401 116.512h376.524v-89.131h-376.524zm594.305-812.207h-812.147v404.326l74.672 229.559h662.893l74.672-229.559zm-232.692 331.792h-133.681v133.711c-.017 5.466-4.444 9.894-9.91 9.91h-59.37c-5.466-.017-9.894-4.444-9.91-9.91v-133.711h-133.711c-5.466-.017-9.894-4.444-9.91-9.91v-59.431c.017-5.466 4.444-9.894 9.91-9.91h133.711v-133.711c.017-5.466 4.444-9.894 9.91-9.91h59.431c5.466.017 9.894 4.444 9.91 9.91v133.681h133.711c5.466.017 9.894 4.444 9.91 9.91v59.37a9.94 9.94 0 0 1-10 10z" fill="#fff"/></g></svg>