<?xml version="1.0" encoding="UTF-8" standalone="no"?>
<!-- Created with Inkscape (http://www.inkscape.org/) -->

<svg
   xmlns:dc="http://purl.org/dc/elements/1.1/"
   xmlns:cc="http://creativecommons.org/ns#"
   xmlns:rdf="http://www.w3.org/1999/02/22-rdf-syntax-ns#"
   xmlns:svg="http://www.w3.org/2000/svg"
   xmlns="http://www.w3.org/2000/svg"
   xmlns:sodipodi="http://sodipodi.sourceforge.net/DTD/sodipodi-0.dtd"
   xmlns:inkscape="http://www.inkscape.org/namespaces/inkscape"
   version="1.1"
   id="svg2"
   xml:space="preserve"
   width="277.00723"
   height="277.00723"
   viewBox="0 0 277.00722 277.00722"
   sodipodi:docname="medicalIcon.svg"
   inkscape:version="0.92.3 (2405546, 2018-03-11)"><metadata
     id="metadata8"><rdf:RDF><cc:Work
         rdf:about=""><dc:format>image/svg+xml</dc:format><dc:type
           rdf:resource="http://purl.org/dc/dcmitype/StillImage" /><dc:title /></cc:Work></rdf:RDF></metadata><defs
     id="defs6" /><sodipodi:namedview
     pagecolor="#ffffff"
     bordercolor="#666666"
     borderopacity="1"
     objecttolerance="10"
     gridtolerance="10"
     guidetolerance="10"
     inkscape:pageopacity="0"
     inkscape:pageshadow="2"
     inkscape:window-width="1920"
     inkscape:window-height="963"
     id="namedview4"
     showgrid="false"
     inkscape:zoom="1.7699999"
     inkscape:cx="100.60834"
     inkscape:cy="56.922139"
     inkscape:window-x="0"
     inkscape:window-y="27"
     inkscape:window-maximized="1"
     inkscape:current-layer="g12"
     fit-margin-top="0"
     fit-margin-left="0"
     fit-margin-right="0"
     fit-margin-bottom="0" /><g
     id="g10"
     inkscape:groupmode="layer"
     inkscape:label="ink_ext_XXXXXX"
     transform="matrix(1.3333333,0,0,-1.3333333,-652.41063,752.88784)"><g
       id="g12"
       transform="scale(0.1)"><circle
         style="opacity:0.745;fill:#ff0000;fill-opacity:1;stroke-width:4.67666006"
         id="path819"
         cx="5931.8569"
         cy="-4607.8818"
         r="1038.7771"
         transform="scale(1,-1)" /><path
         d="m 5835.8292,4738.4804 c 1.6455,-5.606 1.6455,-11.5425 -0.6613,-17.4708 m 198.1386,-514.6366 c 79.1182,72.206 179.0062,163.5282 253.8415,252.8659 h -205.7124 v 0 c -9.5579,0 -18.7935,5.6058 -22.7457,15.1639 l -24.3996,57.3646 -70.2216,-160.8823 c -2.3067,-6.5897 -7.5818,-11.8648 -14.5024,-14.5025 -12.857,-4.6218 -27.0287,1.9762 -31.6506,14.8332 l -106.8084,290.7754 -37.2564,-90.6605 c -3.299,-9.8888 -12.5263,-16.8092 -23.0764,-16.8092 h -196.4853 c 67.2534,-112.4225 209.0115,-242.6465 318.1349,-342.5426 30.9893,-28.6824 59.3409,-54.7273 83.0789,-77.8036 21.7535,21.1004 48.4598,45.4997 77.8035,72.1977 z m -169.1257,638.5932 c -36.2642,33.296 -84.7241,50.1135 -140.7658,50.1135 -57.0338,0 -108.7927,-25.0526 -146.0491,-65.9388 -37.9097,-41.5393 -61.317,-98.904 -61.317,-162.8584 0,-19.4551 4.6137,-40.2247 13.5184,-62.3091 h 204.3979 l 55.3802,135.8298 c 5.2751,12.5263 19.455,18.7853 32.3121,13.5102 6.9205,-2.6376 11.865,-8.2351 14.1717,-14.833 l 107.1473,-292.7599 69.2296,158.2529 c 5.2751,12.5265 19.7775,18.4629 32.3038,12.8571 6.2674,-2.6375 10.881,-7.9126 13.1877,-13.8492 l 39.8941,-94.2904 h 228.4582 c 41.5393,57.034 68.907,111.7611 68.907,157.5916 0,63.9544 -23.4072,121.3191 -61.6475,162.8584 -37.2565,40.8862 -89.0153,65.9388 -145.7184,65.9388 -59.341,0 -108.4623,-16.156 -144.0651,-49.1213 -34.288,-31.6505 -56.7032,-79.4572 -63.6318,-143.0809 v 0 c -0.984,-10.8809 -9.5581,-20.1165 -21.0923,-21.762 -13.5184,-1.6452 -26.0446,7.582 -27.6983,21.1005 -8.5659,63.3012 -32.6345,110.7772 -66.9227,142.7502 z m -140.7658,99.5655 c 68.2373,0 128.5702,-21.1004 174.0618,-62.9704 23.0765,-21.4313 42.2008,-48.1292 56.7032,-80.1105 13.8492,32.3119 32.6427,59.3407 56.05,80.7718 44.8301,41.5393 105.4938,62.3091 177.361,62.3091 71.2055,0 135.4988,-31.32 182.3049,-82.0866 45.8308,-50.4441 74.513,-119.6819 74.513,-196.1626 0,-58.6876 -33.9574,-125.6103 -84.4015,-193.5252 -1.3146,-2.6375 -2.9684,-4.9442 -5.2753,-6.9205 -79.4489,-105.5019 -197.1382,-212.6492 -288.1295,-296.0587 -37.918,-34.2882 -70.8832,-64.2852 -93.6291,-87.3617 -9.5579,-9.8887 -25.3832,-9.8887 -34.9412,-0.3305 v 0.3305 c -25.3916,25.3832 -60.3331,57.3646 -99.2347,92.9674 -121.3192,111.7611 -282.2015,259.1332 -345.1637,389.6879 -1.6538,2.3069 -2.9684,4.9444 -3.9605,7.9126 -14.8332,32.6345 -23.0765,63.9544 -23.0765,93.2982 0,76.4807 28.3516,145.7185 74.5046,196.1626 46.4837,50.7666 111.0996,82.0866 182.3135,82.0866 v 0"
         style="fill:#ffffff;fill-opacity:1;fill-rule:nonzero;stroke:none;stroke-width:0.82681835"
         id="path26"
         inkscape:connector-curvature="0" /></g></g></svg>