<svg xmlns="http://www.w3.org/2000/svg" width="32.883" height="32.883"  fill="#d50303" xmlns:v="https://vecta.io/nano"><path d="M29.891 6.827c-.176-.541-.681-.908-1.25-.908h-2.992v-4.6c.001-.35-.137-.686-.384-.933A1.32 1.32 0 0 0 24.333 0H8.55c-.349 0-.683.138-.93.385s-.385.581-.385.93v4.6H4.243a1.31 1.31 0 0 0-1.25.908L0 16.03v15.537c0 .349.138.683.385.93s.581.385.93.385h30.252c.349 0 .683-.138.93-.385s.385-.581.385-.93V16.03zm-19.7-3.868h12.5v2.959h-12.5zm19.73 26.964H2.959V16.5l2.479-7.621h22.007l2.479 7.621zm-7.725-11.015h-4.438v-4.439a.33.33 0 0 0-.329-.329h-1.971a.33.33 0 0 0-.329.329v4.439H10.69a.33.33 0 0 0-.329.329v1.973a.33.33 0 0 0 .329.329h4.439v4.439a.33.33 0 0 0 .329.329h1.973a.33.33 0 0 0 .329-.329V21.54h4.439a.33.33 0 0 0 .329-.329V19.24a.33.33 0 0 0-.332-.332z"/></svg>