<svg xmlns="http://www.w3.org/2000/svg" width="27.473" height="27.364" viewBox="0 0 27.473 27.364"><defs><style>.a{fill:#8b25a5;}</style></defs><path class="a" d="M75.844,85.029H65.663a.97.97,0,0,1-.97-.97V73.878a.97.97,0,0,1,.97-.97H75.844a.97.97,0,0,1,.97.97V84.059A.97.97,0,0,1,75.844,85.029ZM66.633,83.09h8.242V74.848H66.633ZM91.2,85.029H81.016a.97.97,0,0,1-.97-.97V73.878a.97.97,0,0,1,.97-.97H91.2a.97.97,0,0,1,.97.97V84.059A.97.97,0,0,1,91.2,85.029ZM81.985,83.09h8.242V74.848H81.985Zm-6.141,17.183H65.663a.97.97,0,0,1-.97-.97V89.122a.97.97,0,0,1,.97-.97H75.844a.97.97,0,0,1,.97.97V99.3A.97.97,0,0,1,75.844,100.272Zm-9.212-1.939h8.242V90.091H66.633ZM91.2,100.272H81.016a.97.97,0,0,1-.97-.97V89.122a.97.97,0,0,1,.97-.97H91.2a.97.97,0,0,1,.97.97V99.3A.97.97,0,0,1,91.2,100.272Zm-9.212-1.939h8.242V90.091H81.985Z" transform="translate(-64.693 -72.909)"/></svg>