<svg xmlns="http://www.w3.org/2000/svg" width="27.473" height="27.364"  xmlns:v="https://vecta.io/nano"><path d="M11.151 12.12H.97a.97.97 0 0 1-.97-.97V.969a.97.97 0 0 1 .97-.97h10.181a.97.97 0 0 1 .97.97V11.15a.97.97 0 0 1-.97.97zM1.94 10.181h8.242V1.939H1.94zm24.567 1.939H16.323a.97.97 0 0 1-.97-.97V.969a.97.97 0 0 1 .97-.97h10.184a.97.97 0 0 1 .97.97V11.15a.97.97 0 0 1-.97.97zm-9.215-1.939h8.242V1.939h-8.242zm-6.141 17.183H.97a.97.97 0 0 1-.97-.97V16.213a.97.97 0 0 1 .97-.97h10.181a.97.97 0 0 1 .97.97v10.178a.97.97 0 0 1-.97.972zm-9.212-1.939h8.242v-8.243H1.94zm24.568 1.938H16.323a.97.97 0 0 1-.97-.97v-10.18a.97.97 0 0 1 .97-.97h10.184a.97.97 0 0 1 .97.97v10.178a.97.97 0 0 1-.97.972zm-9.212-1.939h8.242v-8.242h-8.245z" fill="#8b25a5"/></svg>